<?xml version="1.0" standalone="no"?>
 <!DOCTYPE svg PUBLIC "-//W3C//DTD SVG 1.1//EN" 
 "http://www.w3.org/Graphics/SVG/1.1/DTD/svg11.dtd"> 
<svg
  xmlns:svg="http://www.w3.org/2000/svg"
  xmlns="http://www.w3.org/2000/svg"
  xmlns:xlink="http://www.w3.org/1999/xlink"
  version="1.1"
  width="15.0368mm" height="7.0358mm" viewBox="0.0000 0.0000 15.0368 7.0358">
<title>SVG Image created as Simple Graphic-B_Cu.svg date 2024/07/19 01:13:17 </title>
  <desc>Image generated by PCBNEW </desc>
<g style="fill:#000000; fill-opacity:1.0000;stroke:#000000; stroke-opacity:1.0000;
stroke-linecap:round; stroke-linejoin:round;"
 transform="translate(0 0) scale(1 1)">
<path style="fill:#000000; fill-opacity:1.0000; stroke:none;fill-rule:evenodd;"
d="M 11.6880,2.3129
11.6880,1.4629
12.5380,1.4629
12.5380,2.3129
Z" /> 
</g>
<g style="fill:#000000; fill-opacity:1.0000; stroke:none;">
<circle cx="13.1130" cy="1.8879" r="0.4250" /> 
<circle cx="12.1130" cy="2.8879" r="0.4250" /> 
<circle cx="13.1130" cy="2.8879" r="0.4250" /> 
<circle cx="12.1130" cy="3.8879" r="0.4250" /> 
<circle cx="13.1130" cy="3.8879" r="0.4250" /> 
<circle cx="12.1130" cy="4.8879" r="0.4250" /> 
<circle cx="13.1130" cy="4.8879" r="0.4250" /> 
<circle cx="3.0038" cy="2.4405" r="0.3000" /> 
<path style="fill:#000000; fill-opacity:1.0000; stroke:none;fill-rule:evenodd;"
d="M 14.3260,0.3266
14.3718,0.3794
14.3830,0.4309
14.3830,6.5329
14.3633,6.5999
14.3105,6.6457
14.2590,6.6569
0.7910,6.6569
0.7240,6.6372
0.6782,6.5844
0.6670,6.5329
0.6670,2.8879
11.1824,2.8879
11.2027,3.0814
11.2629,3.2664
11.2629,3.2664
11.2972,3.3259
11.3137,3.3938
11.2972,3.4499
11.2629,3.5094
11.2629,3.5094
11.2027,3.6944
11.1824,3.8879
11.2027,4.0814
11.2629,4.2664
11.2629,4.2664
11.2972,4.3259
11.3137,4.3938
11.2972,4.4499
11.2629,4.5094
11.2629,4.5094
11.2027,4.6944
11.1824,4.8879
11.2027,5.0814
11.2629,5.2664
11.2629,5.2664
11.3432,5.4055
11.3601,5.4349
11.4055,5.4852
11.4903,5.5794
11.4903,5.5794
11.4903,5.5794
11.6084,5.6652
11.6477,5.6938
11.7159,5.7242
11.8254,5.7729
12.0157,5.8134
12.2103,5.8134
12.4006,5.7729
12.4006,5.7729
12.4006,5.7729
12.5626,5.7008
12.6318,5.6915
12.6634,5.7008
12.8254,5.7729
12.8254,5.7729
12.8254,5.7729
13.0157,5.8134
13.2103,5.8134
13.4006,5.7729
13.5783,5.6938
13.7357,5.5794
13.8659,5.4349
13.9631,5.2664
14.0233,5.0814
14.0436,4.8879
14.0233,4.6944
13.9631,4.5094
13.9288,4.4499
13.9123,4.3820
13.9288,4.3259
13.9631,4.2664
14.0233,4.0814
14.0436,3.8879
14.0233,3.6944
13.9631,3.5094
13.9288,3.4499
13.9123,3.3820
13.9288,3.3259
13.9631,3.2664
14.0233,3.0814
14.0436,2.8879
14.0233,2.6944
13.9631,2.5094
13.9288,2.4499
13.9123,2.3820
13.9288,2.3259
13.9631,2.2664
14.0233,2.0814
14.0436,1.8879
14.0233,1.6944
13.9631,1.5094
13.9631,1.5094
13.9631,1.5094
13.9631,1.5094
13.9292,1.4506
13.8659,1.3409
13.8149,1.2843
13.7357,1.1963
13.7357,1.1963
13.7357,1.1963
13.7357,1.1963
13.6110,1.1057
13.5783,1.0820
13.4162,1.0098
13.4006,1.0028
13.4006,1.0028
13.2103,0.9624
13.0157,0.9624
12.8254,1.0028
12.8193,1.0048
12.8184,1.0022
12.7613,1.0098
12.7369,1.0034
12.6454,0.9693
12.6454,0.9693
12.5858,0.9629
12.3630,0.9629
12.3630,1.3027
12.3464,1.3647
12.2629,1.5094
12.2629,1.5094
12.2142,1.6592
12.1627,1.6379
12.0633,1.6379
11.9714,1.6759
11.9011,1.7463
11.8630,1.8381
11.8630,1.9376
11.8848,1.9902
11.8254,2.0028
11.6477,2.0820
11.6033,2.1142
11.5375,2.1377
11.5304,2.1379
11.1880,2.1379
11.1880,2.3607
11.1944,2.4202
11.1944,2.4203
11.2313,2.5193
11.2363,2.5890
11.2331,2.6010
11.2027,2.6944
11.1824,2.8879
0.6670,2.8879
0.6670,1.4150
11.1880,1.4150
11.1880,1.6379
11.8630,1.6379
11.8630,0.9629
11.6402,0.9629
11.5806,0.9693
11.5806,0.9693
11.4459,1.0195
11.4459,1.0195
11.3308,1.1057
11.3308,1.1057
11.2446,1.2208
11.2446,1.2208
11.1944,1.3555
11.1944,1.3555
11.1880,1.4150
0.6670,1.4150
0.6670,0.4309
0.6867,0.3638
0.7395,0.3181
0.7910,0.3069
14.2590,0.3069
Z" /> 
</g>
<g style="fill:#FFFFFF; fill-opacity:1.0000; stroke:none;">
<circle cx="3.0038" cy="2.4405" r="0.1500" /> 
</g>
<g style="fill:#FFFFFF; fill-opacity:1.0000; stroke:none;">
<circle cx="12.1130" cy="1.8879" r="0.2500" /> 
</g>
<g style="fill:#FFFFFF; fill-opacity:1.0000; stroke:none;">
<circle cx="13.1130" cy="1.8879" r="0.2500" /> 
</g>
<g style="fill:#FFFFFF; fill-opacity:1.0000; stroke:none;">
<circle cx="12.1130" cy="2.8879" r="0.2500" /> 
</g>
<g style="fill:#FFFFFF; fill-opacity:1.0000; stroke:none;">
<circle cx="13.1130" cy="2.8879" r="0.2500" /> 
</g>
<g style="fill:#FFFFFF; fill-opacity:1.0000; stroke:none;">
<circle cx="12.1130" cy="3.8879" r="0.2500" /> 
</g>
<g style="fill:#FFFFFF; fill-opacity:1.0000; stroke:none;">
<circle cx="13.1130" cy="3.8879" r="0.2500" /> 
</g>
<g style="fill:#FFFFFF; fill-opacity:1.0000; stroke:none;">
<circle cx="12.1130" cy="4.8879" r="0.2500" /> 
</g>
<g style="fill:#FFFFFF; fill-opacity:1.0000; stroke:none;">
<circle cx="13.1130" cy="4.8879" r="0.2500" /> 
</g> 
</svg>
