<?xml version="1.0" standalone="no"?>
 <!DOCTYPE svg PUBLIC "-//W3C//DTD SVG 1.1//EN" 
 "http://www.w3.org/Graphics/SVG/1.1/DTD/svg11.dtd"> 
<svg
  xmlns:svg="http://www.w3.org/2000/svg"
  xmlns="http://www.w3.org/2000/svg"
  xmlns:xlink="http://www.w3.org/1999/xlink"
  version="1.1"
  width="15.0368mm" height="7.0358mm" viewBox="0.0000 0.0000 15.0368 7.0358">
<title>SVG Image created as Simple Graphic-B_Silkscreen.svg date 2024/07/19 01:13:17 </title>
  <desc>Image generated by PCBNEW </desc>
<g style="fill:#000000; fill-opacity:1.0000;stroke:#000000; stroke-opacity:1.0000;
stroke-linecap:round; stroke-linejoin:round;"
 transform="translate(0 0) scale(1 1)">
<path style="fill:#000000; fill-opacity:1.0000; stroke:none;fill-rule:evenodd;"
d="M 4.4647,4.7929
4.4879,4.8219
4.5193,4.9004
4.5546,5.0769
4.5546,5.3001
4.5193,5.4766
4.4879,5.5551
4.4647,5.5840
4.4176,5.6135
4.3844,5.6135
4.3373,5.5840
4.3141,5.5551
4.2827,5.4766
4.2474,5.3001
4.2474,5.0769
4.2827,4.9004
4.3141,4.8219
4.3373,4.7929
4.3844,4.7635
4.4176,4.7635
Z" /> 
<path style="fill:#000000; fill-opacity:1.0000; stroke:none;fill-rule:evenodd;"
d="M 4.3058,3.7726
4.4747,3.7726
4.5119,3.7958
4.5355,3.8549
4.5355,3.9212
4.5119,3.9803
4.4747,4.0035
4.3273,4.0035
4.3046,3.9894
4.3046,3.7725
Z" /> 
<path style="fill:#000000; fill-opacity:1.0000; stroke:none;fill-rule:evenodd;"
d="M 5.2974,4.0035
5.1970,4.0035
5.1142,3.9691
5.0570,3.8975
5.0256,3.8190
4.9903,3.6426
4.9903,3.5145
5.0256,3.3381
5.0570,3.2596
5.1142,3.1880
5.1970,3.1536
5.2974,3.1536
Z" /> 
<path style="fill:#000000; fill-opacity:1.0000; stroke:none;fill-rule:evenodd;"
d="M 6.7070,4.0035
6.4987,4.0035
6.4516,3.9741
6.4284,3.9451
6.3998,3.8736
6.3998,3.7597
6.4284,3.6881
6.4476,3.6642
6.5303,3.6297
6.7070,3.6297
Z" /> 
<path style="fill:#000000; fill-opacity:1.0000; stroke:none;fill-rule:evenodd;"
d="M 6.7070,3.4797
6.5368,3.4797
6.4897,3.4503
6.4665,3.4213
6.4379,3.3498
6.4379,3.2835
6.4665,3.2120
6.4897,3.1830
6.5368,3.1536
6.7070,3.1536
Z" /> 
<path style="fill:#000000; fill-opacity:1.0000; stroke:none;fill-rule:evenodd;"
d="M 8.3070,3.5274
8.0987,3.5274
8.0516,3.4979
8.0284,3.4689
7.9998,3.3974
7.9998,3.2835
8.0284,3.2120
8.0516,3.1830
8.0987,3.1536
8.3070,3.1536
Z" /> 
<path style="fill:#000000; fill-opacity:1.0000; stroke:none;fill-rule:evenodd;"
d="M 3.1214,1.9002
3.1450,1.9592
3.1450,2.0392
2.9141,1.9815
2.9141,1.9592
2.9377,1.9002
2.9749,1.8769
3.0842,1.8769
Z" /> 
<path style="fill:#000000; fill-opacity:1.0000; stroke:none;fill-rule:evenodd;"
d="M 4.2867,2.1627
4.4557,2.1627
4.4928,2.1859
4.5165,2.2450
4.5165,2.3113
4.4928,2.3704
4.4557,2.3936
4.3082,2.3936
4.2855,2.3794
4.2855,2.1625
Z" /> 
<path style="fill:#000000; fill-opacity:1.0000; stroke:none;fill-rule:evenodd;"
d="M 6.7024,1.9002
6.7260,1.9592
6.7260,2.0392
6.4950,1.9815
6.4950,1.9592
6.5187,1.9002
6.5558,1.8769
6.6652,1.8769
Z" /> 
<path style="fill:#000000; fill-opacity:1.0000; stroke:none;fill-rule:evenodd;"
d="M 8.5534,2.1627
8.7223,2.1627
8.7595,2.1859
8.7831,2.2450
8.7831,2.3113
8.7595,2.3704
8.7223,2.3936
8.5749,2.3936
8.5522,2.3794
8.5522,2.1625
Z" /> 
<path style="fill:#000000; fill-opacity:1.0000; stroke:none;fill-rule:evenodd;"
d="M 9.4452,1.9002
9.4689,1.9592
9.4689,2.0392
9.2379,1.9815
9.2379,1.9592
9.2615,1.9002
9.2987,1.8769
9.4081,1.8769
Z" /> 
<path style="fill:#000000; fill-opacity:1.0000; stroke:none;fill-rule:evenodd;"
d="M 10.4919,6.1123
1.5101,6.1123
1.5101,5.3405
2.5370,5.3405
2.5370,5.3698
2.5482,5.3968
2.5689,5.4175
2.5959,5.4287
2.6105,5.4302
2.6498,5.4302
2.6498,5.6885
2.6512,5.7031
2.6624,5.7302
2.6831,5.7509
2.7102,5.7621
2.7394,5.7621
2.7665,5.7509
2.7872,5.7302
2.7984,5.7031
2.7998,5.6885
2.7998,5.4302
3.1058,5.4302
3.1092,5.4298
3.1106,5.4300
3.1125,5.4295
3.1204,5.4287
3.1294,5.4250
3.1389,5.4225
3.1428,5.4194
3.1474,5.4175
3.1543,5.4106
3.1621,5.4047
3.1646,5.4004
3.1681,5.3968
3.1719,5.3878
3.1768,5.3794
3.1774,5.3744
3.1793,5.3698
3.1793,5.3600
3.1806,5.3503
3.1793,5.3425
3.1793,5.3405
3.1788,5.3392
3.1782,5.3358
3.0564,4.8790
3.3355,4.8790
3.3355,4.9742
3.3359,4.9776
3.3357,4.9790
3.3365,4.9839
3.3370,4.9888
3.3375,4.9901
3.3381,4.9935
3.3761,5.1364
3.3813,5.1502
3.3818,5.1508
3.3820,5.1516
3.3901,5.1639
3.7497,5.6135
3.4105,5.6135
3.3959,5.6149
3.3689,5.6261
3.3482,5.6468
3.3370,5.6739
3.3370,5.7031
3.3482,5.7302
3.3689,5.7509
3.3959,5.7621
3.4105,5.7635
3.9058,5.7635
3.9105,5.7630
3.9122,5.7632
3.9140,5.7627
3.9204,5.7621
3.9301,5.7580
3.9403,5.7551
3.9436,5.7525
3.9474,5.7509
3.9549,5.7434
3.9631,5.7368
3.9652,5.7331
3.9681,5.7302
3.9722,5.7204
3.9773,5.7112
3.9777,5.7070
3.9793,5.7031
3.9793,5.6926
3.9805,5.6821
3.9793,5.6781
3.9793,5.6739
3.9753,5.6641
3.9723,5.6540
3.9689,5.6486
3.9681,5.6468
3.9669,5.6456
3.9643,5.6416
3.5170,5.0825
3.5135,5.0694
4.0974,5.0694
4.0974,5.0694
4.0974,5.0694
4.0974,5.3075
4.0974,5.3076
4.0974,5.3076
4.0982,5.3151
4.0989,5.3222
4.0989,5.3222
4.0989,5.3222
4.1370,5.5127
4.1390,5.5193
4.1409,5.5259
4.1790,5.6211
4.1815,5.6260
4.1820,5.6278
4.1841,5.6309
4.1858,5.6342
4.1870,5.6355
4.1901,5.6401
4.2281,5.6877
4.2342,5.6939
4.2353,5.6955
4.2370,5.6968
4.2384,5.6983
4.2401,5.6992
4.2470,5.7045
4.3232,5.7521
4.3363,5.7586
4.3425,5.7597
4.3483,5.7621
4.3629,5.7635
4.4391,5.7635
4.4537,5.7621
4.4595,5.7597
4.4657,5.7586
4.4788,5.7521
4.5550,5.7045
4.5619,5.6992
4.5636,5.6983
4.5650,5.6968
4.5667,5.6955
4.5678,5.6939
4.5739,5.6877
4.6119,5.6401
4.6150,5.6355
4.6162,5.6342
4.6179,5.6309
4.6200,5.6278
4.6205,5.6260
4.6230,5.6211
4.6611,5.5259
4.6630,5.5192
4.6650,5.5127
4.7031,5.3222
4.7031,5.3222
4.7031,5.3222
4.7039,5.3146
4.7046,5.3076
4.7046,5.3076
4.7046,5.3075
4.7046,5.0694
4.7046,5.0694
4.7046,5.0694
4.7039,5.0623
4.7031,5.0548
4.7031,5.0548
4.7031,5.0547
4.6680,4.8790
4.8593,4.8790
4.8593,4.9742
4.8597,4.9776
4.8595,4.9790
4.8603,4.9839
4.8608,4.9888
4.8613,4.9901
4.8619,4.9935
4.9000,5.1364
4.9051,5.1502
4.9056,5.1508
4.9058,5.1516
4.9139,5.1639
5.2735,5.6135
4.9343,5.6135
4.9197,5.6149
4.8927,5.6261
4.8720,5.6468
4.8608,5.6739
4.8608,5.7031
4.8720,5.7302
4.8927,5.7509
4.9197,5.7621
4.9343,5.7635
5.4296,5.7635
5.4343,5.7630
5.4360,5.7632
5.4379,5.7627
5.4442,5.7621
5.4540,5.7580
5.4641,5.7551
5.4674,5.7525
5.4712,5.7509
5.4787,5.7434
5.4869,5.7368
5.4890,5.7331
5.4919,5.7302
5.4960,5.7204
5.5011,5.7112
5.5015,5.7070
5.5031,5.7031
5.5031,5.6926
5.5043,5.6821
5.5031,5.6781
5.5031,5.6739
5.4991,5.6641
5.4962,5.6540
5.4927,5.6486
5.4919,5.6468
5.4907,5.6456
5.4881,5.6416
5.0408,5.0825
5.0093,4.9644
5.0093,4.8934
5.0379,4.8219
5.0611,4.7929
5.1082,4.7635
5.2557,4.7635
5.3028,4.7929
5.3329,4.8306
5.3432,4.8411
5.3688,4.8552
5.3979,4.8585
5.4260,4.8503
5.4489,4.8320
5.4630,4.8064
5.4662,4.7773
5.4581,4.7492
5.4500,4.7369
5.4119,4.6893
5.4059,4.6830
5.4048,4.6815
5.4031,4.6802
5.4017,4.6787
5.4000,4.6778
5.3931,4.6725
5.3306,4.6335
5.5454,4.6335
5.5483,4.6626
5.5539,4.6762
6.2396,5.9619
6.2477,5.9741
6.2703,5.9927
6.2983,6.0012
6.3275,5.9984
6.3533,5.9846
6.3719,5.9620
6.3804,5.9340
6.3776,5.9049
6.3719,5.8913
6.2560,5.6739
6.4608,5.6739
6.4608,5.7031
6.4720,5.7302
6.4927,5.7509
6.5197,5.7621
6.5343,5.7635
6.9915,5.7635
7.0061,5.7621
7.0331,5.7509
7.0538,5.7302
7.0650,5.7031
7.0650,5.6739
7.0538,5.6468
7.0331,5.6261
7.0061,5.6149
6.9915,5.6135
6.8379,5.6135
6.8379,4.9499
6.8567,4.9734
6.8628,4.9797
6.8639,4.9812
6.8655,4.9825
6.8670,4.9840
6.8687,4.9849
6.8755,4.9902
6.9517,5.0378
6.9649,5.0443
6.9938,5.0492
7.0223,5.0426
7.0461,5.0256
7.0616,5.0008
7.0664,4.9719
7.0599,4.9434
7.0429,4.9196
7.0312,4.9106
6.9806,4.8790
7.2212,4.8790
7.2212,4.9742
7.2216,4.9776
7.2214,4.9790
7.2222,4.9839
7.2227,4.9888
7.2232,4.9901
7.2238,4.9935
7.2619,5.1364
7.2670,5.1502
7.2675,5.1508
7.2678,5.1516
7.2758,5.1639
7.6354,5.6135
7.2962,5.6135
7.2816,5.6149
7.2546,5.6261
7.2339,5.6468
7.2227,5.6739
7.2227,5.7031
7.2339,5.7302
7.2546,5.7509
7.2816,5.7621
7.2962,5.7635
7.7915,5.7635
7.7962,5.7630
7.7979,5.7632
7.7998,5.7627
7.8061,5.7621
7.8159,5.7580
7.8260,5.7551
7.8293,5.7525
7.8331,5.7509
7.8406,5.7434
7.8489,5.7368
7.8509,5.7331
7.8538,5.7302
7.8579,5.7204
7.8630,5.7112
7.8634,5.7070
7.8650,5.7031
7.8650,5.6926
7.8662,5.6821
7.8650,5.6781
7.8650,5.6739
7.8610,5.6641
7.8581,5.6540
7.8546,5.6486
7.8538,5.6468
7.8526,5.6456
7.8500,5.6416
7.4027,5.0825
7.3712,4.9644
7.3712,4.8934
7.3998,4.8219
7.4230,4.7929
7.4701,4.7635
7.6176,4.7635
7.6647,4.7929
7.6948,4.8306
7.7051,4.8411
7.7307,4.8552
7.7598,4.8585
7.7879,4.8503
7.8108,4.8320
7.8249,4.8064
7.8281,4.7773
7.8200,4.7492
7.8119,4.7369
7.7738,4.6893
7.7678,4.6830
7.7667,4.6815
7.7650,4.6802
7.7636,4.6787
7.7619,4.6778
7.7550,4.6725
7.6925,4.6335
7.9073,4.6335
7.9102,4.6626
7.9158,4.6762
8.6015,5.9619
8.6096,5.9741
8.6323,5.9927
8.6602,6.0012
8.6894,5.9984
8.7152,5.9846
8.7338,5.9620
8.7423,5.9340
8.7395,5.9049
8.7338,5.8913
8.0977,4.6985
8.7838,4.6985
8.7846,4.7018
8.7846,4.7031
8.7853,4.7049
8.7872,4.7128
9.1301,5.7128
9.1362,5.7262
9.1555,5.7481
9.1818,5.7610
9.2110,5.7628
9.2387,5.7533
9.2606,5.7340
9.2735,5.7077
9.2753,5.6785
9.2719,5.6642
8.9631,4.7635
9.3915,4.7635
9.4061,4.7621
9.4331,4.7509
9.4538,4.7302
9.4650,4.7031
9.4650,4.6739
9.4538,4.6468
9.4331,4.6261
9.4061,4.6149
9.3915,4.6135
8.8581,4.6135
8.8501,4.6143
8.8481,4.6142
8.8468,4.6146
8.8435,4.6149
8.8321,4.6197
8.8204,4.6237
8.8187,4.6252
8.8165,4.6261
8.8078,4.6349
8.7985,4.6430
8.7975,4.6451
8.7958,4.6468
8.7911,4.6582
8.7856,4.6693
8.7855,4.6717
8.7846,4.6739
8.7846,4.6862
8.7838,4.6985
8.0977,4.6985
8.0481,4.6056
8.0400,4.5933
8.0174,4.5748
7.9894,4.5662
7.9602,4.5691
7.9344,4.5829
7.9158,4.6055
7.9073,4.6335
7.6925,4.6335
7.6788,4.6249
7.6657,4.6184
7.6595,4.6173
7.6537,4.6149
7.6391,4.6135
7.4486,4.6135
7.4340,4.6149
7.4282,4.6173
7.4220,4.6184
7.4089,4.6249
7.3327,4.6725
7.3258,4.6778
7.3241,4.6787
7.3227,4.6802
7.3210,4.6815
7.3199,4.6830
7.3139,4.6893
7.2758,4.7369
7.2728,4.7415
7.2715,4.7428
7.2698,4.7461
7.2678,4.7492
7.2672,4.7510
7.2647,4.7559
7.2266,4.8511
7.2230,4.8636
7.2227,4.8643
7.2226,4.8648
7.2225,4.8652
7.2225,4.8660
7.2212,4.8790
6.9806,4.8790
6.9659,4.8698
6.9020,4.7899
6.8291,4.6532
6.8260,4.6485
6.8253,4.6468
6.8240,4.6455
6.8209,4.6410
6.8124,4.6339
6.8046,4.6261
6.8012,4.6247
6.7983,4.6224
6.7877,4.6192
6.7775,4.6149
6.7738,4.6149
6.7703,4.6139
6.7593,4.6149
6.7483,4.6149
6.7449,4.6163
6.7412,4.6167
6.7314,4.6219
6.7212,4.6261
6.7186,4.6287
6.7154,4.6305
6.7084,4.6390
6.7005,4.6468
6.6991,4.6502
6.6968,4.6531
6.6936,4.6637
6.6893,4.6739
6.6888,4.6793
6.6883,4.6811
6.6885,4.6829
6.6879,4.6885
6.6879,5.6135
6.5343,5.6135
6.5197,5.6149
6.4927,5.6261
6.4720,5.6468
6.4608,5.6739
6.2560,5.6739
5.6862,4.6056
5.6781,4.5933
5.6555,4.5748
5.6275,4.5662
5.5983,4.5691
5.5725,4.5829
5.5539,4.6055
5.5454,4.6335
5.3306,4.6335
5.3169,4.6249
5.3038,4.6184
5.2976,4.6173
5.2918,4.6149
5.2772,4.6135
5.0867,4.6135
5.0721,4.6149
5.0663,4.6173
5.0601,4.6184
5.0470,4.6249
4.9708,4.6725
4.9639,4.6778
4.9622,4.6787
4.9608,4.6802
4.9591,4.6815
4.9580,4.6830
4.9520,4.6893
4.9139,4.7369
4.9109,4.7415
4.9096,4.7428
4.9079,4.7461
4.9058,4.7492
4.9053,4.7510
4.9028,4.7559
4.8647,4.8511
4.8611,4.8636
4.8608,4.8643
4.8607,4.8648
4.8606,4.8652
4.8606,4.8660
4.8593,4.8790
4.6680,4.8790
4.6650,4.8643
4.6630,4.8577
4.6611,4.8511
4.6230,4.7559
4.6205,4.7510
4.6200,4.7492
4.6179,4.7461
4.6162,4.7428
4.6150,4.7415
4.6119,4.7369
4.5739,4.6893
4.5678,4.6830
4.5667,4.6815
4.5650,4.6802
4.5636,4.6787
4.5619,4.6778
4.5550,4.6725
4.4788,4.6249
4.4657,4.6184
4.4595,4.6173
4.4537,4.6149
4.4391,4.6135
4.3629,4.6135
4.3483,4.6149
4.3425,4.6173
4.3363,4.6184
4.3232,4.6249
4.2470,4.6725
4.2401,4.6778
4.2384,4.6787
4.2370,4.6802
4.2353,4.6815
4.2342,4.6830
4.2281,4.6893
4.1901,4.7369
4.1870,4.7415
4.1858,4.7428
4.1841,4.7461
4.1820,4.7492
4.1815,4.7510
4.1790,4.7559
4.1409,4.8511
4.1390,4.8577
4.1370,4.8643
4.0989,5.0547
4.0989,5.0548
4.0989,5.0548
4.0982,5.0619
4.0974,5.0694
3.5135,5.0694
3.4855,4.9644
3.4855,4.8934
3.5141,4.8219
3.5373,4.7929
3.5844,4.7635
3.7319,4.7635
3.7790,4.7929
3.8091,4.8306
3.8194,4.8411
3.8450,4.8552
3.8741,4.8585
3.9022,4.8503
3.9250,4.8320
3.9392,4.8064
3.9424,4.7773
3.9342,4.7492
3.9262,4.7369
3.8881,4.6893
3.8821,4.6830
3.8810,4.6815
3.8793,4.6802
3.8779,4.6787
3.8762,4.6778
3.8693,4.6725
3.7931,4.6249
3.7800,4.6184
3.7738,4.6173
3.7680,4.6149
3.7534,4.6135
3.5629,4.6135
3.5483,4.6149
3.5425,4.6173
3.5363,4.6184
3.5232,4.6249
3.4470,4.6725
3.4401,4.6778
3.4384,4.6787
3.4370,4.6802
3.4353,4.6815
3.4342,4.6830
3.4281,4.6893
3.3901,4.7369
3.3870,4.7415
3.3858,4.7428
3.3841,4.7461
3.3820,4.7492
3.3815,4.7510
3.3790,4.7559
3.3409,4.8511
3.3373,4.8636
3.3370,4.8643
3.3369,4.8648
3.3368,4.8652
3.3368,4.8660
3.3355,4.8790
3.0564,4.8790
2.9878,4.6216
2.9826,4.6078
2.9648,4.5845
2.9395,4.5699
2.9105,4.5660
2.8822,4.5736
2.8590,4.5914
2.8443,4.6167
2.8404,4.6457
2.8428,4.6602
3.0081,5.2802
2.7998,5.2802
2.7998,5.0218
2.7984,5.0072
2.7872,4.9802
2.7665,4.9595
2.7394,4.9483
2.7102,4.9483
2.6831,4.9595
2.6624,4.9802
2.6512,5.0072
2.6498,5.0218
2.6498,5.2802
2.6105,5.2802
2.5959,5.2816
2.5689,5.2928
2.5482,5.3135
2.5370,5.3405
1.5101,5.3405
1.5101,3.4180
3.4691,3.4180
3.4717,3.4325
3.6622,4.0992
3.6627,4.1002
3.6629,4.1014
3.7391,4.3395
3.7436,4.3498
3.7439,4.3512
3.7445,4.3520
3.7449,4.3530
3.7458,4.3541
3.7520,4.3635
3.7901,4.4111
3.7961,4.4173
3.7972,4.4189
3.7989,4.4202
3.8003,4.4216
3.8020,4.4226
3.8089,4.4279
3.8851,4.4755
3.8982,4.4820
3.9271,4.4868
3.9556,4.4803
3.9794,4.4633
3.9949,4.4385
3.9998,4.4096
3.9932,4.3811
3.9762,4.3573
3.9646,4.3483
3.8992,4.3074
3.8777,4.2806
3.8127,4.0773
3.9620,3.5547
4.1546,3.5547
4.1546,4.0785
4.1560,4.0932
4.1672,4.1202
4.1879,4.1409
4.2149,4.1521
4.2442,4.1521
4.2670,4.1427
4.2792,4.1487
4.2854,4.1497
4.2911,4.1521
4.3058,4.1536
4.4962,4.1536
4.5109,4.1521
4.5166,4.1497
4.5228,4.1487
4.5360,4.1421
4.6122,4.0945
4.6139,4.0932
4.6149,4.0928
4.6161,4.0915
4.6238,4.0856
4.6290,4.0783
4.6353,4.0718
4.6398,4.0631
4.6408,4.0617
4.6410,4.0608
4.6421,4.0588
4.6802,3.9635
4.6838,3.9510
4.6841,3.9503
4.6841,3.9499
4.6843,3.9494
4.6842,3.9487
4.6855,3.9357
4.6855,3.8405
4.6842,3.8275
4.6843,3.8267
4.6841,3.8263
4.6841,3.8258
4.6838,3.8251
4.6802,3.8126
4.6421,3.7174
4.6410,3.7154
4.6408,3.7144
4.6398,3.7130
4.6353,3.7043
4.6290,3.6979
4.6238,3.6906
4.6161,3.6846
4.6149,3.6834
4.6139,3.6830
4.6122,3.6816
4.5360,3.6340
4.5228,3.6275
4.5166,3.6264
4.5109,3.6240
4.4962,3.6226
4.3273,3.6226
4.3046,3.6084
4.3046,3.5692
4.3282,3.5101
4.3654,3.4869
4.4747,3.4869
4.5327,3.5231
4.5458,3.5296
4.5747,3.5345
4.6032,3.5279
4.6271,3.5109
4.6295,3.5070
4.8403,3.5070
4.8403,3.5071
4.8403,3.5071
4.8403,3.6500
4.8403,3.6500
4.8403,3.6501
4.8410,3.6571
4.8417,3.6646
4.8417,3.6646
4.8417,3.6647
4.8798,3.8552
4.8818,3.8617
4.8837,3.8683
4.9218,3.9635
4.9244,3.9684
4.9249,3.9702
4.9269,3.9733
4.9286,3.9766
4.9299,3.9779
4.9329,3.9825
5.0091,4.0778
5.0194,4.0883
5.0230,4.0903
5.0259,4.0932
5.0388,4.1002
5.1531,4.1478
5.1672,4.1521
5.1672,4.1521
5.1673,4.1521
5.1820,4.1536
5.3724,4.1536
5.3871,4.1521
5.4141,4.1409
5.4348,4.1202
5.4460,4.0932
5.4474,4.0785
5.4474,3.7452
6.2498,3.7452
6.2498,3.8881
6.2511,3.9010
6.2511,3.9018
6.2512,3.9022
6.2512,3.9027
6.2515,3.9034
6.2552,3.9159
6.2933,4.0112
6.2958,4.0161
6.2963,4.0178
6.2983,4.0209
6.3000,4.0242
6.3013,4.0255
6.3043,4.0302
6.3424,4.0778
6.3485,4.0840
6.3496,4.0856
6.3512,4.0868
6.3527,4.0883
6.3544,4.0892
6.3613,4.0945
6.4374,4.1421
6.4506,4.1487
6.4568,4.1497
6.4626,4.1521
6.4772,4.1536
6.7820,4.1536
6.7966,4.1521
6.8236,4.1409
6.8443,4.1202
6.8555,4.0932
6.8570,4.0785
6.8570,3.1674
7.0501,3.1674
7.0533,3.1965
7.0674,3.2221
7.0903,3.2404
7.1184,3.2485
7.1475,3.2453
7.1731,3.2312
7.1834,3.2206
7.2095,3.1880
7.2922,3.1536
7.3384,3.1536
7.4211,3.1880
7.4783,3.2596
7.5098,3.3381
7.5450,3.5145
7.5450,3.6425
7.5098,3.8190
7.4783,3.8975
7.4211,3.9691
7.3384,4.0035
7.2922,4.0035
7.2095,3.9691
7.1834,3.9365
7.1731,3.9259
7.1475,3.9118
7.1184,3.9086
7.0903,3.9167
7.0674,3.9350
7.0533,3.9606
7.0501,3.9897
7.0582,4.0178
7.0662,4.0302
7.1043,4.0778
7.1146,4.0883
7.1182,4.0903
7.1211,4.0932
7.1341,4.1002
7.2483,4.1478
7.2624,4.1521
7.2625,4.1521
7.2626,4.1521
7.2772,4.1536
7.3534,4.1536
7.3680,4.1521
7.3681,4.1521
7.3682,4.1521
7.3822,4.1478
7.4965,4.1002
7.5095,4.0932
7.5124,4.0903
7.5160,4.0883
7.5262,4.0778
7.6024,3.9825
7.6054,3.9779
7.6067,3.9766
7.6084,3.9733
7.6104,3.9702
7.6110,3.9684
7.6135,3.9635
7.6516,3.8683
7.6535,3.8617
7.6555,3.8552
7.6936,3.6647
7.6936,3.6646
7.6936,3.6646
7.6943,3.6571
7.6950,3.6501
7.6950,3.6500
7.6950,3.6500
7.6950,3.5071
7.6950,3.5071
7.6950,3.5070
7.6943,3.5000
7.6936,3.4925
7.6936,3.4925
7.6936,3.4924
7.6555,3.3019
7.6535,3.2954
7.6516,3.2888
7.6437,3.2690
7.8498,3.2690
7.8498,3.4119
7.8511,3.4249
7.8511,3.4256
7.8512,3.4261
7.8512,3.4265
7.8515,3.4272
7.8552,3.4397
7.8933,3.5350
7.8958,3.5399
7.8963,3.5416
7.8983,3.5447
7.9000,3.5480
7.9013,3.5493
7.9043,3.5540
7.9424,3.6016
7.9485,3.6078
7.9496,3.6094
7.9512,3.6106
7.9527,3.6121
7.9544,3.6130
7.9612,3.6183
8.0374,3.6660
8.0506,3.6725
8.0568,3.6735
8.0626,3.6759
8.0772,3.6774
8.3070,3.6774
8.3070,4.0785
8.3084,4.0932
8.3196,4.1202
8.3403,4.1409
8.3673,4.1521
8.3966,4.1521
8.4236,4.1409
8.4443,4.1202
8.4555,4.0932
8.4570,4.0785
8.4570,3.0785
8.4555,3.0639
8.4443,3.0369
8.4236,3.0162
8.3966,3.0050
8.3820,3.0035
8.0772,3.0035
8.0626,3.0050
8.0568,3.0074
8.0506,3.0084
8.0374,3.0149
7.9612,3.0626
7.9544,3.0679
7.9527,3.0688
7.9512,3.0703
7.9496,3.0715
7.9485,3.0731
7.9424,3.0793
7.9043,3.1269
7.9013,3.1316
7.9000,3.1329
7.8983,3.1362
7.8963,3.1393
7.8958,3.1410
7.8933,3.1459
7.8552,3.2412
7.8515,3.2537
7.8512,3.2544
7.8512,3.2548
7.8511,3.2553
7.8511,3.2561
7.8498,3.2690
7.6437,3.2690
7.6135,3.1936
7.6110,3.1887
7.6104,3.1869
7.6084,3.1838
7.6067,3.1805
7.6054,3.1792
7.6024,3.1746
7.5262,3.0793
7.5160,3.0688
7.5124,3.0668
7.5095,3.0639
7.4965,3.0569
7.3822,3.0093
7.3682,3.0050
7.3681,3.0050
7.3680,3.0050
7.3534,3.0035
7.2772,3.0035
7.2626,3.0050
7.2625,3.0050
7.2624,3.0050
7.2483,3.0093
7.1341,3.0569
7.1211,3.0639
7.1182,3.0668
7.1146,3.0688
7.1043,3.0793
7.0662,3.1269
7.0582,3.1393
7.0501,3.1674
6.8570,3.1674
6.8570,3.0785
6.8555,3.0639
6.8443,3.0369
6.8236,3.0162
6.7966,3.0050
6.7820,3.0035
6.5153,3.0035
6.5007,3.0050
6.4949,3.0074
6.4887,3.0084
6.4755,3.0149
6.3993,3.0626
6.3925,3.0679
6.3908,3.0688
6.3893,3.0703
6.3877,3.0715
6.3866,3.0731
6.3805,3.0793
6.3424,3.1269
6.3394,3.1316
6.3381,3.1329
6.3364,3.1362
6.3344,3.1393
6.3339,3.1410
6.3314,3.1459
6.2933,3.2412
6.2896,3.2537
6.2893,3.2544
6.2893,3.2548
6.2892,3.2553
6.2892,3.2561
6.2879,3.2690
6.2879,3.3643
6.2892,3.3772
6.2892,3.3780
6.2893,3.3784
6.2893,3.3789
6.2896,3.3796
6.2933,3.3921
6.3314,3.4874
6.3339,3.4922
6.3344,3.4940
6.3364,3.4971
6.3381,3.5004
6.3394,3.5017
6.3424,3.5064
6.3663,3.5362
6.3592,3.5401
6.3563,3.5430
6.3527,3.5450
6.3424,3.5555
6.3043,3.6031
6.3013,3.6077
6.3000,3.6091
6.2983,3.6123
6.2963,3.6155
6.2958,3.6172
6.2933,3.6221
6.2552,3.7174
6.2515,3.7299
6.2512,3.7306
6.2512,3.7310
6.2511,3.7315
6.2511,3.7322
6.2498,3.7452
5.4474,3.7452
5.4474,3.0785
5.4460,3.0639
5.4348,3.0369
5.4141,3.0162
5.3871,3.0050
5.3724,3.0035
5.1820,3.0035
5.1673,3.0050
5.1672,3.0050
5.1672,3.0050
5.1531,3.0093
5.0388,3.0569
5.0259,3.0639
5.0230,3.0668
5.0194,3.0688
5.0091,3.0793
4.9329,3.1746
4.9299,3.1792
4.9286,3.1805
4.9269,3.1838
4.9249,3.1869
4.9244,3.1887
4.9218,3.1936
4.8837,3.2888
4.8818,3.2954
4.8798,3.3019
4.8417,3.4924
4.8417,3.4925
4.8417,3.4925
4.8410,3.5000
4.8403,3.5070
4.6295,3.5070
4.6426,3.4861
4.6474,3.4572
4.6408,3.4287
4.6238,3.4049
4.6122,3.3959
4.5360,3.3483
4.5228,3.3417
4.5166,3.3407
4.5109,3.3383
4.4962,3.3369
4.3439,3.3369
4.3292,3.3383
4.3234,3.3407
4.3173,3.3417
4.3041,3.3483
4.2279,3.3959
4.2261,3.3973
4.2252,3.3977
4.2240,3.3989
4.2163,3.4049
4.2111,3.4122
4.2048,3.4186
4.2003,3.4273
4.1993,3.4287
4.1991,3.4297
4.1980,3.4316
4.1599,3.5269
4.1563,3.5394
4.1560,3.5401
4.1560,3.5406
4.1558,3.5410
4.1558,3.5418
4.1546,3.5547
3.9620,3.5547
3.9969,3.4325
3.9996,3.4180
3.9962,3.3889
3.9820,3.3634
3.9591,3.3452
3.9309,3.3371
3.9019,3.3405
3.8763,3.3547
3.8581,3.3776
3.8527,3.3913
3.7343,3.8055
3.6160,3.3913
3.6106,3.3776
3.5924,3.3547
3.5668,3.3405
3.5377,3.3371
3.5096,3.3452
3.4867,3.3634
3.4724,3.3889
3.4691,3.4180
1.5101,3.4180
1.5101,2.2781
1.6212,2.2781
1.6212,2.3257
1.6225,2.3387
1.6225,2.3395
1.6226,2.3399
1.6227,2.3404
1.6230,2.3411
1.6266,2.3536
1.6647,2.4488
1.6657,2.4508
1.6659,2.4518
1.6670,2.4532
1.6715,2.4619
1.6777,2.4683
1.6829,2.4756
1.6907,2.4816
1.6919,2.4828
1.6928,2.4832
1.6946,2.4846
1.7708,2.5322
1.7839,2.5387
1.7901,2.5398
1.7959,2.5422
1.8105,2.5436
1.9629,2.5436
1.9775,2.5422
1.9833,2.5398
1.9895,2.5387
2.0027,2.5322
2.0788,2.4846
2.0905,2.4756
2.1075,2.4518
2.1141,2.4233
2.1092,2.3944
2.0937,2.3696
2.0699,2.3526
2.0414,2.3460
2.0125,2.3509
1.9993,2.3574
1.9414,2.3936
1.8320,2.3936
1.7949,2.3704
1.7712,2.3113
1.7712,2.2926
1.7949,2.2335
1.8320,2.2103
1.9248,2.2103
1.9394,2.2088
1.9452,2.2064
1.9514,2.2054
1.9646,2.1989
2.0407,2.1513
2.0425,2.1499
2.0434,2.1495
2.0446,2.1482
2.0524,2.1423
2.0576,2.1350
2.0639,2.1286
2.0684,2.1199
2.0694,2.1184
2.0696,2.1175
2.0706,2.1155
2.1087,2.0203
2.1124,2.0078
2.1127,2.0070
2.1127,2.0066
2.1128,2.0061
2.1128,2.0054
2.1141,1.9924
2.1141,1.9448
2.1128,1.9318
2.1128,1.9311
2.1127,1.9306
2.1127,1.9302
2.1124,1.9295
2.1087,1.9169
2.0706,1.8217
2.0696,1.8197
2.0694,1.8188
2.0684,1.8173
2.0639,1.8087
2.0576,1.8022
2.0524,1.7949
2.0446,1.7890
2.0434,1.7877
2.0425,1.7873
2.0425,1.7873
2.1941,1.7873
2.1941,1.8166
2.2053,1.8436
2.2260,1.8643
2.2530,1.8755
2.2677,1.8769
2.3223,1.8769
2.3695,1.9064
2.3926,1.9353
2.4212,2.0069
2.4212,2.4686
2.4227,2.4832
2.4339,2.5103
2.4546,2.5310
2.4816,2.5422
2.5109,2.5422
2.5379,2.5310
2.5586,2.5103
2.5698,2.4832
2.5712,2.4686
2.5712,1.9448
2.7641,1.9448
2.7641,2.0400
2.7655,2.0547
2.7677,2.0598
2.7685,2.0653
2.7732,2.0732
2.7767,2.0817
2.7807,2.0856
2.7835,2.0904
2.7909,2.0959
2.7974,2.1024
2.8026,2.1045
2.8071,2.1078
2.8209,2.1128
3.1450,2.1938
3.1450,2.3113
3.1214,2.3704
3.0842,2.3936
2.9749,2.3936
2.9169,2.3574
2.9038,2.3509
2.8749,2.3460
2.8464,2.3526
2.8226,2.3696
2.8071,2.3944
2.8022,2.4233
2.8088,2.4518
2.8258,2.4756
2.8374,2.4846
2.9136,2.5322
2.9268,2.5387
2.9330,2.5398
2.9387,2.5422
2.9534,2.5436
3.1058,2.5436
3.1204,2.5422
3.1262,2.5398
3.1323,2.5387
3.1455,2.5322
3.2217,2.4846
3.2235,2.4832
3.2244,2.4828
3.2256,2.4816
3.2333,2.4756
3.2357,2.4723
3.4499,2.4723
3.4570,2.5006
3.4744,2.5242
3.4995,2.5392
3.5285,2.5435
3.5568,2.5364
3.5804,2.5190
3.5891,2.5072
3.7546,2.2314
3.7546,2.4686
3.7560,2.4832
3.7672,2.5103
3.7879,2.5310
3.8149,2.5422
3.8442,2.5422
3.8712,2.5310
3.8919,2.5103
3.9031,2.4832
3.9046,2.4686
3.9046,1.9448
4.1355,1.9448
4.1355,2.4686
4.1370,2.4832
4.1482,2.5103
4.1689,2.5310
4.1959,2.5422
4.2252,2.5422
4.2480,2.5327
4.2601,2.5387
4.2663,2.5398
4.2721,2.5422
4.2867,2.5436
4.4772,2.5436
4.4918,2.5422
4.4976,2.5398
4.5038,2.5387
4.5169,2.5322
4.5931,2.4846
4.5949,2.4832
4.5958,2.4828
4.5970,2.4816
4.6048,2.4756
4.6100,2.4683
4.6162,2.4619
4.6208,2.4532
4.6218,2.4518
4.6220,2.4508
4.6230,2.4488
4.6611,2.3536
4.6647,2.3411
4.6650,2.3404
4.6651,2.3399
4.6652,2.3395
4.6652,2.3387
4.6665,2.3257
4.6665,2.2305
4.6652,2.2175
4.6652,2.2168
4.6651,2.2163
4.6650,2.2159
4.6647,2.2152
4.6611,2.2027
4.6230,2.1074
4.6220,2.1054
4.6218,2.1045
4.6208,2.1031
4.6162,2.0944
4.6100,2.0879
4.6048,2.0806
4.5970,2.0747
4.5958,2.0734
4.5949,2.0730
4.5931,2.0717
4.5169,2.0241
4.5038,2.0175
4.4976,2.0165
4.4918,2.0141
4.4772,2.0127
4.3082,2.0127
4.2855,1.9985
4.2855,1.9592
4.3091,1.9002
4.3463,1.8769
4.4557,1.8769
4.5136,1.9132
4.5268,1.9197
4.5557,1.9245
4.5842,1.9179
4.6080,1.9010
4.6235,1.8761
4.6283,1.8473
4.6218,1.8188
4.6048,1.7949
4.5931,1.7860
4.5169,1.7383
4.5038,1.7318
4.4976,1.7308
4.4918,1.7284
4.4772,1.7269
4.3248,1.7269
4.3102,1.7284
4.3044,1.7308
4.2982,1.7318
4.2851,1.7383
4.2089,1.7860
4.2071,1.7873
4.2062,1.7877
4.2050,1.7890
4.1972,1.7949
4.1920,1.8022
4.1858,1.8087
4.1812,1.8173
4.1802,1.8188
4.1800,1.8197
4.1790,1.8217
4.1409,1.9169
4.1373,1.9295
4.1370,1.9302
4.1369,1.9306
4.1368,1.9311
4.1368,1.9318
4.1355,1.9448
3.9046,1.9448
3.9046,1.4686
4.8593,1.4686
4.8593,2.4686
4.8608,2.4832
4.8720,2.5103
4.8927,2.5310
4.9197,2.5422
4.9490,2.5422
4.9760,2.5310
4.9967,2.5103
5.0079,2.4832
5.0093,2.4686
5.0093,1.8839
5.1307,2.2091
5.1372,2.2223
5.1390,2.2243
5.1402,2.2267
5.1490,2.2349
5.1572,2.2437
5.1596,2.2449
5.1616,2.2467
5.1728,2.2509
5.1838,2.2559
5.1865,2.2560
5.1890,2.2569
5.2010,2.2565
5.2130,2.2569
5.2155,2.2560
5.2182,2.2559
5.2292,2.2509
5.2404,2.2467
5.2424,2.2449
5.2448,2.2437
5.2530,2.2349
5.2618,2.2267
5.2630,2.2243
5.2648,2.2223
5.2713,2.2091
5.3927,1.8839
5.3927,2.4686
5.3941,2.4832
5.4053,2.5103
5.4260,2.5310
5.4530,2.5422
5.4823,2.5422
5.5093,2.5310
5.5300,2.5103
5.5412,2.4832
5.5427,2.4686
5.5427,1.9448
6.3450,1.9448
6.3450,2.0400
6.3465,2.0547
6.3486,2.0598
6.3494,2.0653
6.3542,2.0732
6.3577,2.0817
6.3616,2.0856
6.3645,2.0904
6.3719,2.0959
6.3784,2.1024
6.3835,2.1045
6.3880,2.1078
6.4019,2.1128
6.7260,2.1938
6.7260,2.3113
6.7024,2.3704
6.6652,2.3936
6.5558,2.3936
6.4979,2.3574
6.4847,2.3509
6.4559,2.3460
6.4273,2.3526
6.4035,2.3696
6.3880,2.3944
6.3832,2.4233
6.3898,2.4518
6.4067,2.4756
6.4184,2.4846
6.4946,2.5322
6.5078,2.5387
6.5139,2.5398
6.5197,2.5422
6.5343,2.5436
6.6867,2.5436
6.7013,2.5422
6.7071,2.5398
6.7133,2.5387
6.7265,2.5322
6.8027,2.4846
6.8044,2.4832
6.8053,2.4828
6.8065,2.4816
6.8143,2.4756
6.8195,2.4683
6.8214,2.4663
6.9927,2.4663
6.9975,2.4952
7.0130,2.5200
7.0369,2.5370
7.0654,2.5436
7.0942,2.5387
7.1074,2.5322
7.1836,2.4846
7.1854,2.4832
7.1863,2.4828
7.1875,2.4816
7.1952,2.4756
7.2005,2.4683
7.2067,2.4619
7.2112,2.4532
7.2122,2.4518
7.2125,2.4508
7.2135,2.4488
7.2516,2.3536
7.2552,2.3411
7.2555,2.3404
7.2556,2.3399
7.2557,2.3395
7.2557,2.3387
7.2570,2.3257
7.2570,1.7873
7.3751,1.7873
7.3751,1.8166
7.3863,1.8436
7.4069,1.8643
7.4340,1.8755
7.4486,1.8769
7.5641,1.8769
7.5641,2.3113
7.5405,2.3704
7.5033,2.3936
7.4486,2.3936
7.4340,2.3950
7.4069,2.4062
7.3863,2.4269
7.3751,2.4540
7.3751,2.4832
7.3863,2.5103
7.4069,2.5310
7.4340,2.5422
7.4486,2.5436
7.5248,2.5436
7.5394,2.5422
7.5452,2.5398
7.5514,2.5387
7.5646,2.5322
7.6407,2.4846
7.6425,2.4832
7.6434,2.4828
7.6446,2.4816
7.6524,2.4756
7.6576,2.4683
7.6639,2.4619
7.6684,2.4532
7.6694,2.4518
7.6696,2.4508
7.6706,2.4488
7.7087,2.3536
7.7124,2.3411
7.7127,2.3404
7.7127,2.3399
7.7128,2.3395
7.7128,2.3387
7.7141,2.3257
7.7141,1.8769
7.7534,1.8769
7.7680,1.8755
7.7950,1.8643
7.8157,1.8436
7.8269,1.8166
7.8269,1.7873
7.8322,1.7873
7.8322,1.8166
7.8434,1.8436
7.8641,1.8643
7.8911,1.8755
7.9058,1.8769
8.0212,1.8769
8.0212,2.3113
7.9976,2.3704
7.9604,2.3936
7.9058,2.3936
7.8911,2.3950
7.8641,2.4062
7.8434,2.4269
7.8322,2.4540
7.8322,2.4832
7.8434,2.5103
7.8641,2.5310
7.8911,2.5422
7.9058,2.5436
7.9820,2.5436
7.9966,2.5422
8.0024,2.5398
8.0085,2.5387
8.0217,2.5322
8.0979,2.4846
8.0997,2.4832
8.1006,2.4828
8.1018,2.4816
8.1095,2.4756
8.1147,2.4683
8.1210,2.4619
8.1255,2.4532
8.1265,2.4518
8.1267,2.4508
8.1278,2.4488
8.1659,2.3536
8.1695,2.3411
8.1698,2.3404
8.1698,2.3399
8.1700,2.3395
8.1700,2.3387
8.1712,2.3257
8.1712,1.9448
8.4022,1.9448
8.4022,2.4686
8.4036,2.4832
8.4148,2.5103
8.4355,2.5310
8.4626,2.5422
8.4918,2.5422
8.5146,2.5327
8.5268,2.5387
8.5330,2.5398
8.5387,2.5422
8.5534,2.5436
8.7439,2.5436
8.7585,2.5422
8.7643,2.5398
8.7704,2.5387
8.7836,2.5322
8.8598,2.4846
8.8616,2.4832
8.8625,2.4828
8.8637,2.4816
8.8714,2.4756
8.8766,2.4683
8.8829,2.4619
8.8874,2.4532
8.8884,2.4518
8.8887,2.4508
8.8897,2.4488
8.9278,2.3536
8.9314,2.3411
8.9317,2.3404
8.9317,2.3399
8.9319,2.3395
8.9319,2.3387
8.9331,2.3257
8.9331,2.2305
8.9319,2.2175
8.9319,2.2168
8.9317,2.2163
8.9317,2.2159
8.9314,2.2152
8.9278,2.2027
8.8897,2.1074
8.8887,2.1054
8.8884,2.1045
8.8874,2.1031
8.8829,2.0944
8.8766,2.0879
8.8714,2.0806
8.8637,2.0747
8.8625,2.0734
8.8616,2.0730
8.8598,2.0717
8.7836,2.0241
8.7704,2.0175
8.7643,2.0165
8.7585,2.0141
8.7439,2.0127
8.5749,2.0127
8.5522,1.9985
8.5522,1.9592
8.5580,1.9448
9.0879,1.9448
9.0879,2.0400
9.0893,2.0547
9.0915,2.0598
9.0923,2.0653
9.0970,2.0732
9.1005,2.0817
9.1045,2.0856
9.1074,2.0904
9.1147,2.0959
9.1212,2.1024
9.1264,2.1045
9.1309,2.1078
9.1447,2.1128
9.4689,2.1938
9.4689,2.3113
9.4452,2.3704
9.4081,2.3936
9.2987,2.3936
9.2407,2.3574
9.2276,2.3509
9.1987,2.3460
9.1702,2.3526
9.1464,2.3696
9.1309,2.3944
9.1260,2.4233
9.1326,2.4518
9.1496,2.4756
9.1612,2.4846
9.2374,2.5322
9.2506,2.5387
9.2568,2.5398
9.2626,2.5422
9.2772,2.5436
9.4296,2.5436
9.4442,2.5422
9.4500,2.5398
9.4561,2.5387
9.4693,2.5322
9.5455,2.4846
9.5473,2.4832
9.5482,2.4828
9.5494,2.4816
9.5572,2.4756
9.5624,2.4683
9.5686,2.4619
9.5731,2.4532
9.5741,2.4518
9.5744,2.4508
9.5754,2.4488
9.6135,2.3536
9.6171,2.3411
9.6174,2.3404
9.6175,2.3399
9.6176,2.3395
9.6176,2.3387
9.6189,2.3257
9.6189,2.1829
9.7736,2.1829
9.7736,2.2781
9.7749,2.2911
9.7749,2.2919
9.7750,2.2923
9.7751,2.2928
9.7754,2.2935
9.7790,2.3060
9.8171,2.4012
9.8196,2.4061
9.8201,2.4079
9.8221,2.4110
9.8239,2.4143
9.8251,2.4156
9.8281,2.4202
9.8662,2.4678
9.8723,2.4741
9.8734,2.4756
9.8751,2.4769
9.8765,2.4784
9.8782,2.4793
9.8851,2.4846
9.9612,2.5322
9.9744,2.5387
9.9806,2.5398
9.9864,2.5422
10.0010,2.5436
10.1915,2.5436
10.2061,2.5422
10.2062,2.5421
10.2063,2.5421
10.2203,2.5378
10.3346,2.4902
10.3476,2.4833
10.3682,2.4625
10.3794,2.4355
10.3793,2.4062
10.3680,2.3792
10.3473,2.3585
10.3202,2.3474
10.2910,2.3475
10.2769,2.3518
10.1765,2.3936
10.0225,2.3936
9.9754,2.3642
9.9522,2.3352
9.9236,2.2637
9.9236,2.1973
9.9522,2.1258
9.9754,2.0969
10.0326,2.0611
10.1758,2.0164
10.1787,2.0151
10.1800,2.0149
10.1846,2.0126
10.1893,2.0106
10.1903,2.0098
10.1931,2.0084
10.2693,1.9608
10.2762,1.9555
10.2779,1.9546
10.2793,1.9531
10.2810,1.9518
10.2821,1.9502
10.2881,1.9440
10.3262,1.8964
10.3292,1.8918
10.3305,1.8905
10.3322,1.8872
10.3342,1.8841
10.3348,1.8823
10.3373,1.8774
10.3754,1.7822
10.3790,1.7697
10.3793,1.7690
10.3794,1.7685
10.3795,1.7681
10.3795,1.7673
10.3808,1.7543
10.3808,1.6591
10.3795,1.6461
10.3795,1.6453
10.3794,1.6449
10.3793,1.6444
10.3790,1.6437
10.3754,1.6312
10.3373,1.5360
10.3348,1.5311
10.3342,1.5293
10.3322,1.5262
10.3305,1.5229
10.3292,1.5216
10.3262,1.5170
10.2881,1.4694
10.2821,1.4632
10.2810,1.4616
10.2793,1.4603
10.2779,1.4588
10.2762,1.4579
10.2693,1.4526
10.1931,1.4050
10.1800,1.3985
10.1738,1.3974
10.1680,1.3950
10.1534,1.3936
9.9629,1.3936
9.9483,1.3950
9.9482,1.3951
9.9481,1.3951
9.9341,1.3994
9.8198,1.4470
9.8068,1.4540
9.7862,1.4747
9.7750,1.5017
9.7751,1.5310
9.7863,1.5580
9.8071,1.5787
9.8341,1.5898
9.8634,1.5898
9.8775,1.5855
9.9779,1.5436
10.1319,1.5436
10.1790,1.5731
10.2022,1.6020
10.2308,1.6735
10.2308,1.7399
10.2022,1.8114
10.1790,1.8403
10.1218,1.8761
9.9786,1.9208
9.9757,1.9221
9.9744,1.9223
9.9698,1.9246
9.9651,1.9266
9.9641,1.9274
9.9612,1.9288
9.8851,1.9764
9.8782,1.9817
9.8765,1.9827
9.8751,1.9841
9.8734,1.9854
9.8723,1.9870
9.8662,1.9932
9.8281,2.0408
9.8251,2.0454
9.8239,2.0467
9.8221,2.0500
9.8201,2.0531
9.8196,2.0549
9.8171,2.0598
9.7790,2.1550
9.7754,2.1676
9.7751,2.1683
9.7750,2.1687
9.7749,2.1692
9.7749,2.1699
9.7736,2.1829
9.6189,2.1829
9.6189,1.9448
9.6176,1.9318
9.6176,1.9311
9.6175,1.9306
9.6174,1.9302
9.6171,1.9295
9.6135,1.9169
9.5754,1.8217
9.5744,1.8197
9.5741,1.8188
9.5731,1.8173
9.5686,1.8087
9.5624,1.8022
9.5572,1.7949
9.5494,1.7890
9.5482,1.7877
9.5473,1.7873
9.5455,1.7860
9.4693,1.7383
9.4561,1.7318
9.4500,1.7308
9.4442,1.7284
9.4296,1.7269
9.2772,1.7269
9.2626,1.7284
9.2568,1.7308
9.2506,1.7318
9.2374,1.7383
9.1612,1.7860
9.1595,1.7873
9.1586,1.7877
9.1574,1.7890
9.1496,1.7949
9.1444,1.8022
9.1381,1.8087
9.1336,1.8173
9.1326,1.8188
9.1324,1.8197
9.1314,1.8217
9.0933,1.9169
9.0896,1.9295
9.0893,1.9302
9.0893,1.9306
9.0892,1.9311
9.0892,1.9318
9.0879,1.9448
8.5580,1.9448
8.5758,1.9002
8.6130,1.8769
8.7223,1.8769
8.7803,1.9132
8.7935,1.9197
8.8223,1.9245
8.8508,1.9179
8.8747,1.9010
8.8902,1.8761
8.8950,1.8473
8.8884,1.8188
8.8714,1.7949
8.8598,1.7860
8.7836,1.7383
8.7704,1.7318
8.7643,1.7308
8.7585,1.7284
8.7439,1.7269
8.5915,1.7269
8.5768,1.7284
8.5711,1.7308
8.5649,1.7318
8.5517,1.7383
8.4755,1.7860
8.4738,1.7873
8.4729,1.7877
8.4716,1.7890
8.4639,1.7949
8.4587,1.8022
8.4524,1.8087
8.4479,1.8173
8.4469,1.8188
8.4467,1.8197
8.4456,1.8217
8.4076,1.9169
8.4039,1.9295
8.4036,1.9302
8.4036,1.9306
8.4035,1.9311
8.4035,1.9318
8.4022,1.9448
8.1712,1.9448
8.1712,1.8769
8.2105,1.8769
8.2252,1.8755
8.2522,1.8643
8.2729,1.8436
8.2841,1.8166
8.2841,1.7873
8.2729,1.7603
8.2522,1.7396
8.2252,1.7284
8.2105,1.7269
8.1712,1.7269
8.1712,1.4686
8.1698,1.4540
8.1586,1.4269
8.1379,1.4062
8.1109,1.3950
8.0816,1.3950
8.0546,1.4062
8.0339,1.4269
8.0227,1.4540
8.0212,1.4686
8.0212,1.7269
7.9058,1.7269
7.8911,1.7284
7.8641,1.7396
7.8434,1.7603
7.8322,1.7873
7.8269,1.7873
7.8157,1.7603
7.7950,1.7396
7.7680,1.7284
7.7534,1.7269
7.7141,1.7269
7.7141,1.4686
7.7127,1.4540
7.7015,1.4269
7.6808,1.4062
7.6537,1.3950
7.6245,1.3950
7.5974,1.4062
7.5767,1.4269
7.5655,1.4540
7.5641,1.4686
7.5641,1.7269
7.4486,1.7269
7.4340,1.7284
7.4069,1.7396
7.3863,1.7603
7.3751,1.7873
7.2570,1.7873
7.2570,1.4686
7.2555,1.4540
7.2443,1.4269
7.2236,1.4062
7.1966,1.3950
7.1673,1.3950
7.1403,1.4062
7.1196,1.4269
7.1084,1.4540
7.1070,1.4686
7.1070,2.3113
7.0833,2.3704
7.0279,2.4050
7.0163,2.4140
6.9993,2.4378
6.9927,2.4663
6.8214,2.4663
6.8258,2.4619
6.8303,2.4532
6.8313,2.4518
6.8315,2.4508
6.8325,2.4488
6.8706,2.3536
6.8743,2.3411
6.8746,2.3404
6.8746,2.3399
6.8747,2.3395
6.8747,2.3387
6.8760,2.3257
6.8760,1.9448
6.8747,1.9318
6.8747,1.9311
6.8746,1.9306
6.8746,1.9302
6.8743,1.9295
6.8706,1.9169
6.8325,1.8217
6.8315,1.8197
6.8313,1.8188
6.8303,1.8173
6.8258,1.8087
6.8195,1.8022
6.8143,1.7949
6.8065,1.7890
6.8053,1.7877
6.8044,1.7873
6.8027,1.7860
6.7265,1.7383
6.7133,1.7318
6.7071,1.7308
6.7013,1.7284
6.6867,1.7269
6.5343,1.7269
6.5197,1.7284
6.5139,1.7308
6.5078,1.7318
6.4946,1.7383
6.4184,1.7860
6.4166,1.7873
6.4157,1.7877
6.4145,1.7890
6.4067,1.7949
6.4015,1.8022
6.3953,1.8087
6.3908,1.8173
6.3898,1.8188
6.3895,1.8197
6.3885,1.8217
6.3504,1.9169
6.3468,1.9295
6.3465,1.9302
6.3464,1.9306
6.3463,1.9311
6.3463,1.9318
6.3450,1.9448
5.5427,1.9448
5.5427,1.4686
5.5412,1.4540
5.5407,1.4527
5.5407,1.4514
5.5351,1.4393
5.5300,1.4269
5.5291,1.4260
5.5285,1.4248
5.5188,1.4157
5.5093,1.4062
5.5081,1.4057
5.5071,1.4048
5.4946,1.4002
5.4823,1.3950
5.4809,1.3950
5.4797,1.3946
5.4664,1.3950
5.4530,1.3950
5.4518,1.3956
5.4504,1.3956
5.4383,1.4011
5.4260,1.4062
5.4250,1.4072
5.4238,1.4078
5.4147,1.4175
5.4053,1.4269
5.4048,1.4282
5.4039,1.4292
5.3974,1.4424
5.2010,1.9685
5.0046,1.4424
4.9981,1.4292
4.9972,1.4282
4.9967,1.4269
4.9873,1.4175
4.9782,1.4078
4.9770,1.4072
4.9760,1.4062
4.9637,1.4011
4.9516,1.3956
4.9502,1.3956
4.9490,1.3950
4.9356,1.3950
4.9223,1.3946
4.9210,1.3950
4.9197,1.3950
4.9074,1.4001
4.8949,1.4048
4.8939,1.4057
4.8927,1.4062
4.8832,1.4157
4.8735,1.4248
4.8729,1.4260
4.8720,1.4269
4.8669,1.4392
4.8613,1.4514
4.8613,1.4527
4.8608,1.4540
4.8593,1.4686
3.9046,1.4686
3.9031,1.4540
3.8919,1.4269
3.8712,1.4062
3.8442,1.3950
3.8149,1.3950
3.7879,1.4062
3.7672,1.4269
3.7560,1.4540
3.7546,1.4686
3.7546,1.9691
3.5834,1.7551
3.5731,1.7446
3.5475,1.7304
3.5184,1.7272
3.4903,1.7354
3.4674,1.7536
3.4533,1.7793
3.4501,1.8084
3.4582,1.8365
3.4662,1.8488
3.6622,2.0938
3.4605,2.4300
3.4542,2.4433
3.4499,2.4723
3.2357,2.4723
3.2386,2.4683
3.2448,2.4619
3.2493,2.4532
3.2503,2.4518
3.2506,2.4508
3.2516,2.4488
3.2897,2.3536
3.2933,2.3411
3.2936,2.3404
3.2936,2.3399
3.2938,2.3395
3.2938,2.3387
3.2950,2.3257
3.2950,1.9448
3.2938,1.9318
3.2938,1.9311
3.2936,1.9306
3.2936,1.9302
3.2933,1.9295
3.2897,1.9169
3.2516,1.8217
3.2506,1.8197
3.2503,1.8188
3.2493,1.8173
3.2448,1.8087
3.2386,1.8022
3.2333,1.7949
3.2256,1.7890
3.2244,1.7877
3.2235,1.7873
3.2217,1.7860
3.1455,1.7383
3.1323,1.7318
3.1262,1.7308
3.1204,1.7284
3.1058,1.7269
2.9534,1.7269
2.9387,1.7284
2.9330,1.7308
2.9268,1.7318
2.9136,1.7383
2.8374,1.7860
2.8357,1.7873
2.8348,1.7877
2.8335,1.7890
2.8258,1.7949
2.8206,1.8022
2.8143,1.8087
2.8098,1.8173
2.8088,1.8188
2.8086,1.8197
2.8076,1.8217
2.7695,1.9169
2.7658,1.9295
2.7655,1.9302
2.7655,1.9306
2.7654,1.9311
2.7654,1.9318
2.7641,1.9448
2.5712,1.9448
2.5712,1.8019
2.5698,1.7873
2.5586,1.7603
2.5379,1.7396
2.5109,1.7284
2.4816,1.7284
2.4546,1.7396
2.4339,1.7603
2.4308,1.7678
2.3836,1.7383
2.3704,1.7318
2.3643,1.7308
2.3585,1.7284
2.3439,1.7269
2.2677,1.7269
2.2530,1.7284
2.2260,1.7396
2.2053,1.7603
2.1941,1.7873
2.0425,1.7873
2.0407,1.7860
1.9646,1.7383
1.9514,1.7318
1.9452,1.7308
1.9394,1.7284
1.9248,1.7269
1.8105,1.7269
1.7959,1.7284
1.7901,1.7308
1.7839,1.7318
1.7708,1.7383
1.6946,1.7860
1.6829,1.7949
1.6659,1.8188
1.6594,1.8473
1.6642,1.8761
1.6797,1.9010
1.7035,1.9179
1.7320,1.9245
1.7609,1.9197
1.7741,1.9132
1.8320,1.8769
1.9033,1.8769
1.9405,1.9002
1.9641,1.9592
1.9641,1.9780
1.9405,2.0370
1.9033,2.0603
1.8105,2.0603
1.7959,2.0617
1.7901,2.0641
1.7839,2.0651
1.7708,2.0717
1.6946,2.1193
1.6928,2.1207
1.6919,2.1210
1.6907,2.1223
1.6829,2.1283
1.6777,2.1356
1.6715,2.1420
1.6670,2.1507
1.6659,2.1521
1.6657,2.1531
1.6647,2.1550
1.6266,2.2503
1.6230,2.2628
1.6227,2.2635
1.6226,2.2640
1.6225,2.2644
1.6225,2.2652
1.6212,2.2781
1.5101,2.2781
1.5101,1.2825
10.4919,1.2825
Z" /> 
</g> 
</svg>
