<?xml version="1.0" standalone="no"?>
 <!DOCTYPE svg PUBLIC "-//W3C//DTD SVG 1.1//EN" 
 "http://www.w3.org/Graphics/SVG/1.1/DTD/svg11.dtd"> 
<svg
  xmlns:svg="http://www.w3.org/2000/svg"
  xmlns="http://www.w3.org/2000/svg"
  xmlns:xlink="http://www.w3.org/1999/xlink"
  version="1.1"
  width="15.0368mm" height="7.0358mm" viewBox="0.0000 0.0000 15.0368 7.0358">
<title>SVG Image created as Simple Graphic-F_Silkscreen.svg date 2024/07/19 01:13:17 </title>
  <desc>Image generated by PCBNEW </desc>
<g style="fill:#000000; fill-opacity:1.0000;stroke:#000000; stroke-opacity:1.0000;
stroke-linecap:round; stroke-linejoin:round;"
 transform="translate(0 0) scale(1 1)">
</g>
<g style="fill:none; 
stroke:#000000; stroke-width:0.1500; stroke-opacity:1; 
stroke-linecap:round; stroke-linejoin:round;">
<text x="10.0650" y="2.8389"
textLength="1.9643" font-size="1.3333" lengthAdjust="spacingAndGlyphs"
text-anchor="middle" opacity="0" stroke-opacity="0">J1</text>
<g class="stroked-text"><desc>J1</desc>
<path d="M9.7317 1.7937
L9.7317 2.5080
" />
<path d="M9.7317 2.5080
L9.6840 2.6508
" />
<path d="M9.6840 2.6508
L9.5888 2.7461
" />
<path d="M9.5888 2.7461
L9.4460 2.7937
" />
<path d="M9.4460 2.7937
L9.3507 2.7937
" />
<path d="M10.7317 2.7937
L10.1602 2.7937
" />
<path d="M10.4460 2.7937
L10.4460 1.7937
" />
<path d="M10.4460 1.7937
L10.3507 1.9366
" />
<path d="M10.3507 1.9366
L10.2555 2.0318
" />
<path d="M10.2555 2.0318
L10.1602 2.0794
" />
</g><text x="3.9830" y="6.3949"
textLength="2.2500" font-size="1.3333" lengthAdjust="spacingAndGlyphs"
text-anchor="middle" opacity="0" stroke-opacity="0">U1</text>
<g class="stroked-text"><desc>U1</desc>
<path d="M3.2211 5.3497
L3.2211 6.1592
" />
<path d="M3.2211 6.1592
L3.2687 6.2545
" />
<path d="M3.2687 6.2545
L3.3163 6.3021
" />
<path d="M3.3163 6.3021
L3.4116 6.3497
" />
<path d="M3.4116 6.3497
L3.6020 6.3497
" />
<path d="M3.6020 6.3497
L3.6973 6.3021
" />
<path d="M3.6973 6.3021
L3.7449 6.2545
" />
<path d="M3.7449 6.2545
L3.7925 6.1592
" />
<path d="M3.7925 6.1592
L3.7925 5.3497
" />
<path d="M4.7925 6.3497
L4.2211 6.3497
" />
<path d="M4.5068 6.3497
L4.5068 5.3497
" />
<path d="M4.5068 5.3497
L4.4116 5.4926
" />
<path d="M4.4116 5.4926
L4.3163 5.5878
" />
<path d="M4.3163 5.5878
L4.2211 5.6354
" />
</g></g>
<g style="fill:none; 
stroke:#000000; stroke-width:0.1200; stroke-opacity:1; 
stroke-linecap:round; stroke-linejoin:round;">
<path d="M11.4030 1.2029
L12.1130 1.2029
" />
<path d="M11.4030 1.8879
L11.4030 1.2029
" />
<path d="M11.4030 2.5729
L11.4030 5.4479
" />
<path d="M11.4030 2.5729
L11.5047 2.5729
" />
<path d="M11.4030 5.4479
L11.7185 5.4479
" />
<path d="M12.5075 5.4479
L12.7185 5.4479
" />
<path d="M13.5075 1.3279
L13.8230 1.3279
" />
<path d="M13.5075 5.4479
L13.8230 5.4479
" />
<path d="M13.8230 1.3279
L13.8230 5.4479
" />
<path d="M3.9830 1.8029
L2.4830 1.8029
" />
<path d="M3.9830 1.8029
L5.4830 1.8029
" />
<path d="M3.9830 5.0229
L2.4830 5.0229
" />
<path d="M3.9830 5.0229
L5.4830 5.0229
" />
<path style="fill:#000000; fill-opacity:1.0000; 
stroke:#000000; stroke-width:0.1200; stroke-opacity:1; 
stroke-linecap:round; stroke-linejoin:round;fill-rule:evenodd;"
d="M 1.7705,1.9779
1.5305,1.6479
2.0105,1.6479
Z" /> 
</g> 
</svg>
