<?xml version="1.0" standalone="no"?>
 <!DOCTYPE svg PUBLIC "-//W3C//DTD SVG 1.1//EN" 
 "http://www.w3.org/Graphics/SVG/1.1/DTD/svg11.dtd"> 
<svg
  xmlns:svg="http://www.w3.org/2000/svg"
  xmlns="http://www.w3.org/2000/svg"
  xmlns:xlink="http://www.w3.org/1999/xlink"
  version="1.1"
  width="15.0368mm" height="7.0358mm" viewBox="0.0000 0.0000 15.0368 7.0358">
<title>SVG Image created as Simple Graphic-F_Cu.svg date 2024/07/19 01:13:17 </title>
  <desc>Image generated by PCBNEW </desc>
<g style="fill:#000000; fill-opacity:1.0000;stroke:#000000; stroke-opacity:1.0000;
stroke-linecap:round; stroke-linejoin:round;"
 transform="translate(0 0) scale(1 1)">
<path style="fill:#000000; fill-opacity:1.0000; stroke:none;fill-rule:evenodd;"
d="M 11.6880,2.3129
11.6880,1.4629
12.5380,1.4629
12.5380,2.3129
Z" /> 
</g>
<g style="fill:#000000; fill-opacity:1.0000; stroke:none;">
<circle cx="13.1130" cy="1.8879" r="0.4250" /> 
<circle cx="12.1130" cy="2.8879" r="0.4250" /> 
<circle cx="13.1130" cy="2.8879" r="0.4250" /> 
<circle cx="12.1130" cy="3.8879" r="0.4250" /> 
<circle cx="13.1130" cy="3.8879" r="0.4250" /> 
<circle cx="12.1130" cy="4.8879" r="0.4250" /> 
<circle cx="13.1130" cy="4.8879" r="0.4250" /> 
<path style="fill:#000000; fill-opacity:1.0000; stroke:none;fill-rule:evenodd;"
d="M 1.0580,2.3379
1.0656,2.2996
1.0873,2.2672
1.1197,2.2455
1.1580,2.2379
2.5830,2.2379
2.6213,2.2455
2.6537,2.2672
2.6754,2.2996
2.6830,2.3379
2.6830,2.5379
2.6754,2.5761
2.6537,2.6086
2.6213,2.6303
2.5830,2.6379
1.1580,2.6379
1.1197,2.6303
1.0873,2.6086
1.0656,2.5761
1.0580,2.5379
Z" /> 
<path style="fill:#000000; fill-opacity:1.0000; stroke:none;fill-rule:evenodd;"
d="M 1.0580,2.9879
1.0656,2.9496
1.0873,2.9172
1.1197,2.8955
1.1580,2.8879
2.5830,2.8879
2.6213,2.8955
2.6537,2.9172
2.6754,2.9496
2.6830,2.9879
2.6830,3.1879
2.6754,3.2261
2.6537,3.2586
2.6213,3.2803
2.5830,3.2879
1.1580,3.2879
1.1197,3.2803
1.0873,3.2586
1.0656,3.2261
1.0580,3.1879
Z" /> 
<path style="fill:#000000; fill-opacity:1.0000; stroke:none;fill-rule:evenodd;"
d="M 1.0580,3.6379
1.0656,3.5996
1.0873,3.5672
1.1197,3.5455
1.1580,3.5379
2.5830,3.5379
2.6213,3.5455
2.6537,3.5672
2.6754,3.5996
2.6830,3.6379
2.6830,3.8379
2.6754,3.8761
2.6537,3.9086
2.6213,3.9303
2.5830,3.9379
1.1580,3.9379
1.1197,3.9303
1.0873,3.9086
1.0656,3.8761
1.0580,3.8379
Z" /> 
<path style="fill:#000000; fill-opacity:1.0000; stroke:none;fill-rule:evenodd;"
d="M 1.0580,4.2879
1.0656,4.2496
1.0873,4.2172
1.1197,4.1955
1.1580,4.1879
2.5830,4.1879
2.6213,4.1955
2.6537,4.2172
2.6754,4.2496
2.6830,4.2879
2.6830,4.4879
2.6754,4.5261
2.6537,4.5586
2.6213,4.5803
2.5830,4.5879
1.1580,4.5879
1.1197,4.5803
1.0873,4.5586
1.0656,4.5261
1.0580,4.4879
Z" /> 
<path style="fill:#000000; fill-opacity:1.0000; stroke:none;fill-rule:evenodd;"
d="M 5.2830,4.2879
5.2906,4.2496
5.3123,4.2172
5.3447,4.1955
5.3830,4.1879
6.8080,4.1879
6.8463,4.1955
6.8787,4.2172
6.9004,4.2496
6.9080,4.2879
6.9080,4.4879
6.9004,4.5261
6.8787,4.5586
6.8463,4.5803
6.8080,4.5879
5.3830,4.5879
5.3447,4.5803
5.3123,4.5586
5.2906,4.5261
5.2830,4.4879
Z" /> 
<path style="fill:#000000; fill-opacity:1.0000; stroke:none;fill-rule:evenodd;"
d="M 5.2830,3.6379
5.2906,3.5996
5.3123,3.5672
5.3447,3.5455
5.3830,3.5379
6.8080,3.5379
6.8463,3.5455
6.8787,3.5672
6.9004,3.5996
6.9080,3.6379
6.9080,3.8379
6.9004,3.8761
6.8787,3.9086
6.8463,3.9303
6.8080,3.9379
5.3830,3.9379
5.3447,3.9303
5.3123,3.9086
5.2906,3.8761
5.2830,3.8379
Z" /> 
<path style="fill:#000000; fill-opacity:1.0000; stroke:none;fill-rule:evenodd;"
d="M 5.2830,2.9879
5.2906,2.9496
5.3123,2.9172
5.3447,2.8955
5.3830,2.8879
6.8080,2.8879
6.8463,2.8955
6.8787,2.9172
6.9004,2.9496
6.9080,2.9879
6.9080,3.1879
6.9004,3.2261
6.8787,3.2586
6.8463,3.2803
6.8080,3.2879
5.3830,3.2879
5.3447,3.2803
5.3123,3.2586
5.2906,3.2261
5.2830,3.1879
Z" /> 
<path style="fill:#000000; fill-opacity:1.0000; stroke:none;fill-rule:evenodd;"
d="M 5.2830,2.3379
5.2906,2.2996
5.3123,2.2672
5.3447,2.2455
5.3830,2.2379
6.8080,2.2379
6.8463,2.2455
6.8787,2.2672
6.9004,2.2996
6.9080,2.3379
6.9080,2.5379
6.9004,2.5761
6.8787,2.6086
6.8463,2.6303
6.8080,2.6379
5.3830,2.6379
5.3447,2.6303
5.3123,2.6086
5.2906,2.5761
5.2830,2.5379
Z" /> 
<circle cx="3.0038" cy="2.4405" r="0.3000" /> 
</g>
<g style="fill:none; 
stroke:#000000; stroke-width:0.2000; stroke-opacity:1; 
stroke-linecap:round; stroke-linejoin:round;">
<path d="M1.9310 1.1379
L0.8580 2.2108
" />
<path d="M13.1130 1.8879
L13.1130 1.2868
" />
<path d="M0.8580 2.2108
L0.8580 2.8879
" />
<path d="M12.9640 1.1379
L1.9310 1.1379
" />
<path d="M1.0580 3.0879
L1.8705 3.0879
" />
<path d="M0.8580 2.8879
L1.0580 3.0879
" />
<path d="M13.1130 1.2868
L12.9640 1.1379
" />
<path d="M13.1130 3.8879
L13.7380 4.5129
" />
<path d="M13.7380 4.5129
L13.7380 5.1468
" />
<path d="M13.0613 5.8235
L9.7593 5.8235
" />
<path d="M7.6737 3.7379
L6.0955 3.7379
" />
<path d="M9.7593 5.8235
L7.6737 3.7379
" />
<path d="M13.7380 5.1468
L13.0613 5.8235
" />
<path d="M5.2315 2.0379
L4.9830 2.2864
" />
<path d="M12.1130 4.8879
L9.9551 4.8879
" />
<path d="M7.1051 2.0379
L5.2315 2.0379
" />
<path d="M9.9551 4.8879
L7.1051 2.0379
" />
<path d="M4.9830 2.7879
L5.2830 3.0879
" />
<path d="M5.2830 3.0879
L6.0955 3.0879
" />
<path d="M4.9830 2.2864
L4.9830 2.7879
" />
<path d="M10.0250 5.5235
L6.9394 2.4379
" />
<path d="M12.4774 5.5235
L10.0250 5.5235
" />
<path d="M13.1130 4.8879
L12.4774 5.5235
" />
<path d="M6.9394 2.4379
L6.0955 2.4379
" />
<path d="M5.2560 4.3879
L6.0955 4.3879
" />
<path d="M4.6717 3.8036
L5.2560 4.3879
" />
<path d="M4.6717 2.1735
L4.6717 3.8036
" />
<path d="M12.1130 3.8879
L9.7783 3.8879
" />
<path d="M7.6283 1.7379
L5.1073 1.7379
" />
<path d="M5.1073 1.7379
L4.6717 2.1735
" />
<path d="M9.7783 3.8879
L7.6283 1.7379
" />
<path d="M4.9830 1.4379
L7.8940 1.4379
" />
<path d="M2.6830 3.7379
L4.9830 1.4379
" />
<path d="M7.8940 1.4379
L9.3440 2.8879
" />
<path d="M1.8705 3.7379
L2.6830 3.7379
" />
<path d="M9.3440 2.8879
L12.1130 2.8879
" />
<path d="M3.0012 2.4379
L3.0038 2.4405
" />
<path d="M1.8705 2.4379
L3.0012 2.4379
" />
<path d="M9.3448 6.1235
L8.1092 4.8879
" />
<path d="M13.1855 6.1235
L9.3448 6.1235
" />
<path d="M14.0380 5.2710
L13.1855 6.1235
" />
<path d="M2.3705 4.8879
L8.1092 4.8879
" />
<path d="M1.8705 4.3879
L2.3705 4.8879
" />
<path d="M13.1130 2.8879
L14.0380 3.8129
" />
<path d="M14.0380 3.8129
L14.0380 5.2710
" />
</g>
<g style="fill:#FFFFFF; fill-opacity:1.0000; stroke:none;">
<circle cx="3.0038" cy="2.4405" r="0.1500" /> 
</g>
<g style="fill:#FFFFFF; fill-opacity:1.0000; stroke:none;">
<circle cx="12.1130" cy="1.8879" r="0.2500" /> 
</g>
<g style="fill:#FFFFFF; fill-opacity:1.0000; stroke:none;">
<circle cx="13.1130" cy="1.8879" r="0.2500" /> 
</g>
<g style="fill:#FFFFFF; fill-opacity:1.0000; stroke:none;">
<circle cx="12.1130" cy="2.8879" r="0.2500" /> 
</g>
<g style="fill:#FFFFFF; fill-opacity:1.0000; stroke:none;">
<circle cx="13.1130" cy="2.8879" r="0.2500" /> 
</g>
<g style="fill:#FFFFFF; fill-opacity:1.0000; stroke:none;">
<circle cx="12.1130" cy="3.8879" r="0.2500" /> 
</g>
<g style="fill:#FFFFFF; fill-opacity:1.0000; stroke:none;">
<circle cx="13.1130" cy="3.8879" r="0.2500" /> 
</g>
<g style="fill:#FFFFFF; fill-opacity:1.0000; stroke:none;">
<circle cx="12.1130" cy="4.8879" r="0.2500" /> 
</g>
<g style="fill:#FFFFFF; fill-opacity:1.0000; stroke:none;">
<circle cx="13.1130" cy="4.8879" r="0.2500" /> 
</g> 
</svg>
