<?xml version="1.0" encoding="UTF-8" standalone="no"?>
<svg
   version="1.1"
   width="15.0368mm"
   height="7.0358mm"
   viewBox="0.0000 0.0000 15.0368 7.0358"
   id="svg1210"
   sodipodi:docname="Simple Graphic-F_ENIG.svg"
   inkscape:version="1.2.2 (732a01da63, 2022-12-09)"
   xmlns:inkscape="http://www.inkscape.org/namespaces/inkscape"
   xmlns:sodipodi="http://sodipodi.sourceforge.net/DTD/sodipodi-0.dtd"
   xmlns="http://www.w3.org/2000/svg"
   xmlns:svg="http://www.w3.org/2000/svg"
   xmlns:rdf="http://www.w3.org/1999/02/22-rdf-syntax-ns#"
   xmlns:cc="http://creativecommons.org/ns#"
   xmlns:dc="http://purl.org/dc/elements/1.1/">
  <defs
     id="defs1214" />
  <sodipodi:namedview
     id="namedview1212"
     pagecolor="#ffffff"
     bordercolor="#000000"
     borderopacity="0.25"
     inkscape:showpageshadow="2"
     inkscape:pageopacity="0.0"
     inkscape:pagecheckerboard="0"
     inkscape:deskcolor="#d1d1d1"
     inkscape:document-units="mm"
     showgrid="false"
     inkscape:zoom="18.281953"
     inkscape:cx="28.416001"
     inkscape:cy="13.319146"
     inkscape:window-width="1620"
     inkscape:window-height="1010"
     inkscape:window-x="-6"
     inkscape:window-y="-6"
     inkscape:window-maximized="1"
     inkscape:current-layer="svg1210" />
  <title
     id="title1170">SVG Image created as Simple Graphic-F_Mask.svg date 2024/07/19 01:13:17 </title>
  <desc
     id="desc1172">Image generated by PCBNEW </desc>
  <path
     id="path1174"
     style="fill:#000000;fill-opacity:1;fill-rule:evenodd;stroke:none;stroke-linecap:round;stroke-linejoin:round;stroke-opacity:1"
     d="M 11.688175 1.4629598 L 11.688175 2.3130371 L 12.538253 2.3130371 L 12.538253 1.4629598 L 11.688175 1.4629598 z M 13.112895 1.4629598 A 0.42500001 0.42500001 0 0 0 12.688114 1.8877401 A 0.42500001 0.42500001 0 0 0 13.112895 2.3130371 A 0.42500001 0.42500001 0 0 0 13.538192 1.8877401 A 0.42500001 0.42500001 0 0 0 13.112895 1.4629598 z M 1.1580688 2.2381063 L 1.1198283 2.245341 L 1.0872721 2.2670451 L 1.065568 2.2996012 L 1.0578166 2.3378418 L 1.0578166 2.5378296 L 1.065568 2.5760701 L 1.0872721 2.6086263 L 1.1198283 2.6303304 L 1.1580688 2.6380819 L 2.5827881 2.6380819 L 2.6215454 2.6303304 L 2.6535848 2.6086263 L 2.6752889 2.5760701 L 2.6830404 2.5378296 L 2.6830404 2.3378418 L 2.6752889 2.2996012 L 2.6535848 2.2670451 L 2.6215454 2.245341 L 2.5827881 2.2381063 L 1.1580688 2.2381063 z M 5.383134 2.2381063 L 5.3448934 2.245341 L 5.3123372 2.2670451 L 5.2906331 2.2996012 L 5.2828817 2.3378418 L 5.2828817 2.5378296 L 5.2906331 2.5760701 L 5.3123372 2.6086263 L 5.3448934 2.6303304 L 5.383134 2.6380819 L 6.8078532 2.6380819 L 6.8460937 2.6303304 L 6.8786499 2.6086263 L 6.900354 2.5760701 L 6.9081055 2.5378296 L 6.9081055 2.3378418 L 6.900354 2.2996012 L 6.8786499 2.2670451 L 6.8460937 2.245341 L 6.8078532 2.2381063 L 5.383134 2.2381063 z M 12.112956 2.4628988 A 0.42500001 0.42500001 0 0 0 11.688175 2.887679 A 0.42500001 0.42500001 0 0 0 12.112956 3.3129761 A 0.42500001 0.42500001 0 0 0 12.538253 2.887679 A 0.42500001 0.42500001 0 0 0 12.112956 2.4628988 z M 13.112895 2.4628988 A 0.42500001 0.42500001 0 0 0 12.688114 2.887679 A 0.42500001 0.42500001 0 0 0 13.112895 3.3129761 A 0.42500001 0.42500001 0 0 0 13.538192 2.887679 A 0.42500001 0.42500001 0 0 0 13.112895 2.4628988 z M 1.1580688 2.887679 L 1.1198283 2.8954305 L 1.0872721 2.9171346 L 1.065568 2.9496908 L 1.0578166 2.9879313 L 1.0578166 3.1879191 L 1.065568 3.2261597 L 1.0872721 3.2587158 L 1.1198283 3.2804199 L 1.1580688 3.2876546 L 2.5827881 3.2876546 L 2.6215454 3.2804199 L 2.6535848 3.2587158 L 2.6752889 3.2261597 L 2.6830404 3.1879191 L 2.6830404 2.9879313 L 2.6752889 2.9496908 L 2.6535848 2.9171346 L 2.6215454 2.8954305 L 2.5827881 2.887679 L 1.1580688 2.887679 z M 5.383134 2.887679 L 5.3448934 2.8954305 L 5.3123372 2.9171346 L 5.2906331 2.9496908 L 5.2828817 2.9879313 L 5.2828817 3.1879191 L 5.2906331 3.2261597 L 5.3123372 3.2587158 L 5.3448934 3.2804199 L 5.383134 3.2876546 L 6.8078532 3.2876546 L 6.8460937 3.2804199 L 6.8786499 3.2587158 L 6.900354 3.2261597 L 6.9081055 3.1879191 L 6.9081055 2.9879313 L 6.900354 2.9496908 L 6.8786499 2.9171346 L 6.8460937 2.8954305 L 6.8078532 2.887679 L 5.383134 2.887679 z M 12.112956 3.4628377 A 0.42500001 0.42500001 0 0 0 11.688175 3.8881348 A 0.42500001 0.42500001 0 0 0 12.112956 4.312915 A 0.42500001 0.42500001 0 0 0 12.538253 3.8881348 A 0.42500001 0.42500001 0 0 0 12.112956 3.4628377 z M 13.112895 3.4628377 A 0.42500001 0.42500001 0 0 0 12.688114 3.8881348 A 0.42500001 0.42500001 0 0 0 13.112895 4.312915 A 0.42500001 0.42500001 0 0 0 13.538192 3.8881348 A 0.42500001 0.42500001 0 0 0 13.112895 3.4628377 z M 1.1580688 3.5377686 L 1.1198283 3.54552 L 1.0872721 3.5672241 L 1.065568 3.5997803 L 1.0578166 3.6380208 L 1.0578166 3.8380086 L 1.065568 3.8762492 L 1.0872721 3.9088053 L 1.1198283 3.9305094 L 1.1580688 3.9377441 L 2.5827881 3.9377441 L 2.6215454 3.9305094 L 2.6535848 3.9088053 L 2.6752889 3.8762492 L 2.6830404 3.8380086 L 2.6830404 3.6380208 L 2.6752889 3.5997803 L 2.6535848 3.5672241 L 2.6215454 3.54552 L 2.5827881 3.5377686 L 1.1580688 3.5377686 z M 5.383134 3.5377686 L 5.3448934 3.54552 L 5.3123372 3.5672241 L 5.2906331 3.5997803 L 5.2828817 3.6380208 L 5.2828817 3.8380086 L 5.2906331 3.8762492 L 5.3123372 3.9088053 L 5.3448934 3.9305094 L 5.383134 3.9377441 L 6.8078532 3.9377441 L 6.8460937 3.9305094 L 6.8786499 3.9088053 L 6.900354 3.8762492 L 6.9081055 3.8380086 L 6.9081055 3.6380208 L 6.900354 3.5997803 L 6.8786499 3.5672241 L 6.8460937 3.54552 L 6.8078532 3.5377686 L 5.383134 3.5377686 z M 1.1580688 4.1878581 L 1.1198283 4.1956095 L 1.0872721 4.2173136 L 1.065568 4.249353 L 1.0578166 4.2881104 L 1.0578166 4.4880981 L 1.065568 4.5263387 L 1.0872721 4.5583781 L 1.1198283 4.5800822 L 1.1580688 4.5878337 L 2.5827881 4.5878337 L 2.6215454 4.5800822 L 2.6535848 4.5583781 L 2.6752889 4.5263387 L 2.6830404 4.4880981 L 2.6830404 4.2881104 L 2.6752889 4.249353 L 2.6535848 4.2173136 L 2.6215454 4.1956095 L 2.5827881 4.1878581 L 1.1580688 4.1878581 z M 5.383134 4.1878581 L 5.3448934 4.1956095 L 5.3123372 4.2173136 L 5.2906331 4.249353 L 5.2828817 4.2881104 L 5.2828817 4.4880981 L 5.2906331 4.5263387 L 5.3123372 4.5583781 L 5.3448934 4.5800822 L 5.383134 4.5878337 L 6.8078532 4.5878337 L 6.8460937 4.5800822 L 6.8786499 4.5583781 L 6.900354 4.5263387 L 6.9081055 4.4880981 L 6.9081055 4.2881104 L 6.900354 4.249353 L 6.8786499 4.2173136 L 6.8460937 4.1956095 L 6.8078532 4.1878581 L 5.383134 4.1878581 z M 12.112956 4.4627767 A 0.42500001 0.42500001 0 0 0 11.688175 4.8880737 A 0.42500001 0.42500001 0 0 0 12.112956 5.312854 A 0.42500001 0.42500001 0 0 0 12.538253 4.8880737 A 0.42500001 0.42500001 0 0 0 12.112956 4.4627767 z M 13.112895 4.4627767 A 0.42500001 0.42500001 0 0 0 12.688114 4.8880737 A 0.42500001 0.42500001 0 0 0 13.112895 5.312854 A 0.42500001 0.42500001 0 0 0 13.538192 4.8880737 A 0.42500001 0.42500001 0 0 0 13.112895 4.4627767 z " />
  <metadata
     id="metadata1240">
    <rdf:RDF>
      <cc:Work
         rdf:about="">
        <dc:title>SVG Image created as Simple Graphic-F_Mask.svg date 2024/07/19 01:13:17 </dc:title>
      </cc:Work>
    </rdf:RDF>
  </metadata>
</svg>
