<?xml version="1.0" encoding="UTF-8" standalone="no"?>
<svg
   version="1.1"
   width="15.0368mm"
   height="7.0358mm"
   viewBox="0.0000 0.0000 15.0368 7.0358"
   id="svg198"
   sodipodi:docname="Simple Graphic-B_Silkscreen.svg"
   inkscape:version="1.2.2 (732a01da63, 2022-12-09)"
   xmlns:inkscape="http://www.inkscape.org/namespaces/inkscape"
   xmlns:sodipodi="http://sodipodi.sourceforge.net/DTD/sodipodi-0.dtd"
   xmlns="http://www.w3.org/2000/svg"
   xmlns:svg="http://www.w3.org/2000/svg"
   xmlns:rdf="http://www.w3.org/1999/02/22-rdf-syntax-ns#"
   xmlns:cc="http://creativecommons.org/ns#"
   xmlns:dc="http://purl.org/dc/elements/1.1/">
  <defs
     id="defs202" />
  <sodipodi:namedview
     id="namedview200"
     pagecolor="#ffffff"
     bordercolor="#000000"
     borderopacity="0.25"
     inkscape:showpageshadow="2"
     inkscape:pageopacity="0.0"
     inkscape:pagecheckerboard="0"
     inkscape:deskcolor="#d1d1d1"
     inkscape:document-units="mm"
     showgrid="false"
     inkscape:zoom="18.281953"
     inkscape:cx="28.416001"
     inkscape:cy="13.319146"
     inkscape:window-width="1620"
     inkscape:window-height="1010"
     inkscape:window-x="-6"
     inkscape:window-y="-6"
     inkscape:window-maximized="1"
     inkscape:current-layer="svg198" />
  <title
     id="title168">SVG Image created as Simple Graphic-B_Silkscreen.svg date 2024/07/19 01:13:17 </title>
  <desc
     id="desc170">Image generated by PCBNEW </desc>
  <path
     id="path172"
     style="fill:#000000;fill-opacity:1;fill-rule:evenodd;stroke:none;stroke-linecap:round;stroke-linejoin:round;stroke-opacity:1"
     d="M 1.5099854 1.282609 L 1.5099854 2.2778971 L 1.5099854 3.4178792 L 1.5099854 5.3402425 L 1.5099854 6.1122884 L 10.491866 6.1122884 L 10.491866 1.282609 L 1.5099854 1.282609 z M 9.9626994 1.3937134 L 10.153385 1.3937134 L 10.167855 1.3947469 L 10.174056 1.3973307 L 10.180257 1.3983643 L 10.193176 1.4050822 L 10.269141 1.4526245 L 10.276375 1.4577922 L 10.277926 1.4588257 L 10.279476 1.460376 L 10.281026 1.4614095 L 10.28206 1.4629598 L 10.288261 1.469161 L 10.325985 1.5172201 L 10.329085 1.5213542 L 10.330636 1.5229045 L 10.332186 1.526005 L 10.334253 1.5291056 L 10.33477 1.5311727 L 10.337354 1.5358236 L 10.375594 1.631425 L 10.379211 1.6438273 L 10.379211 1.6443441 L 10.379211 1.6448608 L 10.379728 1.6453776 L 10.379728 1.6458944 L 10.380762 1.6593302 L 10.380762 1.7544149 L 10.379728 1.767334 L 10.379728 1.7678507 L 10.379211 1.7683675 L 10.379211 1.7688843 L 10.379211 1.7699178 L 10.375594 1.7823201 L 10.337354 1.8774048 L 10.33477 1.8820557 L 10.334253 1.8841227 L 10.332186 1.8872233 L 10.330636 1.8903239 L 10.329085 1.8918742 L 10.325985 1.8965251 L 10.288261 1.9440674 L 10.28206 1.9502686 L 10.281026 1.9518188 L 10.279476 1.9528524 L 10.277926 1.9544027 L 10.276375 1.9554362 L 10.269141 1.9606038 L 10.193176 2.0081462 L 10.190076 2.0096965 L 10.189042 2.01073 L 10.184391 2.012797 L 10.180257 2.0148641 L 10.178707 2.0148641 L 10.175606 2.0164144 L 10.032463 2.0608561 L 9.9756185 2.0970296 L 9.9523641 2.1259684 L 9.9234253 2.1972819 L 9.9234253 2.2639445 L 9.9523641 2.335258 L 9.9756185 2.3641968 L 10.022644 2.3936523 L 10.17664 2.3936523 L 10.276892 2.3517944 L 10.290845 2.3476603 L 10.3203 2.3471436 L 10.347172 2.3585124 L 10.367843 2.3791829 L 10.379211 2.4060547 L 10.379211 2.4355103 L 10.368359 2.462382 L 10.347689 2.4830526 L 10.33477 2.4902873 L 10.220048 2.5378296 L 10.206095 2.5419637 L 10.191626 2.543514 L 10.00094 2.543514 L 9.9864705 2.5419637 L 9.9807861 2.5398966 L 9.974585 2.5388631 L 9.9611491 2.5321452 L 9.8851847 2.4846029 L 9.87795 2.4794352 L 9.8763997 2.4784017 L 9.8748494 2.4768514 L 9.8732992 2.4758179 L 9.8722656 2.4742676 L 9.8660645 2.4675496 L 9.8283407 2.4200073 L 9.8252401 2.4153564 L 9.8236898 2.4143229 L 9.8221395 2.4112223 L 9.8200724 2.4081217 L 9.8195557 2.4060547 L 9.8169718 2.4014038 L 9.779248 2.3058024 L 9.7756307 2.2934001 L 9.7751139 2.2928833 L 9.7751139 2.2923665 L 9.7751139 2.2918498 L 9.7751139 2.291333 L 9.7735636 2.2778971 L 9.7735636 2.1828125 L 9.7751139 2.1698934 L 9.7751139 2.1693766 L 9.7751139 2.1688599 L 9.7751139 2.1683431 L 9.7756307 2.1678263 L 9.779248 2.1549072 L 9.8169718 2.0598226 L 9.8195557 2.0546549 L 9.8200724 2.0531047 L 9.8221395 2.0500041 L 9.8236898 2.0469035 L 9.8252401 2.0453532 L 9.8283407 2.0407023 L 9.8660645 1.99316 L 9.8722656 1.9869588 L 9.8732992 1.9854085 L 9.8748494 1.9838582 L 9.8763997 1.9828247 L 9.87795 1.9817912 L 9.8851847 1.9766235 L 9.9611491 1.9285645 L 9.9642497 1.9275309 L 9.9652832 1.9264974 L 9.9699341 1.9244303 L 9.974585 1.9223633 L 9.9756185 1.9218465 L 9.9787191 1.920813 L 10.121863 1.8758545 L 10.179224 1.8401978 L 10.201961 1.811259 L 10.2309 1.7399455 L 10.2309 1.6732829 L 10.201961 1.6019694 L 10.179224 1.5730306 L 10.131681 1.543575 L 9.9776855 1.543575 L 9.8774333 1.5854329 L 9.8634806 1.5895671 L 9.8340251 1.5895671 L 9.8071533 1.578715 L 9.7864827 1.5580444 L 9.7751139 1.5311727 L 9.7751139 1.5017171 L 9.785966 1.4748454 L 9.8066366 1.4541748 L 9.8195557 1.4469401 L 9.9342773 1.3993978 L 9.94823 1.3952637 L 9.94823 1.3947469 L 9.9626994 1.3937134 z M 3.8147542 1.3947469 L 3.8442098 1.3947469 L 3.8710815 1.4061157 L 3.8917521 1.4267863 L 3.9031209 1.4541748 L 3.9046712 1.4686442 L 3.9046712 1.9445841 L 3.9046712 2.4685832 L 3.9031209 2.4830526 L 3.8917521 2.5104411 L 3.8710815 2.5311117 L 3.8442098 2.5419637 L 3.8147542 2.5419637 L 3.7878825 2.5311117 L 3.7672119 2.5104411 L 3.7558431 2.4830526 L 3.7548096 2.4685832 L 3.7548096 2.2313883 L 3.5889282 2.5073405 L 3.5801432 2.5192261 L 3.5568888 2.5362793 L 3.5284668 2.543514 L 3.499528 2.5393799 L 3.4742065 2.5243937 L 3.4571533 2.5006226 L 3.4499186 2.4722005 L 3.4540527 2.4432617 L 3.4602539 2.4298258 L 3.6623088 2.093929 L 3.4664551 1.8489827 L 3.4581868 1.8365804 L 3.4499186 1.8081584 L 3.453536 1.7792196 L 3.4674886 1.7533813 L 3.4902262 1.7352946 L 3.5186483 1.7270264 L 3.5475871 1.7306437 L 3.5729085 1.7445964 L 3.5832438 1.7549316 L 3.7548096 1.9688721 L 3.7548096 1.4686442 L 3.7558431 1.4541748 L 3.7672119 1.4267863 L 3.7878825 1.4061157 L 3.8147542 1.3947469 z M 4.9195964 1.3947469 L 4.9211466 1.3947469 L 4.9221802 1.3947469 L 4.935616 1.3947469 L 4.9490519 1.3947469 L 4.9500854 1.3957804 L 4.9516357 1.3957804 L 4.9635213 1.4009481 L 4.9759237 1.4061157 L 4.9769572 1.4071493 L 4.9779907 1.407666 L 4.9872925 1.4174845 L 4.9965942 1.4267863 L 4.997111 1.4283366 L 4.9981445 1.4293701 L 5.0043457 1.4422892 L 5.2012329 1.9683553 L 5.3976034 1.4422892 L 5.4038045 1.4293701 L 5.4048381 1.4283366 L 5.4053548 1.4267863 L 5.4146566 1.4174845 L 5.4239583 1.407666 L 5.4249919 1.4071493 L 5.4260254 1.4061157 L 5.4384277 1.4009481 L 5.4503133 1.3957804 L 5.4518636 1.3957804 L 5.4528971 1.3947469 L 5.466333 1.3947469 L 5.4797689 1.3947469 L 5.4808024 1.3947469 L 5.4823527 1.3947469 L 5.494755 1.4004313 L 5.5071574 1.4045654 L 5.5081909 1.405599 L 5.5092244 1.4061157 L 5.519043 1.4159342 L 5.5283447 1.4247192 L 5.5288615 1.4257528 L 5.529895 1.4267863 L 5.5350627 1.4391886 L 5.5407471 1.451591 L 5.5407471 1.4526245 L 5.5412638 1.4541748 L 5.5428141 1.4686442 L 5.5428141 1.9445841 L 5.5428141 2.4685832 L 5.5412638 2.4830526 L 5.529895 2.5104411 L 5.5092244 2.5311117 L 5.4823527 2.5419637 L 5.4528971 2.5419637 L 5.4260254 2.5311117 L 5.4053548 2.5104411 L 5.393986 2.4830526 L 5.3929525 2.4685832 L 5.3929525 1.8841227 L 5.2715129 2.2091675 L 5.2647949 2.2220866 L 5.2632446 2.2241536 L 5.2616943 2.2267375 L 5.2529093 2.2350057 L 5.2446411 2.2437907 L 5.2425741 2.2448242 L 5.240507 2.2468913 L 5.2291382 2.2510254 L 5.2182861 2.2556763 L 5.2157023 2.256193 L 5.2131185 2.2567098 L 5.2012329 2.2567098 L 5.1888306 2.2567098 L 5.1862467 2.256193 L 5.1836629 2.2556763 L 5.1728109 2.2510254 L 5.1614421 2.2468913 L 5.159375 2.2448242 L 5.1573079 2.2437907 L 5.1490397 2.2350057 L 5.1402547 2.2267375 L 5.1392212 2.2241536 L 5.1371541 2.2220866 L 5.130953 2.2091675 L 5.0095133 1.8841227 L 5.0095133 2.4685832 L 5.0079631 2.4830526 L 4.9965942 2.5104411 L 4.9759237 2.5311117 L 4.9490519 2.5419637 L 4.9195964 2.5419637 L 4.8927246 2.5311117 L 4.872054 2.5104411 L 4.8606852 2.4830526 L 4.8591349 2.4685832 L 4.8591349 1.4686442 L 4.8606852 1.4541748 L 4.861202 1.4526245 L 4.861202 1.451591 L 4.8668864 1.4391886 L 4.872054 1.4267863 L 4.8730876 1.4257528 L 4.8736043 1.4247192 L 4.8834229 1.4159342 L 4.8927246 1.4061157 L 4.8937581 1.405599 L 4.8947917 1.4045654 L 4.907194 1.3999146 L 4.9195964 1.3947469 z M 7.1675212 1.3947469 L 7.19646 1.3947469 L 7.2238485 1.4061157 L 7.244519 1.4267863 L 7.2553711 1.4541748 L 7.2569214 1.4686442 L 7.2569214 1.7874878 L 7.2569214 2.3259562 L 7.2558879 2.3388753 L 7.2558879 2.3393921 L 7.2553711 2.3399089 L 7.2553711 2.3404256 L 7.2553711 2.3409424 L 7.2517537 2.3533447 L 7.2135132 2.4489461 L 7.2124797 2.4510132 L 7.2119629 2.4520467 L 7.2114461 2.4530802 L 7.2067952 2.4618652 L 7.2005941 2.4680664 L 7.1954264 2.4758179 L 7.187675 2.4815023 L 7.1861247 2.4830526 L 7.1856079 2.4830526 L 7.1835409 2.4846029 L 7.1075765 2.5321452 L 7.0941406 2.5388631 L 7.0652018 2.543514 L 7.0367798 2.5367961 L 7.0130086 2.5197428 L 6.9975057 2.4954549 L 6.9928548 2.4665161 L 6.999056 2.4375773 L 7.0161092 2.4138062 L 7.0279948 2.4050212 L 7.0832886 2.3703979 L 7.1070597 2.3114868 L 7.1070597 1.4686442 L 7.10861 1.4541748 L 7.1194621 1.4267863 L 7.1401326 1.4061157 L 7.1675212 1.3947469 z M 7.6243408 1.3947469 L 7.6537964 1.3947469 L 7.6806681 1.4061157 L 7.7013387 1.4267863 L 7.7127075 1.4541748 L 7.7142578 1.4686442 L 7.7142578 1.7270264 L 7.7535319 1.7270264 L 7.7680013 1.7285767 L 7.794873 1.7394287 L 7.8155436 1.7600993 L 7.8269124 1.7874878 L 7.8269124 1.8164266 L 7.8155436 1.8438151 L 7.794873 1.8644857 L 7.7680013 1.8753377 L 7.7535319 1.876888 L 7.7142578 1.876888 L 7.7142578 2.3259562 L 7.7127075 2.3388753 L 7.7127075 2.3393921 L 7.7127075 2.3399089 L 7.7127075 2.3404256 L 7.7121908 2.3409424 L 7.7085734 2.3533447 L 7.6708496 2.4489461 L 7.6698161 2.4510132 L 7.6692993 2.4520467 L 7.6682658 2.4530802 L 7.6641317 2.4618652 L 7.6574137 2.4680664 L 7.6522461 2.4758179 L 7.6444946 2.4815023 L 7.6434611 2.4830526 L 7.6424276 2.4830526 L 7.6408773 2.4846029 L 7.5643962 2.5321452 L 7.5514771 2.5388631 L 7.5452759 2.5398966 L 7.5395915 2.5419637 L 7.5246053 2.543514 L 7.448641 2.543514 L 7.4341715 2.5419637 L 7.406783 2.5311117 L 7.3861125 2.5104411 L 7.3752604 2.4830526 L 7.3752604 2.4541138 L 7.3861125 2.4267253 L 7.406783 2.4060547 L 7.4341715 2.3952026 L 7.448641 2.3936523 L 7.503418 2.3936523 L 7.540625 2.3703979 L 7.5638794 2.3114868 L 7.5638794 1.876888 L 7.448641 1.876888 L 7.4341715 1.8753377 L 7.406783 1.8644857 L 7.3861125 1.8438151 L 7.3752604 1.8164266 L 7.3752604 1.7874878 L 7.3861125 1.7600993 L 7.406783 1.7394287 L 7.4341715 1.7285767 L 7.448641 1.7270264 L 7.5638794 1.7270264 L 7.5638794 1.4686442 L 7.5654297 1.4541748 L 7.5767985 1.4267863 L 7.5974691 1.4061157 L 7.6243408 1.3947469 z M 8.0816772 1.3947469 L 8.1111328 1.3947469 L 8.1380046 1.4061157 L 8.1586751 1.4267863 L 8.1700439 1.4541748 L 8.1710775 1.4686442 L 8.1710775 1.7270264 L 8.2103516 1.7270264 L 8.2253377 1.7285767 L 8.2522095 1.7394287 L 8.27288 1.7600993 L 8.2842489 1.7874878 L 8.2842489 1.8164266 L 8.27288 1.8438151 L 8.2522095 1.8644857 L 8.2253377 1.8753377 L 8.2103516 1.876888 L 8.1710775 1.876888 L 8.1710775 1.9445841 L 8.1710775 2.3259562 L 8.1700439 2.3388753 L 8.1700439 2.3393921 L 8.1700439 2.3399089 L 8.1700439 2.3404256 L 8.1695272 2.3409424 L 8.1659098 2.3533447 L 8.1276693 2.4489461 L 8.1266357 2.4510132 L 8.1266357 2.4520467 L 8.1256022 2.4530802 L 8.1209513 2.4618652 L 8.1147502 2.4680664 L 8.1095825 2.4758179 L 8.1018311 2.4815023 L 8.1007975 2.4830526 L 8.099764 2.4830526 L 8.0976969 2.4846029 L 8.0217326 2.5321452 L 8.0082967 2.5388631 L 8.0026123 2.5398966 L 7.9964111 2.5419637 L 7.9819417 2.543514 L 7.9059774 2.543514 L 7.8909912 2.5419637 L 7.8641195 2.5311117 L 7.8434489 2.5104411 L 7.8320801 2.4830526 L 7.8320801 2.4541138 L 7.8434489 2.4267253 L 7.8641195 2.4060547 L 7.8909912 2.3952026 L 7.9059774 2.3936523 L 7.9602376 2.3936523 L 7.9974447 2.3703979 L 8.0212158 2.3114868 L 8.0212158 1.876888 L 7.9059774 1.876888 L 7.8909912 1.8753377 L 7.8641195 1.8644857 L 7.8434489 1.8438151 L 7.8320801 1.8164266 L 7.8320801 1.7874878 L 7.8434489 1.7600993 L 7.8641195 1.7394287 L 7.8909912 1.7285767 L 7.9059774 1.7270264 L 8.0212158 1.7270264 L 8.0212158 1.4686442 L 8.0227661 1.4541748 L 8.0341349 1.4267863 L 8.0548055 1.4061157 L 8.0816772 1.3947469 z M 1.8107422 1.7270264 L 1.9249471 1.7270264 L 1.9394165 1.7285767 L 1.9451009 1.7306437 L 1.9513021 1.7316772 L 1.964738 1.7383952 L 2.0407023 1.7859375 L 2.0422526 1.7874878 L 2.0432861 1.7874878 L 2.0448364 1.7890381 L 2.0525879 1.7947225 L 2.0577555 1.8019572 L 2.0639567 1.8086751 L 2.0686076 1.8174601 L 2.0696411 1.8190104 L 2.0696411 1.8195272 L 2.0706746 1.8215942 L 2.1089152 1.9166789 L 2.1125326 1.929598 L 2.1125326 1.9301147 L 2.1125326 1.9306315 L 2.1130493 1.9311483 L 2.1130493 1.931665 L 2.1140828 1.9445841 L 2.1140828 1.9926432 L 2.1130493 2.0055623 L 2.1130493 2.0060791 L 2.1125326 2.0065959 L 2.1125326 2.0071126 L 2.1125326 2.0076294 L 2.1089152 2.0205485 L 2.0706746 2.1156331 L 2.0696411 2.1177002 L 2.0696411 2.118217 L 2.0686076 2.1197673 L 2.0639567 2.1285522 L 2.0577555 2.1347534 L 2.0525879 2.1425049 L 2.0448364 2.1481893 L 2.0432861 2.1497396 L 2.0422526 2.1497396 L 2.0407023 2.1512899 L 1.964738 2.1988322 L 1.9513021 2.2055501 L 1.9451009 2.2065837 L 1.9394165 2.2086507 L 1.9249471 2.210201 L 1.8319295 2.210201 L 1.7947225 2.2334554 L 1.7709513 2.2923665 L 1.7709513 2.3114868 L 1.7947225 2.3703979 L 1.8319295 2.3936523 L 1.9414836 2.3936523 L 1.9993612 2.3574788 L 2.0122803 2.3507609 L 2.0412191 2.34611 L 2.0701579 2.352828 L 2.093929 2.3693644 L 2.109432 2.3941691 L 2.1140828 2.4231079 L 2.1073649 2.4520467 L 2.0903117 2.4758179 L 2.0789429 2.4846029 L 2.0024618 2.5321452 L 1.9895426 2.5388631 L 1.9833415 2.5398966 L 1.9776571 2.5419637 L 1.9626709 2.543514 L 1.8107422 2.543514 L 1.795756 2.5419637 L 1.7900716 2.5398966 L 1.7838704 2.5388631 L 1.7709513 2.5321452 L 1.6944702 2.4846029 L 1.6929199 2.4830526 L 1.6918864 2.4830526 L 1.6908529 2.4815023 L 1.6831014 2.4758179 L 1.6779338 2.4680664 L 1.6717326 2.4618652 L 1.6670817 2.4530802 L 1.6660482 2.4520467 L 1.6655314 2.4510132 L 1.6644979 2.4489461 L 1.6267741 2.3533447 L 1.6231567 2.3409424 L 1.62264 2.3404256 L 1.62264 2.3399089 L 1.62264 2.3393921 L 1.62264 2.3388753 L 1.6210897 2.3259562 L 1.6210897 2.2778971 L 1.62264 2.264978 L 1.62264 2.2644613 L 1.62264 2.2639445 L 1.62264 2.2634277 L 1.6231567 2.262911 L 1.6267741 2.2505086 L 1.6644979 2.1549072 L 1.6655314 2.1533569 L 1.6660482 2.1523234 L 1.6670817 2.1507731 L 1.6717326 2.1419881 L 1.6779338 2.1357869 L 1.6831014 2.1285522 L 1.6908529 2.1223511 L 1.6918864 2.1208008 L 1.6929199 2.1208008 L 1.6944702 2.1192505 L 1.7709513 2.0717082 L 1.7838704 2.0649902 L 1.7900716 2.0639567 L 1.795756 2.0618896 L 1.8107422 2.0603394 L 1.903243 2.0603394 L 1.94045 2.037085 L 1.9642212 1.9781738 L 1.9642212 1.9590535 L 1.94045 1.9001424 L 1.903243 1.876888 L 1.8319295 1.876888 L 1.7740519 1.9130615 L 1.7611328 1.9197795 L 1.732194 1.9244303 L 1.7032552 1.9177124 L 1.679484 1.9011759 L 1.6639811 1.8758545 L 1.6593302 1.8474325 L 1.6660482 1.8190104 L 1.6831014 1.7947225 L 1.6944702 1.7859375 L 1.7709513 1.7383952 L 1.7838704 1.7316772 L 1.7900716 1.7306437 L 1.795756 1.7285767 L 1.8107422 1.7270264 z M 2.2675618 1.7270264 L 2.344043 1.7270264 L 2.3585124 1.7285767 L 2.3641968 1.7306437 L 2.3703979 1.7316772 L 2.3838338 1.7383952 L 2.4308594 1.7678507 L 2.43396 1.7600993 L 2.4546305 1.7394287 L 2.4815023 1.7285767 L 2.5109578 1.7285767 L 2.5378296 1.7394287 L 2.5585002 1.7600993 L 2.569869 1.7874878 L 2.5714193 1.8019572 L 2.5714193 1.9445841 L 2.5714193 2.4685832 L 2.569869 2.4830526 L 2.5585002 2.5104411 L 2.5378296 2.5311117 L 2.5109578 2.5419637 L 2.4815023 2.5419637 L 2.4546305 2.5311117 L 2.43396 2.5104411 L 2.4225911 2.4830526 L 2.4210409 2.4685832 L 2.4210409 2.0071126 L 2.3926188 1.9352824 L 2.3693644 1.9063436 L 2.3223389 1.876888 L 2.2675618 1.876888 L 2.2530924 1.8753377 L 2.2262207 1.8644857 L 2.2055501 1.8438151 L 2.1941813 1.8164266 L 2.1941813 1.7874878 L 2.2055501 1.7600993 L 2.2262207 1.7394287 L 2.2530924 1.7285767 L 2.2675618 1.7270264 z M 2.9533081 1.7270264 L 3.1057536 1.7270264 L 3.120223 1.7285767 L 3.1264242 1.7306437 L 3.1321086 1.7316772 L 3.1455444 1.7383952 L 3.2215088 1.7859375 L 3.2235758 1.7874878 L 3.2246094 1.7874878 L 3.2256429 1.7890381 L 3.2333944 1.7947225 L 3.238562 1.8019572 L 3.2447632 1.8086751 L 3.2494141 1.8174601 L 3.2504476 1.8190104 L 3.2504476 1.8195272 L 3.2514811 1.8215942 L 3.2897217 1.9166789 L 3.293339 1.929598 L 3.2938558 1.9301147 L 3.2938558 1.9306315 L 3.2938558 1.9311483 L 3.2938558 1.931665 L 3.2948893 1.9445841 L 3.2948893 2.3259562 L 3.2938558 2.3388753 L 3.2938558 2.3393921 L 3.2938558 2.3399089 L 3.2938558 2.3404256 L 3.293339 2.3409424 L 3.2897217 2.3533447 L 3.2514811 2.4489461 L 3.2504476 2.4510132 L 3.2504476 2.4520467 L 3.2494141 2.4530802 L 3.2447632 2.4618652 L 3.238562 2.4680664 L 3.2354614 2.4722005 L 3.2333944 2.4758179 L 3.2256429 2.4815023 L 3.2246094 2.4830526 L 3.2235758 2.4830526 L 3.2215088 2.4846029 L 3.1455444 2.5321452 L 3.1321086 2.5388631 L 3.1264242 2.5398966 L 3.120223 2.5419637 L 3.1057536 2.543514 L 2.9533081 2.543514 L 2.9388387 2.5419637 L 2.9331543 2.5398966 L 2.9269531 2.5388631 L 2.9135173 2.5321452 L 2.8375529 2.4846029 L 2.8256673 2.4758179 L 2.8086141 2.4520467 L 2.8024129 2.4231079 L 2.8070638 2.3941691 L 2.8225667 2.3693644 L 2.8463379 2.352828 L 2.8747599 2.34611 L 2.9036987 2.3507609 L 2.9171346 2.3574788 L 2.9750122 2.3936523 L 3.0840495 2.3936523 L 3.1212565 2.3703979 L 3.1450277 2.3114868 L 3.1450277 2.1936646 L 2.8210164 2.1130493 L 2.8070638 2.1078817 L 2.8024129 2.1042643 L 2.7972453 2.1021973 L 2.7910441 2.0959961 L 2.7832926 2.0903117 L 2.7807088 2.0856608 L 2.7765747 2.0815267 L 2.7729574 2.0732585 L 2.7683065 2.065507 L 2.7677897 2.0598226 L 2.7657227 2.0546549 L 2.7641724 2.0401855 L 2.7641724 1.9445841 L 2.7652059 1.931665 L 2.7652059 1.9311483 L 2.7657227 1.9306315 L 2.7657227 1.9301147 L 2.7657227 1.929598 L 2.76934 1.9166789 L 2.8075806 1.8215942 L 2.8086141 1.8195272 L 2.8086141 1.8190104 L 2.8096476 1.8174601 L 2.8142985 1.8086751 L 2.8204997 1.8019572 L 2.8256673 1.7947225 L 2.8334188 1.7890381 L 2.8349691 1.7874878 L 2.8354858 1.7874878 L 2.8375529 1.7859375 L 2.9135173 1.7383952 L 2.9269531 1.7316772 L 2.9331543 1.7306437 L 2.9388387 1.7285767 L 2.9533081 1.7270264 z M 4.3248006 1.7270264 L 4.4772461 1.7270264 L 4.4917155 1.7285767 L 4.4973999 1.7306437 L 4.5036011 1.7316772 L 4.5170369 1.7383952 L 4.5930013 1.7859375 L 4.6048869 1.7947225 L 4.6219401 1.8190104 L 4.6281413 1.8474325 L 4.6234904 1.8758545 L 4.6079875 1.9011759 L 4.5842163 1.9177124 L 4.5557943 1.9244303 L 4.5268555 1.9197795 L 4.5134196 1.9130615 L 4.455542 1.876888 L 4.3465047 1.876888 L 4.3092977 1.9001424 L 4.2855265 1.9590535 L 4.2855265 1.9983276 L 4.3082642 2.012797 L 4.4772461 2.012797 L 4.4917155 2.0143473 L 4.4973999 2.0164144 L 4.5036011 2.0174479 L 4.5170369 2.0241659 L 4.5930013 2.0717082 L 4.5950684 2.0727417 L 4.5955851 2.0732585 L 4.5971354 2.0748088 L 4.6048869 2.0804932 L 4.6100545 2.0877279 L 4.6162557 2.0944458 L 4.6209066 2.1032308 L 4.6219401 2.1042643 L 4.6219401 2.1052979 L 4.6229736 2.1073649 L 4.6612142 2.2024495 L 4.6648315 2.2153687 L 4.6648315 2.2158854 L 4.6653483 2.2164022 L 4.6653483 2.2169189 L 4.6653483 2.2174357 L 4.6663818 2.2303548 L 4.6663818 2.3259562 L 4.6653483 2.3388753 L 4.6653483 2.3393921 L 4.6653483 2.3399089 L 4.6648315 2.3404256 L 4.6648315 2.3409424 L 4.6612142 2.3533447 L 4.6229736 2.4489461 L 4.6219401 2.4510132 L 4.6219401 2.4520467 L 4.6209066 2.4530802 L 4.6162557 2.4618652 L 4.6100545 2.4680664 L 4.6048869 2.4758179 L 4.5971354 2.4815023 L 4.5955851 2.4830526 L 4.5950684 2.4830526 L 4.5930013 2.4846029 L 4.5170369 2.5321452 L 4.5036011 2.5388631 L 4.4973999 2.5398966 L 4.4917155 2.5419637 L 4.4772461 2.543514 L 4.2865601 2.543514 L 4.2720907 2.5419637 L 4.2664062 2.5398966 L 4.2602051 2.5388631 L 4.2478027 2.5326619 L 4.2250651 2.5419637 L 4.1961263 2.5419637 L 4.1687378 2.5311117 L 4.1480672 2.5104411 L 4.1372152 2.4830526 L 4.1356649 2.4685832 L 4.1356649 1.9445841 L 4.1366984 1.931665 L 4.1366984 1.9311483 L 4.1366984 1.9306315 L 4.1372152 1.9301147 L 4.1372152 1.929598 L 4.1408325 1.9166789 L 4.1790731 1.8215942 L 4.1801066 1.8195272 L 4.1801066 1.8190104 L 4.1811401 1.8174601 L 4.185791 1.8086751 L 4.1919922 1.8019572 L 4.1971598 1.7947225 L 4.2049113 1.7890381 L 4.2059448 1.7874878 L 4.2069784 1.7874878 L 4.2090454 1.7859375 L 4.2850098 1.7383952 L 4.2984456 1.7316772 L 4.3046468 1.7306437 L 4.3103312 1.7285767 L 4.3248006 1.7270264 z M 6.5344849 1.7270264 L 6.6869303 1.7270264 L 6.7013997 1.7285767 L 6.7070841 1.7306437 L 6.7132853 1.7316772 L 6.7267212 1.7383952 L 6.8026855 1.7859375 L 6.8042358 1.7874878 L 6.8052694 1.7874878 L 6.8063029 1.7890381 L 6.8140544 1.7947225 L 6.8197388 1.8019572 L 6.8259399 1.8086751 L 6.8300741 1.8174601 L 6.8311076 1.8190104 L 6.8316243 1.8195272 L 6.8326579 1.8215942 L 6.8703817 1.9166789 L 6.8745158 1.929598 L 6.8745158 1.9301147 L 6.8745158 1.9306315 L 6.8745158 1.9311483 L 6.8745158 1.931665 L 6.8760661 1.9445841 L 6.8760661 2.3259562 L 6.8745158 2.3388753 L 6.8745158 2.3393921 L 6.8745158 2.3399089 L 6.8745158 2.3404256 L 6.8745158 2.3409424 L 6.8703817 2.3533447 L 6.8326579 2.4489461 L 6.8316243 2.4510132 L 6.8311076 2.4520467 L 6.8300741 2.4530802 L 6.8259399 2.4618652 L 6.8212891 2.4665161 L 6.8197388 2.4680664 L 6.8140544 2.4758179 L 6.8063029 2.4815023 L 6.8052694 2.4830526 L 6.8042358 2.4830526 L 6.8026855 2.4846029 L 6.7267212 2.5321452 L 6.7132853 2.5388631 L 6.7070841 2.5398966 L 6.7013997 2.5419637 L 6.6869303 2.543514 L 6.5344849 2.543514 L 6.5194987 2.5419637 L 6.5138143 2.5398966 L 6.5076131 2.5388631 L 6.494694 2.5321452 L 6.4182129 2.4846029 L 6.4068441 2.4758179 L 6.3897909 2.4520467 L 6.3830729 2.4231079 L 6.3882406 2.3941691 L 6.4037435 2.3693644 L 6.4275146 2.352828 L 6.4559367 2.34611 L 6.4848755 2.3507609 L 6.4977946 2.3574788 L 6.5556722 2.3936523 L 6.6652262 2.3936523 L 6.7024333 2.3703979 L 6.7262044 2.3114868 L 6.7262044 2.1936646 L 6.4016764 2.1130493 L 6.3882406 2.1078817 L 6.3835897 2.1042643 L 6.378422 2.1021973 L 6.3717041 2.0959961 L 6.3644694 2.0903117 L 6.3613688 2.0856608 L 6.3577515 2.0815267 L 6.3541341 2.0732585 L 6.3494832 2.065507 L 6.3484497 2.0598226 L 6.3463826 2.0546549 L 6.3448324 2.0401855 L 6.3448324 1.9445841 L 6.3463826 1.931665 L 6.3463826 1.9311483 L 6.3463826 1.9306315 L 6.3463826 1.9301147 L 6.3468994 1.929598 L 6.3505168 1.9166789 L 6.3887573 1.8215942 L 6.3892741 1.8195272 L 6.3897909 1.8190104 L 6.3908244 1.8174601 L 6.3954753 1.8086751 L 6.4016764 1.8019572 L 6.4068441 1.7947225 L 6.4145955 1.7890381 L 6.4156291 1.7874878 L 6.4166626 1.7874878 L 6.4182129 1.7859375 L 6.494694 1.7383952 L 6.5076131 1.7316772 L 6.5138143 1.7306437 L 6.5194987 1.7285767 L 6.5344849 1.7270264 z M 8.5917236 1.7270264 L 8.7436523 1.7270264 L 8.7586385 1.7285767 L 8.7643229 1.7306437 L 8.7705241 1.7316772 L 8.7834432 1.7383952 L 8.8599243 1.7859375 L 8.8712931 1.7947225 L 8.8883464 1.8190104 L 8.8950643 1.8474325 L 8.8904134 1.8758545 L 8.8749105 1.9011759 L 8.8506226 1.9177124 L 8.8222005 1.9244303 L 8.7932617 1.9197795 L 8.7803426 1.9130615 L 8.722465 1.876888 L 8.612911 1.876888 L 8.5757039 1.9001424 L 8.558134 1.9445841 L 8.5524495 1.9590535 L 8.5524495 1.9983276 L 8.5746704 2.012797 L 8.7436523 2.012797 L 8.7586385 2.0143473 L 8.7643229 2.0164144 L 8.7705241 2.0174479 L 8.7834432 2.0241659 L 8.8599243 2.0717082 L 8.8614746 2.0727417 L 8.8625081 2.0732585 L 8.8635417 2.0748088 L 8.8712931 2.0804932 L 8.8764608 2.0877279 L 8.8826619 2.0944458 L 8.8873128 2.1032308 L 8.8883464 2.1042643 L 8.8888631 2.1052979 L 8.8898966 2.1073649 L 8.9276204 2.2024495 L 8.9312378 2.2153687 L 8.9317546 2.2158854 L 8.9317546 2.2164022 L 8.9317546 2.2169189 L 8.9317546 2.2174357 L 8.9333049 2.2303548 L 8.9333049 2.3259562 L 8.9317546 2.3388753 L 8.9317546 2.3393921 L 8.9317546 2.3399089 L 8.9317546 2.3404256 L 8.9312378 2.3409424 L 8.9276204 2.3533447 L 8.8898966 2.4489461 L 8.8888631 2.4510132 L 8.8883464 2.4520467 L 8.8873128 2.4530802 L 8.8826619 2.4618652 L 8.8764608 2.4680664 L 8.8712931 2.4758179 L 8.8635417 2.4815023 L 8.8625081 2.4830526 L 8.8614746 2.4830526 L 8.8599243 2.4846029 L 8.7834432 2.5321452 L 8.7705241 2.5388631 L 8.7643229 2.5398966 L 8.7586385 2.5419637 L 8.7436523 2.543514 L 8.5534831 2.543514 L 8.5384969 2.5419637 L 8.5328125 2.5398966 L 8.5266113 2.5388631 L 8.5147257 2.5326619 L 8.4919881 2.5419637 L 8.4625326 2.5419637 L 8.4356608 2.5311117 L 8.4149902 2.5104411 L 8.4036214 2.4830526 L 8.4020711 2.4685832 L 8.4020711 1.9445841 L 8.4036214 1.931665 L 8.4036214 1.9311483 L 8.4036214 1.9306315 L 8.4036214 1.9301147 L 8.4041382 1.929598 L 8.4077555 1.9166789 L 8.4454793 1.8215942 L 8.4465129 1.8195272 L 8.4470296 1.8190104 L 8.4480632 1.8174601 L 8.4521973 1.8086751 L 8.4589152 1.8019572 L 8.4640828 1.7947225 L 8.4718343 1.7890381 L 8.4728678 1.7874878 L 8.4739014 1.7874878 L 8.4754517 1.7859375 L 8.5519328 1.7383952 L 8.5648519 1.7316772 L 8.5710531 1.7306437 L 8.5767375 1.7285767 L 8.5917236 1.7270264 z M 9.2769531 1.7270264 L 9.4293986 1.7270264 L 9.4443848 1.7285767 L 9.4500692 1.7306437 L 9.4562703 1.7316772 L 9.4691895 1.7383952 L 9.5456706 1.7859375 L 9.5472209 1.7874878 L 9.5482544 1.7874878 L 9.5492879 1.7890381 L 9.5570394 1.7947225 L 9.562207 1.8019572 L 9.5684082 1.8086751 L 9.5730591 1.8174601 L 9.5740926 1.8190104 L 9.5746094 1.8195272 L 9.5756429 1.8215942 L 9.6133667 1.9166789 L 9.616984 1.929598 L 9.6175008 1.9301147 L 9.6175008 1.9306315 L 9.6175008 1.9311483 L 9.6175008 1.931665 L 9.6190511 1.9445841 L 9.6190511 2.1828125 L 9.6190511 2.3259562 L 9.6175008 2.3388753 L 9.6175008 2.3393921 L 9.6175008 2.3399089 L 9.6175008 2.3404256 L 9.616984 2.3409424 L 9.6133667 2.3533447 L 9.5756429 2.4489461 L 9.5746094 2.4510132 L 9.5740926 2.4520467 L 9.5730591 2.4530802 L 9.5684082 2.4618652 L 9.562207 2.4680664 L 9.5570394 2.4758179 L 9.5492879 2.4815023 L 9.5482544 2.4830526 L 9.5472209 2.4830526 L 9.5456706 2.4846029 L 9.4691895 2.5321452 L 9.4562703 2.5388631 L 9.4500692 2.5398966 L 9.4443848 2.5419637 L 9.4293986 2.543514 L 9.2769531 2.543514 L 9.2624837 2.5419637 L 9.2567993 2.5398966 L 9.2505981 2.5388631 L 9.2371623 2.5321452 L 9.1611979 2.4846029 L 9.1498291 2.4758179 L 9.1327759 2.4520467 L 9.1260579 2.4231079 L 9.1307088 2.3941691 L 9.1462118 2.3693644 L 9.1699829 2.352828 L 9.1989217 2.34611 L 9.2273437 2.3507609 L 9.2407796 2.3574788 L 9.2986572 2.3936523 L 9.4082113 2.3936523 L 9.4454183 2.3703979 L 9.4686727 2.3114868 L 9.4686727 2.1936646 L 9.1446615 2.1130493 L 9.1307088 2.1078817 L 9.1265747 2.1042643 L 9.1214071 2.1021973 L 9.1146891 2.0959961 L 9.1074544 2.0903117 L 9.1043538 2.0856608 L 9.1007365 2.0815267 L 9.0971191 2.0732585 L 9.0924683 2.065507 L 9.0914347 2.0598226 L 9.0893677 2.0546549 L 9.0878174 2.0401855 L 9.0878174 1.9445841 L 9.0893677 1.931665 L 9.0893677 1.9311483 L 9.0893677 1.9306315 L 9.0893677 1.9301147 L 9.0893677 1.929598 L 9.0935018 1.9166789 L 9.1312256 1.8215942 L 9.1322591 1.8195272 L 9.1327759 1.8190104 L 9.1338094 1.8174601 L 9.1379435 1.8086751 L 9.1441447 1.8019572 L 9.1498291 1.7947225 L 9.1575806 1.7890381 L 9.1586141 1.7874878 L 9.1596476 1.7874878 L 9.1611979 1.7859375 L 9.2371623 1.7383952 L 9.2505981 1.7316772 L 9.2567993 1.7306437 L 9.2624837 1.7285767 L 9.2769531 1.7270264 z M 2.9750122 1.876888 L 2.9378052 1.9001424 L 2.914034 1.9590535 L 2.914034 1.9812744 L 3.1450277 2.039152 L 3.1450277 1.9590535 L 3.1212565 1.9001424 L 3.0840495 1.876888 L 2.9750122 1.876888 z M 6.5556722 1.876888 L 6.5184652 1.9001424 L 6.4952108 1.9590535 L 6.4952108 1.9812744 L 6.7262044 2.039152 L 6.7262044 1.9590535 L 6.7024333 1.9001424 L 6.6652262 1.876888 L 6.5556722 1.876888 z M 9.2986572 1.876888 L 9.2614502 1.9001424 L 9.237679 1.9590535 L 9.237679 1.9812744 L 9.4686727 2.039152 L 9.4686727 1.9590535 L 9.4454183 1.9001424 L 9.4082113 1.876888 L 9.2986572 1.876888 z M 4.2855265 2.1626587 L 4.2855265 2.3791829 L 4.3082642 2.3936523 L 4.455542 2.3936523 L 4.492749 2.3703979 L 4.5165202 2.3114868 L 4.5165202 2.2448242 L 4.492749 2.1859131 L 4.455542 2.1626587 L 4.2865601 2.1626587 L 4.2855265 2.1626587 z M 8.5524495 2.1626587 L 8.5524495 2.3791829 L 8.5746704 2.3936523 L 8.722465 2.3936523 L 8.759672 2.3703979 L 8.7829264 2.3114868 L 8.7829264 2.2448242 L 8.759672 2.1859131 L 8.722465 2.1626587 L 8.5534831 2.1626587 L 8.5524495 2.1626587 z M 5.1821126 3.0034342 L 5.3722819 3.0034342 L 5.3872681 3.0049845 L 5.4141398 3.0163534 L 5.4348104 3.0370239 L 5.4461792 3.0638957 L 5.4472127 3.0783651 L 5.4472127 3.744991 L 5.4472127 4.078304 L 5.4461792 4.0932902 L 5.4348104 4.1201619 L 5.4141398 4.1408325 L 5.3872681 4.1522013 L 5.3722819 4.1537516 L 5.1821126 4.1537516 L 5.1671265 4.1522013 L 5.1531738 4.1475505 L 5.0389689 4.1000081 L 5.0260498 4.0932902 L 5.0229492 4.0901896 L 5.0193319 4.0881226 L 5.0089966 4.0777873 L 4.9330322 3.9827026 L 4.9299316 3.9780518 L 4.9283813 3.9765015 L 4.9268311 3.9734009 L 4.924764 3.9703003 L 4.9242472 3.9682332 L 4.9216634 3.9635824 L 4.8839396 3.8684977 L 4.8818726 3.8617798 L 4.8798055 3.8550618 L 4.8415649 3.6648926 L 4.8415649 3.6643758 L 4.8410482 3.6571411 L 4.8405314 3.6499064 L 4.8405314 3.5072795 L 4.8405314 3.5067627 L 4.8410482 3.5000448 L 4.8415649 3.4922933 L 4.8798055 3.302124 L 4.8818726 3.2954061 L 4.8839396 3.2886882 L 4.9216634 3.1936035 L 4.9242472 3.1889526 L 4.924764 3.1868856 L 4.9268311 3.183785 L 4.9283813 3.1806844 L 4.9299316 3.1791341 L 4.9330322 3.1744832 L 5.0089966 3.0793986 L 5.0193319 3.0685465 L 5.0229492 3.0669963 L 5.0260498 3.0638957 L 5.0389689 3.056661 L 5.1531738 3.0091187 L 5.1671265 3.0049845 L 5.1821126 3.0034342 z M 6.5153646 3.0034342 L 6.782015 3.0034342 L 6.7964844 3.0049845 L 6.8233561 3.0163534 L 6.8445435 3.0370239 L 6.8553955 3.0638957 L 6.8569458 3.0783651 L 6.8569458 3.1672485 L 6.8569458 4.078304 L 6.8553955 4.0932902 L 6.8445435 4.1201619 L 6.8233561 4.1408325 L 6.7964844 4.1522013 L 6.782015 4.1537516 L 6.477124 4.1537516 L 6.4626546 4.1522013 L 6.4569702 4.1496175 L 6.450769 4.148584 L 6.4373332 4.141866 L 6.3613688 4.0943237 L 6.3546509 4.0891561 L 6.3525838 4.0881226 L 6.3510335 4.0865723 L 6.3494832 4.0855387 L 6.3484497 4.0839884 L 6.3422485 4.0777873 L 6.3045247 4.030245 L 6.3014242 4.0255941 L 6.2998739 4.0240438 L 6.2983236 4.0209432 L 6.2962565 4.0178426 L 6.2957397 4.0162923 L 6.2931559 4.0111247 L 6.2554321 3.91604 L 6.251298 3.9036377 L 6.251298 3.9026042 L 6.251298 3.9020874 L 6.251298 3.9015706 L 6.251298 3.9010539 L 6.2497477 3.8881348 L 6.2497477 3.744991 L 6.251298 3.7320719 L 6.251298 3.7315552 L 6.251298 3.7310384 L 6.251298 3.7305216 L 6.251298 3.7300049 L 6.2554321 3.7176025 L 6.2931559 3.6220011 L 6.2957397 3.6173503 L 6.2962565 3.6152832 L 6.2983236 3.6121826 L 6.2998739 3.609082 L 6.3014242 3.6075317 L 6.3045247 3.6028809 L 6.3422485 3.5553385 L 6.3525838 3.5450033 L 6.3562012 3.5429362 L 6.3593018 3.5403524 L 6.3665365 3.5362183 L 6.3422485 3.5062459 L 6.3391479 3.5015951 L 6.3381144 3.5005615 L 6.3365641 3.4969442 L 6.3344971 3.4938436 L 6.3339803 3.4922933 L 6.3313965 3.4876424 L 6.2931559 3.392041 L 6.2895386 3.3796387 L 6.2895386 3.3791219 L 6.2895386 3.3786051 L 6.2890218 3.3780884 L 6.2890218 3.3770549 L 6.2879883 3.3641357 L 6.2879883 3.2690511 L 6.2890218 3.256132 L 6.2890218 3.2550985 L 6.2895386 3.2545817 L 6.2895386 3.2535482 L 6.2931559 3.2411458 L 6.3313965 3.1460612 L 6.3339803 3.1408936 L 6.3344971 3.1393433 L 6.3365641 3.1362427 L 6.3381144 3.1331421 L 6.3391479 3.1315918 L 6.3422485 3.1269409 L 6.3804891 3.0793986 L 6.3866903 3.0731974 L 6.3877238 3.0716471 L 6.3892741 3.0700968 L 6.3908244 3.0685465 L 6.3923747 3.0680298 L 6.3990926 3.0623454 L 6.4755737 3.0148031 L 6.4884928 3.0086019 L 6.494694 3.0075684 L 6.5008952 3.0049845 L 6.5153646 3.0034342 z M 7.2770752 3.0034342 L 7.3535563 3.0034342 L 7.3680257 3.0049845 L 7.3819784 3.0091187 L 7.4967 3.056661 L 7.5096191 3.0638957 L 7.512203 3.0669963 L 7.5158203 3.0685465 L 7.5261556 3.0793986 L 7.6026367 3.1744832 L 7.6052205 3.1791341 L 7.6067708 3.1806844 L 7.6083211 3.183785 L 7.6103882 3.1868856 L 7.6109049 3.1889526 L 7.6134888 3.1936035 L 7.6434611 3.2690511 L 7.6517293 3.2886882 L 7.6532796 3.2954061 L 7.6553467 3.302124 L 7.6935872 3.4922933 L 7.694104 3.5000448 L 7.6951375 3.5067627 L 7.6951375 3.5072795 L 7.6951375 3.6499064 L 7.694104 3.6571411 L 7.6935872 3.6643758 L 7.6935872 3.6648926 L 7.6553467 3.8550618 L 7.6532796 3.8617798 L 7.6517293 3.8684977 L 7.6134888 3.9635824 L 7.6109049 3.9682332 L 7.6103882 3.9703003 L 7.6083211 3.9734009 L 7.6067708 3.9765015 L 7.6052205 3.9780518 L 7.6026367 3.9827026 L 7.5261556 4.0777873 L 7.5158203 4.0881226 L 7.512203 4.0901896 L 7.5096191 4.0932902 L 7.4967 4.1000081 L 7.3819784 4.1475505 L 7.3680257 4.1522013 L 7.3535563 4.1537516 L 7.2770752 4.1537516 L 7.2626058 4.1522013 L 7.2481364 4.1475505 L 7.1339315 4.1000081 L 7.1210124 4.0932902 L 7.1184285 4.0901896 L 7.1148112 4.0881226 L 7.1044759 4.0777873 L 7.0662354 4.030245 L 7.0579671 4.0178426 L 7.0502157 3.9899373 L 7.0533162 3.9604818 L 7.0672689 3.9351603 L 7.0905233 3.9165568 L 7.1184285 3.9088053 L 7.1473674 3.9119059 L 7.1732056 3.9258586 L 7.1835409 3.9367106 L 7.2093791 3.9692668 L 7.2920614 4.0033732 L 7.3385701 4.0033732 L 7.4212524 3.9692668 L 7.4780965 3.8974365 L 7.5096191 3.8188883 L 7.5447591 3.6426717 L 7.5447591 3.5145142 L 7.5096191 3.3382975 L 7.4780965 3.2597493 L 7.4212524 3.1879191 L 7.3385701 3.1538127 L 7.2920614 3.1538127 L 7.2093791 3.1879191 L 7.1835409 3.2204753 L 7.1732056 3.2313273 L 7.1473674 3.2452799 L 7.1184285 3.2483805 L 7.0905233 3.2406291 L 7.0672689 3.2220256 L 7.0533162 3.1967041 L 7.0502157 3.1672485 L 7.0579671 3.1393433 L 7.0662354 3.1269409 L 7.1044759 3.0793986 L 7.1148112 3.0685465 L 7.1184285 3.0669963 L 7.1210124 3.0638957 L 7.1339315 3.056661 L 7.2481364 3.0091187 L 7.2626058 3.0049845 L 7.2770752 3.0034342 z M 8.0770264 3.0034342 L 8.3819173 3.0034342 L 8.3963867 3.0049845 L 8.4237752 3.0163534 L 8.4444458 3.0370239 L 8.4552979 3.0638957 L 8.4568481 3.0783651 L 8.4568481 4.078304 L 8.4552979 4.0932902 L 8.4444458 4.1201619 L 8.4237752 4.1408325 L 8.3963867 4.1522013 L 8.3674479 4.1522013 L 8.3400594 4.1408325 L 8.3193888 4.1201619 L 8.3085368 4.0932902 L 8.3069865 4.078304 L 8.3069865 3.6772949 L 8.0770264 3.6772949 L 8.062557 3.6757446 L 8.0568726 3.6736776 L 8.0506714 3.672644 L 8.0372355 3.6659261 L 7.9612712 3.6183838 L 7.9545532 3.6132161 L 7.9524862 3.6121826 L 7.9514526 3.6106323 L 7.9493856 3.6095988 L 7.9483521 3.6080485 L 7.9421509 3.6018473 L 7.9044271 3.5537882 L 7.9013265 3.5491374 L 7.8997762 3.5481038 L 7.8982259 3.5444865 L 7.8961589 3.5413859 L 7.8956421 3.5398356 L 7.8930583 3.5351847 L 7.8553345 3.4395833 L 7.8517171 3.427181 L 7.8512004 3.4266642 L 7.8512004 3.4261475 L 7.8512004 3.4256307 L 7.8512004 3.4251139 L 7.8496501 3.4116781 L 7.8496501 3.2690511 L 7.8512004 3.256132 L 7.8512004 3.2550985 L 7.8512004 3.2545817 L 7.8517171 3.2535482 L 7.8553345 3.2411458 L 7.8930583 3.1460612 L 7.8956421 3.1408936 L 7.8961589 3.1393433 L 7.8982259 3.1362427 L 7.8997762 3.1331421 L 7.9013265 3.1315918 L 7.9044271 3.1269409 L 7.9421509 3.0793986 L 7.9483521 3.0731974 L 7.9493856 3.0716471 L 7.9514526 3.0700968 L 7.9524862 3.0685465 L 7.9545532 3.0680298 L 7.9612712 3.0623454 L 8.0372355 3.0148031 L 8.0506714 3.0086019 L 8.0568726 3.0075684 L 8.062557 3.0049845 L 8.0770264 3.0034342 z M 5.1970988 3.1538127 L 5.1144165 3.1879191 L 5.0570557 3.2597493 L 5.025533 3.3382975 L 4.9903931 3.5145142 L 4.9903931 3.6426717 L 5.025533 3.8188883 L 5.0570557 3.8974365 L 5.1144165 3.9692668 L 5.1970988 4.0033732 L 5.2973511 4.0033732 L 5.2973511 3.1538127 L 5.1970988 3.1538127 z M 6.5365519 3.1538127 L 6.4895264 3.1827515 L 6.466272 3.212207 L 6.4378499 3.2835205 L 6.4378499 3.3496663 L 6.466272 3.4214966 L 6.4895264 3.4504354 L 6.5365519 3.479891 L 6.7070841 3.479891 L 6.7070841 3.1538127 L 6.5365519 3.1538127 z M 8.0987305 3.1538127 L 8.0517049 3.1827515 L 8.0284505 3.212207 L 8.0000285 3.2835205 L 8.0000285 3.3972087 L 8.0284505 3.4690389 L 8.0517049 3.4979777 L 8.0987305 3.5274333 L 8.3069865 3.5274333 L 8.3069865 3.1538127 L 8.0987305 3.1538127 z M 4.3439209 3.3367472 L 4.4963664 3.3367472 L 4.5108358 3.3382975 L 4.5165202 3.3408813 L 4.5227214 3.3419149 L 4.5361572 3.348116 L 4.6121216 3.3956584 L 4.6240072 3.4049601 L 4.6405436 3.4287313 L 4.6472616 3.4571533 L 4.6426107 3.4860921 L 4.6296916 3.5067627 L 4.6271077 3.5108968 L 4.6033366 3.52795 L 4.5749146 3.534668 L 4.5459757 3.5295003 L 4.5325399 3.5232992 L 4.4746623 3.4871257 L 4.365625 3.4871257 L 4.328418 3.5098633 L 4.3046468 3.5692912 L 4.3046468 3.6085653 L 4.3273844 3.6225179 L 4.4963664 3.6225179 L 4.5108358 3.6240682 L 4.5165202 3.626652 L 4.5227214 3.6276855 L 4.5361572 3.6338867 L 4.6121216 3.681429 L 4.6136719 3.6829793 L 4.6147054 3.6834961 L 4.6162557 3.6845296 L 4.6240072 3.6907308 L 4.6291748 3.6979655 L 4.635376 3.7041667 L 4.6400269 3.7129517 L 4.6405436 3.714502 L 4.6410604 3.7155355 L 4.6420939 3.7176025 L 4.6803345 3.8126872 L 4.6839518 3.8250895 L 4.6839518 3.8256063 L 4.6839518 3.826123 L 4.6844686 3.8266398 L 4.6839518 3.8276733 L 4.6855021 3.8405924 L 4.6855021 3.9356771 L 4.6839518 3.9485962 L 4.6844686 3.9496297 L 4.6839518 3.9501465 L 4.6839518 3.95118 L 4.6803345 3.9635824 L 4.6420939 4.058667 L 4.6410604 4.060734 L 4.6405436 4.0617676 L 4.6400269 4.0633179 L 4.635376 4.0715861 L 4.6291748 4.078304 L 4.6240072 4.0855387 L 4.6162557 4.0917399 L 4.6147054 4.0927734 L 4.6136719 4.0932902 L 4.6121216 4.0943237 L 4.5361572 4.141866 L 4.5227214 4.148584 L 4.5165202 4.1496175 L 4.5108358 4.1522013 L 4.4963664 4.1537516 L 4.3056803 4.1537516 L 4.2912109 4.1522013 L 4.2855265 4.1496175 L 4.2793254 4.148584 L 4.266923 4.1428996 L 4.2441854 4.1522013 L 4.2147298 4.1522013 L 4.1878581 4.1408325 L 4.1671875 4.1201619 L 4.1558187 4.0932902 L 4.1547852 4.078304 L 4.1547852 3.5548218 L 4.1558187 3.5419027 L 4.1558187 3.5408691 L 4.1558187 3.5403524 L 4.1563354 3.5393188 L 4.1599528 3.5269165 L 4.1981934 3.4318319 L 4.1992269 3.4297648 L 4.1992269 3.4287313 L 4.2002604 3.427181 L 4.2049113 3.418396 L 4.2111125 3.4121948 L 4.2162801 3.4049601 L 4.2240316 3.398759 L 4.2250651 3.3977254 L 4.2260986 3.3972087 L 4.2276489 3.3956584 L 4.30413 3.348116 L 4.3170492 3.3419149 L 4.3232503 3.3408813 L 4.3294515 3.3382975 L 4.3439209 3.3367472 z M 3.5377686 3.337264 L 3.5667074 3.3403646 L 3.5925456 3.354834 L 3.6106323 3.3775716 L 3.6158 3.3915243 L 3.734139 3.8054525 L 3.852478 3.3915243 L 3.8581624 3.3775716 L 3.8762492 3.354834 L 3.9020874 3.3403646 L 3.9310262 3.337264 L 3.9589315 3.3450155 L 3.9821859 3.363619 L 3.9961385 3.3889404 L 3.9997559 3.4178792 L 3.9966553 3.4323486 L 3.9620321 3.5548218 L 3.8126872 4.0772705 L 3.8777995 4.2803589 L 3.8989868 4.3072306 L 3.9646159 4.348055 L 3.9759847 4.3573568 L 3.9930379 4.3811279 L 3.9997559 4.40955 L 3.995105 4.4384888 L 3.9796021 4.4632935 L 3.9558309 4.4803467 L 3.9268921 4.4865479 L 3.8979533 4.481897 L 3.8850342 4.4756958 L 3.8090698 4.4281535 L 3.8018351 4.4224691 L 3.8002848 4.4214355 L 3.7987345 4.420402 L 3.7971842 4.4188517 L 3.7961507 4.4173014 L 3.7899495 4.4111003 L 3.7522257 4.3635579 L 3.7460246 4.3542562 L 3.744991 4.3532227 L 3.7444743 4.3521891 L 3.7439575 4.3511556 L 3.7434408 4.3496053 L 3.7393066 4.33927 L 3.6628255 4.1015584 L 3.6628255 4.1000081 L 3.6623088 4.0989746 L 3.4716227 3.4323486 L 3.4690389 3.4178792 L 3.4726562 3.3889404 L 3.4866089 3.363619 L 3.5093465 3.3450155 L 3.5377686 3.337264 z M 6.5303507 3.6297526 L 6.4476685 3.6643758 L 6.4285482 3.688147 L 6.3996094 3.7594604 L 6.3996094 3.8736654 L 6.4285482 3.9449788 L 6.4518026 3.9739176 L 6.4988281 4.0033732 L 6.7070841 4.0033732 L 6.7070841 3.6297526 L 6.5303507 3.6297526 z M 4.3046468 3.7723796 L 4.3046468 3.9894206 L 4.3273844 4.0033732 L 4.4746623 4.0033732 L 4.5118693 3.9801188 L 4.5356405 3.9212077 L 4.5356405 3.8550618 L 4.5118693 3.795634 L 4.4746623 3.7723796 L 4.3056803 3.7723796 L 4.3046468 3.7723796 z M 2.9104167 4.5661296 L 2.9393555 4.5697469 L 2.9646769 4.5847331 L 2.9827637 4.6079875 L 2.9879313 4.6214233 L 3.0561442 4.878772 L 3.1781006 5.3355916 L 3.1786174 5.339209 L 3.1791341 5.3402425 L 3.1791341 5.3423096 L 3.1806844 5.350061 L 3.1791341 5.3598796 L 3.1791341 5.3696981 L 3.1775838 5.374349 L 3.1765503 5.3795166 L 3.1718994 5.3877848 L 3.1682821 5.3965698 L 3.1646647 5.4001872 L 3.1620809 5.4048381 L 3.1543294 5.4105225 L 3.1476115 5.4177572 L 3.1429606 5.4193075 L 3.1388265 5.422408 L 3.1295247 5.4249919 L 3.120223 5.4286092 L 3.1124715 5.4296427 L 3.1104045 5.4301595 L 3.1093709 5.4296427 L 3.1057536 5.4301595 L 2.7998291 5.4301595 L 2.7998291 5.6885417 L 2.7982788 5.7030111 L 2.7874268 5.7303996 L 2.7667562 5.7510701 L 2.7393677 5.7619222 L 2.7104289 5.7619222 L 2.6830404 5.7510701 L 2.6623698 5.7303996 L 2.651001 5.7030111 L 2.6499674 5.6885417 L 2.6499674 5.4301595 L 2.6106934 5.4301595 L 2.5957072 5.4286092 L 2.5688354 5.4177572 L 2.5481649 5.3965698 L 2.5367961 5.3696981 L 2.5367961 5.3402425 L 2.5481649 5.3133708 L 2.5688354 5.2927002 L 2.5957072 5.2818481 L 2.6106934 5.2802979 L 2.6499674 5.2802979 L 2.6499674 5.0219157 L 2.651001 5.0074463 L 2.6623698 4.9800578 L 2.6830404 4.9593872 L 2.7104289 4.9485352 L 2.7393677 4.9485352 L 2.7667562 4.9593872 L 2.7874268 4.9800578 L 2.7982788 5.0074463 L 2.7998291 5.0219157 L 2.7998291 5.2802979 L 3.0080851 5.2802979 L 2.8427205 4.6601807 L 2.8406535 4.6457113 L 2.8442708 4.6167725 L 2.859257 4.591451 L 2.8819946 4.5733643 L 2.9104167 4.5661296 z M 5.6275635 4.5661296 L 5.6554687 4.5749146 L 5.6782064 4.5935181 L 5.6859578 4.6054036 L 6.2559489 5.6740723 L 6.3717041 5.8911133 L 6.3773885 5.9050659 L 6.3804891 5.9340047 L 6.3717041 5.96191 L 6.3531006 5.9846476 L 6.3272624 5.9986003 L 6.2983236 6.0011841 L 6.2704183 5.9929159 L 6.2476807 5.9743123 L 6.2394124 5.96191 L 5.5536662 4.6762004 L 5.5484985 4.6627645 L 5.5453979 4.6333089 L 5.5536662 4.6054036 L 5.5722697 4.582666 L 5.5981079 4.5692301 L 5.6275635 4.5661296 z M 7.9891764 4.5661296 L 8.0175985 4.5749146 L 8.0398193 4.5935181 L 8.0480876 4.6054036 L 8.0976969 4.6984212 L 8.7338338 5.8911133 L 8.7395182 5.9050659 L 8.7421021 5.9340047 L 8.7338338 5.96191 L 8.7152303 5.9846476 L 8.6893921 5.9986003 L 8.6604533 6.0011841 L 8.632548 5.9929159 L 8.6098104 5.9743123 L 8.6015422 5.96191 L 7.9157959 4.6762004 L 7.9101115 4.6627645 L 7.9075277 4.6333089 L 7.9157959 4.6054036 L 7.9343994 4.582666 L 7.9602376 4.5692301 L 7.9891764 4.5661296 z M 3.56309 4.6136719 L 3.7532593 4.6136719 L 3.7682454 4.6147054 L 3.7739299 4.6172892 L 3.780131 4.6183228 L 3.7930501 4.6250407 L 3.8695312 4.672583 L 3.8762492 4.6777507 L 3.8777995 4.6787842 L 3.8793498 4.6803345 L 3.8809001 4.681368 L 3.8819336 4.6829183 L 3.8881348 4.6891195 L 3.9263753 4.7366618 L 3.9341268 4.7490641 L 3.942395 4.7774862 L 3.9392944 4.806425 L 3.924825 4.8317464 L 3.9020874 4.8503499 L 3.8741821 4.8586182 L 3.8452433 4.8550008 L 3.8194051 4.8410482 L 3.8090698 4.8307129 L 3.7790975 4.7929891 L 3.7320719 4.7635335 L 3.5842773 4.7635335 L 3.5372518 4.7929891 L 3.5139974 4.8219279 L 3.4855754 4.8932414 L 3.4855754 4.9645549 L 3.5134806 5.069458 L 3.517098 5.0823771 L 3.9640991 5.6415161 L 3.9666829 5.6456502 L 3.9682332 5.6466838 L 3.96875 5.6487508 L 3.9723674 5.6539185 L 3.9754679 5.6642537 L 3.9790853 5.6740723 L 3.9790853 5.6782064 L 3.9806356 5.6823405 L 3.9790853 5.6926758 L 3.9790853 5.7030111 L 3.977535 5.7071452 L 3.977535 5.7112793 L 3.9723674 5.7205811 L 3.9682332 5.7303996 L 3.9651326 5.7329834 L 3.9630656 5.7366007 L 3.9547974 5.7433187 L 3.9475627 5.7510701 L 3.9434285 5.7526204 L 3.940328 5.7552043 L 3.9299927 5.7577881 L 3.9201742 5.7619222 L 3.913973 5.7629557 L 3.9124227 5.7629557 L 3.9103556 5.7629557 L 3.9057048 5.7634725 L 3.4106445 5.7634725 L 3.3956584 5.7619222 L 3.3687866 5.7510701 L 3.348116 5.7303996 L 3.3367472 5.7030111 L 3.3367472 5.6740723 L 3.348116 5.6466838 L 3.3687866 5.6260132 L 3.3956584 5.6146444 L 3.4106445 5.6136108 L 3.7496419 5.6136108 L 3.389974 5.1640259 L 3.3822225 5.1516235 L 3.3817057 5.15059 L 3.381189 5.1500732 L 3.3760213 5.1366374 L 3.3382975 4.9934937 L 3.337264 4.9898763 L 3.3367472 4.9888428 L 3.3367472 4.9836751 L 3.3357137 4.9790243 L 3.3357137 4.977474 L 3.3357137 4.9743734 L 3.3357137 4.878772 L 3.3367472 4.8658529 L 3.3367472 4.8653361 L 3.3367472 4.8648193 L 3.3367472 4.8643026 L 3.337264 4.8637858 L 3.3408813 4.8508667 L 3.3791219 4.7557821 L 3.3817057 4.7511312 L 3.3822225 4.7490641 L 3.3842896 4.7459635 L 3.3858398 4.742863 L 3.3868734 4.7413127 L 3.389974 4.7366618 L 3.4282145 4.6891195 L 3.4344157 4.6829183 L 3.4354492 4.681368 L 3.4369995 4.6803345 L 3.4385498 4.6787842 L 3.4401001 4.6777507 L 3.446818 4.672583 L 3.5232992 4.6250407 L 3.5362183 4.6183228 L 3.5424194 4.6172892 L 3.5481038 4.6147054 L 3.56309 4.6136719 z M 4.3630412 4.6136719 L 4.4390055 4.6136719 L 4.4534749 4.6147054 L 4.4596761 4.6172892 L 4.4658773 4.6183228 L 4.4787964 4.6250407 L 4.5547607 4.672583 L 4.5619954 4.6777507 L 4.5635457 4.6787842 L 4.565096 4.6803345 L 4.5666463 4.681368 L 4.5676799 4.6829183 L 4.573881 4.6891195 L 4.6121216 4.7366618 L 4.6152222 4.7413127 L 4.6162557 4.742863 L 4.617806 4.7459635 L 4.619873 4.7490641 L 4.6203898 4.7511312 L 4.6229736 4.7557821 L 4.6612142 4.8508667 L 4.6627645 4.8575846 L 4.6648315 4.8643026 L 4.6679321 4.878772 L 4.7030721 5.0544718 L 4.7030721 5.0549886 L 4.7041056 5.0622233 L 4.7046224 5.069458 L 4.7046224 5.3076864 L 4.7041056 5.3144043 L 4.7030721 5.3221558 L 4.6648315 5.5128418 L 4.6627645 5.519043 L 4.6612142 5.5257609 L 4.6229736 5.6208455 L 4.6203898 5.6260132 L 4.619873 5.6275635 L 4.617806 5.6306641 L 4.6162557 5.6342814 L 4.6152222 5.6353149 L 4.6121216 5.6399658 L 4.573881 5.6875081 L 4.5676799 5.6937093 L 4.5666463 5.6952596 L 4.565096 5.6968099 L 4.5635457 5.6983602 L 4.5619954 5.6993937 L 4.5547607 5.7045614 L 4.4787964 5.7521037 L 4.4658773 5.7588216 L 4.4596761 5.7598551 L 4.4534749 5.7619222 L 4.4390055 5.7634725 L 4.3630412 5.7634725 L 4.348055 5.7619222 L 4.3423706 5.7598551 L 4.3361694 5.7588216 L 4.3232503 5.7521037 L 4.2467692 5.7045614 L 4.2400513 5.6993937 L 4.238501 5.6983602 L 4.2369507 5.6968099 L 4.2354004 5.6952596 L 4.2343669 5.6937093 L 4.2281657 5.6875081 L 4.1899251 5.6399658 L 4.1868245 5.6353149 L 4.185791 5.6342814 L 4.1842407 5.6306641 L 4.1821737 5.6275635 L 4.1816569 5.6260132 L 4.1790731 5.6208455 L 4.1408325 5.5257609 L 4.1387655 5.519043 L 4.1372152 5.5128418 L 4.0989746 5.3221558 L 4.0984578 5.3149211 L 4.0974243 5.3076864 L 4.0974243 5.069458 L 4.0984578 5.0617065 L 4.0989746 5.0549886 L 4.0989746 5.0544718 L 4.1372152 4.8643026 L 4.1387655 4.8575846 L 4.1408325 4.8508667 L 4.1790731 4.7557821 L 4.1816569 4.7511312 L 4.1821737 4.7490641 L 4.1842407 4.7459635 L 4.185791 4.742863 L 4.1868245 4.7413127 L 4.1899251 4.7366618 L 4.2281657 4.6891195 L 4.2343669 4.6829183 L 4.2354004 4.681368 L 4.2369507 4.6803345 L 4.238501 4.6787842 L 4.2400513 4.6777507 L 4.2467692 4.672583 L 4.3232503 4.6250407 L 4.3361694 4.6183228 L 4.3423706 4.6172892 L 4.348055 4.6147054 L 4.3630412 4.6136719 z M 5.0865112 4.6136719 L 5.2771973 4.6136719 L 5.2916667 4.6147054 L 5.2973511 4.6172892 L 5.3035522 4.6183228 L 5.3169881 4.6250407 L 5.330424 4.6333089 L 5.3929525 4.672583 L 5.4001872 4.6777507 L 5.4017375 4.6787842 L 5.4032878 4.6803345 L 5.4048381 4.681368 L 5.4058716 4.6829183 L 5.4120728 4.6891195 L 5.4497965 4.7366618 L 5.4580648 4.7490641 L 5.466333 4.7774862 L 5.4632324 4.806425 L 5.448763 4.8317464 L 5.4260254 4.8503499 L 5.3981201 4.8586182 L 5.3686646 4.8550008 L 5.3433431 4.8410482 L 5.3330078 4.8307129 L 5.3030355 4.7929891 L 5.2554932 4.7635335 L 5.1082153 4.7635335 L 5.0611898 4.7929891 L 5.0379354 4.8219279 L 5.0095133 4.8932414 L 5.0095133 4.9645549 L 5.041036 5.0823771 L 5.4880371 5.6415161 L 5.4906209 5.6456502 L 5.4916545 5.6466838 L 5.492688 5.6487508 L 5.4963053 5.6539185 L 5.4988892 5.6642537 L 5.5030233 5.6740723 L 5.5030233 5.6782064 L 5.5040568 5.6823405 L 5.5030233 5.6926758 L 5.5030233 5.7030111 L 5.501473 5.7071452 L 5.5009562 5.7112793 L 5.4957886 5.7205811 L 5.4916545 5.7303996 L 5.4890706 5.7329834 L 5.4870036 5.7366007 L 5.4787354 5.7433187 L 5.4709839 5.7510701 L 5.4673665 5.7526204 L 5.464266 5.7552043 L 5.4539307 5.7577881 L 5.4441121 5.7619222 L 5.437911 5.7629557 L 5.4358439 5.7629557 L 5.4342936 5.7629557 L 5.4296427 5.7634725 L 4.9340658 5.7634725 L 4.9195964 5.7619222 L 4.8927246 5.7510701 L 4.872054 5.7303996 L 4.8606852 5.7030111 L 4.8606852 5.6740723 L 4.872054 5.6466838 L 4.8927246 5.6260132 L 4.9195964 5.6146444 L 4.9340658 5.6136108 L 5.2735799 5.6136108 L 4.9139119 5.1640259 L 4.9056437 5.1516235 L 4.9056437 5.15059 L 4.905127 5.1500732 L 4.8999593 5.1366374 L 4.8617187 4.9934937 L 4.861202 4.9898763 L 4.8606852 4.9888428 L 4.8601685 4.9836751 L 4.8596517 4.9790243 L 4.8596517 4.977474 L 4.8591349 4.9743734 L 4.8591349 4.878772 L 4.8606852 4.8658529 L 4.8606852 4.8653361 L 4.8606852 4.8648193 L 4.8606852 4.8643026 L 4.861202 4.8637858 L 4.8648193 4.8508667 L 4.9025431 4.7557821 L 4.905127 4.7511312 L 4.9056437 4.7490641 L 4.9077108 4.7459635 L 4.9097778 4.742863 L 4.9108114 4.7413127 L 4.9139119 4.7366618 L 4.9521525 4.6891195 L 4.9578369 4.6829183 L 4.9588704 4.681368 L 4.9609375 4.6803345 L 4.961971 4.6787842 L 4.9640381 4.6777507 L 4.970756 4.672583 L 5.0472371 4.6250407 L 5.0601562 4.6183228 L 5.0663574 4.6172892 L 5.0720418 4.6147054 L 5.0865112 4.6136719 z M 6.7701294 4.6136719 L 6.7737467 4.6147054 L 6.7773641 4.6147054 L 6.7876994 4.6193563 L 6.7985514 4.6224569 L 6.8011353 4.6245239 L 6.8047526 4.6260742 L 6.8125041 4.6338257 L 6.8207723 4.6410604 L 6.8238729 4.6457113 L 6.8254232 4.6467448 L 6.8259399 4.6482951 L 6.8290405 4.652946 L 6.9019043 4.7898885 L 6.9659831 4.869987 L 6.9804525 4.878772 L 7.0310954 4.9108114 L 7.042981 4.9195964 L 7.0600342 4.9433675 L 7.0662354 4.9717896 L 7.0615845 5.0007284 L 7.0460815 5.025533 L 7.0223104 5.0425863 L 6.9938883 5.0493042 L 6.9649495 5.0441366 L 6.9515137 5.0379354 L 6.8755493 4.9903931 L 6.8688314 4.9847087 L 6.8667643 4.9841919 L 6.8657308 4.9826416 L 6.8636637 4.9810913 L 6.8626302 4.979541 L 6.8569458 4.9733398 L 6.8378255 4.9500854 L 6.8378255 5.6136108 L 6.9913045 5.6136108 L 7.0062907 5.6146444 L 7.0331624 5.6260132 L 7.053833 5.6466838 L 7.0652018 5.6740723 L 7.0652018 5.7030111 L 7.053833 5.7303996 L 7.0331624 5.7510701 L 7.0062907 5.7619222 L 6.9913045 5.7634725 L 6.5344849 5.7634725 L 6.5194987 5.7619222 L 6.492627 5.7510701 L 6.4719564 5.7303996 L 6.4605876 5.7030111 L 6.4605876 5.6740723 L 6.4719564 5.6466838 L 6.492627 5.6260132 L 6.5194987 5.6146444 L 6.5344849 5.6136108 L 6.6879639 5.6136108 L 6.6879639 4.6886027 L 6.6884806 4.6829183 L 6.6884806 4.6808512 L 6.6889974 4.6793009 L 6.6895142 4.6741333 L 6.6936483 4.663798 L 6.6967489 4.652946 L 6.6993327 4.6503621 L 6.7003662 4.6467448 L 6.7086344 4.6389933 L 6.7153524 4.6307251 L 6.718453 4.628658 L 6.7210368 4.6260742 L 6.7313721 4.6219401 L 6.7411906 4.6167725 L 6.7448079 4.6162557 L 6.7484253 4.6147054 L 6.7592773 4.6147054 L 6.7701294 4.6136719 z M 7.448641 4.6136719 L 7.639327 4.6136719 L 7.6537964 4.6147054 L 7.6594808 4.6172892 L 7.665682 4.6183228 L 7.6786011 4.6250407 L 7.6925537 4.6333089 L 7.7550822 4.672583 L 7.7618001 4.6777507 L 7.7633504 4.6787842 L 7.7649007 4.6803345 L 7.766451 4.681368 L 7.7680013 4.6829183 L 7.7736857 4.6891195 L 7.8119263 4.7366618 L 7.8201945 4.7490641 L 7.827946 4.7774862 L 7.8248454 4.806425 L 7.8108927 4.8317464 L 7.7881551 4.8503499 L 7.7597331 4.8586182 L 7.7307943 4.8550008 L 7.7049561 4.8410482 L 7.6946208 4.8307129 L 7.6646484 4.7929891 L 7.6176229 4.7635335 L 7.4703451 4.7635335 L 7.4228027 4.7929891 L 7.3995483 4.8219279 L 7.3711263 4.8932414 L 7.3711263 4.9645549 L 7.4026489 5.0823771 L 7.8501668 5.6415161 L 7.8527507 5.6456502 L 7.8537842 5.6466838 L 7.8548177 5.6487508 L 7.8579183 5.6539185 L 7.8610189 5.6642537 L 7.865153 5.6740723 L 7.865153 5.6782064 L 7.8661865 5.6823405 L 7.865153 5.6926758 L 7.865153 5.7030111 L 7.8636027 5.7071452 L 7.8630859 5.7112793 L 7.8579183 5.7205811 L 7.8537842 5.7303996 L 7.8506836 5.7329834 L 7.8491333 5.7366007 L 7.8403483 5.7433187 L 7.8331136 5.7510701 L 7.8294963 5.7526204 L 7.8258789 5.7552043 L 7.8160604 5.7577881 L 7.8062419 5.7619222 L 7.8000407 5.7629557 L 7.7979736 5.7629557 L 7.7964233 5.7629557 L 7.7912557 5.7634725 L 7.2961955 5.7634725 L 7.2817261 5.7619222 L 7.2548543 5.7510701 L 7.233667 5.7303996 L 7.2228149 5.7030111 L 7.2228149 5.6740723 L 7.233667 5.6466838 L 7.2548543 5.6260132 L 7.2817261 5.6146444 L 7.2961955 5.6136108 L 7.6351929 5.6136108 L 7.2760417 5.1640259 L 7.2677734 5.1516235 L 7.2672567 5.15059 L 7.2672567 5.1500732 L 7.262089 5.1366374 L 7.2238485 4.9934937 L 7.2233317 4.9898763 L 7.2228149 4.9888428 L 7.2222982 4.9836751 L 7.2212646 4.9790243 L 7.2217814 4.977474 L 7.2212646 4.9743734 L 7.2212646 4.878772 L 7.2222982 4.8658529 L 7.2222982 4.8653361 L 7.2228149 4.8648193 L 7.2228149 4.8643026 L 7.2228149 4.8637858 L 7.2264323 4.8508667 L 7.2646729 4.7557821 L 7.2672567 4.7511312 L 7.2677734 4.7490641 L 7.2698405 4.7459635 L 7.2713908 4.742863 L 7.2729411 4.7413127 L 7.2760417 4.7366618 L 7.3137655 4.6891195 L 7.3199666 4.6829183 L 7.3210002 4.681368 L 7.3225505 4.6803345 L 7.3241007 4.6787842 L 7.325651 4.6777507 L 7.3328857 4.672583 L 7.4088501 4.6250407 L 7.4217692 4.6183228 L 7.4279704 4.6172892 L 7.4341715 4.6147054 L 7.448641 4.6136719 z M 8.8578573 4.6136719 L 9.3916748 4.6136719 L 9.4061442 4.6147054 L 9.433016 4.6260742 L 9.4536865 4.6467448 L 9.4650553 4.6741333 L 9.4650553 4.7030721 L 9.4536865 4.7299438 L 9.433016 4.7511312 L 9.4061442 4.7619832 L 9.3916748 4.7635335 L 8.9632772 4.7635335 L 9.2717855 5.6642537 L 9.2754028 5.6787231 L 9.2733358 5.7076619 L 9.2604167 5.7340169 L 9.2387126 5.7531372 L 9.2108073 5.7629557 L 9.1818685 5.7608887 L 9.1555135 5.7479696 L 9.1363932 5.7262655 L 9.1301921 5.7128296 L 8.7870605 4.7128906 L 8.7855103 4.7051392 L 8.7844767 4.7030721 L 8.7844767 4.7020386 L 8.78396 4.6984212 L 8.7844767 4.6860189 L 8.7844767 4.6741333 L 8.7855103 4.6715495 L 8.7855103 4.6694824 L 8.7911947 4.6581136 L 8.7958455 4.6467448 L 8.7973958 4.6451945 L 8.7984294 4.6431274 L 8.8077311 4.6348592 L 8.8165161 4.6260742 L 8.8185832 4.6250407 L 8.8206502 4.6234904 L 8.832019 4.619873 L 8.8433879 4.6147054 L 8.8470052 4.6147054 L 8.8480387 4.6141886 L 8.8501058 4.6141886 L 8.8578573 4.6136719 z M 4.3842285 4.7635335 L 4.337203 4.7929891 L 4.3139486 4.8219279 L 4.2829427 4.9004761 L 4.247286 5.0766927 L 4.247286 5.2999349 L 4.2829427 5.4766683 L 4.3139486 5.5552165 L 4.337203 5.5841553 L 4.3842285 5.6136108 L 4.4178182 5.6136108 L 4.4648437 5.5841553 L 4.4880981 5.5552165 L 4.519104 5.4766683 L 4.5547607 5.2999349 L 4.5547607 5.0766927 L 4.519104 4.9004761 L 4.4880981 4.8219279 L 4.4648437 4.7929891 L 4.4178182 4.7635335 L 4.3842285 4.7635335 z " />
  <metadata
     id="metadata321">
    <rdf:RDF>
      <cc:Work
         rdf:about="">
        <dc:title>SVG Image created as Simple Graphic-B_Silkscreen.svg date 2024/07/19 01:13:17 </dc:title>
      </cc:Work>
    </rdf:RDF>
  </metadata>
</svg>
