<?xml version="1.0" encoding="UTF-8" standalone="no"?>
<svg
   version="1.1"
   width="15.0368mm"
   height="7.0358mm"
   viewBox="0.0000 0.0000 15.0368 7.0358"
   id="svg539"
   sodipodi:docname="Simple Graphic-F_Silkscreen.svg"
   inkscape:version="1.2.2 (732a01da63, 2022-12-09)"
   xmlns:inkscape="http://www.inkscape.org/namespaces/inkscape"
   xmlns:sodipodi="http://sodipodi.sourceforge.net/DTD/sodipodi-0.dtd"
   xmlns="http://www.w3.org/2000/svg"
   xmlns:svg="http://www.w3.org/2000/svg"
   xmlns:rdf="http://www.w3.org/1999/02/22-rdf-syntax-ns#"
   xmlns:cc="http://creativecommons.org/ns#"
   xmlns:dc="http://purl.org/dc/elements/1.1/">
  <defs
     id="defs543" />
  <sodipodi:namedview
     id="namedview541"
     pagecolor="#ffffff"
     bordercolor="#000000"
     borderopacity="0.25"
     inkscape:showpageshadow="2"
     inkscape:pageopacity="0.0"
     inkscape:pagecheckerboard="0"
     inkscape:deskcolor="#d1d1d1"
     inkscape:document-units="mm"
     showgrid="false"
     inkscape:zoom="18.281953"
     inkscape:cx="28.416001"
     inkscape:cy="13.319146"
     inkscape:window-width="1620"
     inkscape:window-height="1010"
     inkscape:window-x="-6"
     inkscape:window-y="-6"
     inkscape:window-maximized="1"
     inkscape:current-layer="svg539" />
  <title
     id="title441">SVG Image created as Simple Graphic-F_Silkscreen.svg date 2024/07/19 01:13:17 </title>
  <desc
     id="desc443">Image generated by PCBNEW </desc>
  <path
     id="path935"
     style="color:#000000;fill:#000000;stroke-width:0.15;stroke-linecap:round;stroke-linejoin:round;-inkscape-stroke:none"
     d="M 11.402405 1.1425659 A 0.06 0.06 0 0 0 11.34401 1.2030273 L 11.34401 1.8887736 A 0.06 0.06 0 0 0 11.402405 1.947168 A 0.06 0.06 0 0 0 11.462866 1.8887736 L 11.462866 1.2634888 L 12.113472 1.2634888 A 0.06 0.06 0 0 0 12.173934 1.2030273 A 0.06 0.06 0 0 0 12.113472 1.1425659 L 11.402405 1.1425659 z M 13.507703 1.2676229 A 0.06 0.06 0 0 0 13.447241 1.3280843 A 0.06 0.06 0 0 0 13.507703 1.3885457 L 13.763501 1.3885457 L 13.763501 5.3888184 L 13.507703 5.3888184 A 0.06 0.06 0 0 0 13.447241 5.4472127 A 0.06 0.06 0 0 0 13.507703 5.5076742 L 13.822412 5.5076742 A 0.06 0.06 0 0 0 13.824996 5.5076742 A 0.06 0.06 0 0 0 13.834814 5.5066406 A 0.06 0.06 0 0 0 13.836882 5.5061239 A 0.06 0.06 0 0 0 13.837398 5.5061239 A 0.06 0.06 0 0 0 13.839465 5.5056071 A 0.06 0.06 0 0 0 13.842049 5.5045736 A 0.06 0.06 0 0 0 13.844116 5.5040568 A 0.06 0.06 0 0 0 13.850317 5.5009562 A 0.06 0.06 0 0 0 13.851351 5.5004395 A 0.06 0.06 0 0 0 13.857035 5.4973389 A 0.06 0.06 0 0 0 13.857552 5.4968221 A 0.06 0.06 0 0 0 13.859102 5.4957886 A 0.06 0.06 0 0 0 13.859619 5.4952718 A 0.06 0.06 0 0 0 13.86272 5.492688 A 0.06 0.06 0 0 0 13.863236 5.4921712 A 0.06 0.06 0 0 0 13.867887 5.4875203 A 0.06 0.06 0 0 0 13.868404 5.4864868 A 0.06 0.06 0 0 0 13.869438 5.4854533 A 0.06 0.06 0 0 0 13.870471 5.4844198 A 0.06 0.06 0 0 0 13.871505 5.4823527 A 0.06 0.06 0 0 0 13.872021 5.4818359 A 0.06 0.06 0 0 0 13.873055 5.4802856 A 0.06 0.06 0 0 0 13.876156 5.4756348 A 0.06 0.06 0 0 0 13.876672 5.4740845 A 0.06 0.06 0 0 0 13.879256 5.4689168 A 0.06 0.06 0 0 0 13.879773 5.4668498 A 0.06 0.06 0 0 0 13.880806 5.4632324 A 0.06 0.06 0 0 0 13.881323 5.4621989 A 0.06 0.06 0 0 0 13.881323 5.4616821 A 0.06 0.06 0 0 0 13.88184 5.4596151 A 0.06 0.06 0 0 0 13.882357 5.455481 A 0.06 0.06 0 0 0 13.882357 5.4549642 A 0.06 0.06 0 0 0 13.882357 5.4544474 A 0.06 0.06 0 0 0 13.882874 5.4472127 L 13.882874 1.333252 A 0.06 0.06 0 0 0 13.882874 1.3280843 A 0.06 0.06 0 0 0 13.882874 1.3255005 A 0.06 0.06 0 0 0 13.88184 1.3172323 A 0.06 0.06 0 0 0 13.88184 1.315682 A 0.06 0.06 0 0 0 13.881323 1.3136149 A 0.06 0.06 0 0 0 13.881323 1.3130981 A 0.06 0.06 0 0 0 13.880806 1.3125814 A 0.06 0.06 0 0 0 13.879256 1.3063802 A 0.06 0.06 0 0 0 13.878739 1.3058634 A 0.06 0.06 0 0 0 13.876156 1.2996623 A 0.06 0.06 0 0 0 13.875639 1.2991455 A 0.06 0.06 0 0 0 13.875122 1.298112 A 0.06 0.06 0 0 0 13.874605 1.2970785 A 0.06 0.06 0 0 0 13.872021 1.2934611 A 0.06 0.06 0 0 0 13.871505 1.2929443 A 0.06 0.06 0 0 0 13.870988 1.2924276 A 0.06 0.06 0 0 0 13.870471 1.2908773 A 0.06 0.06 0 0 0 13.867887 1.2877767 A 0.06 0.06 0 0 0 13.866854 1.2867432 A 0.06 0.06 0 0 0 13.86272 1.282609 A 0.06 0.06 0 0 0 13.862203 1.2820923 A 0.06 0.06 0 0 0 13.861686 1.2815755 A 0.06 0.06 0 0 0 13.859102 1.2795085 A 0.06 0.06 0 0 0 13.857035 1.2779582 A 0.06 0.06 0 0 0 13.855485 1.2774414 A 0.06 0.06 0 0 0 13.853935 1.2764079 A 0.06 0.06 0 0 0 13.853418 1.2758911 A 0.06 0.06 0 0 0 13.850834 1.2748576 A 0.06 0.06 0 0 0 13.850317 1.2743408 A 0.06 0.06 0 0 0 13.848767 1.2738241 A 0.06 0.06 0 0 0 13.84825 1.2733073 A 0.06 0.06 0 0 0 13.84515 1.271757 A 0.06 0.06 0 0 0 13.844116 1.271757 A 0.06 0.06 0 0 0 13.843599 1.2712402 A 0.06 0.06 0 0 0 13.842049 1.2707235 A 0.06 0.06 0 0 0 13.841532 1.2707235 A 0.06 0.06 0 0 0 13.838432 1.2696899 A 0.06 0.06 0 0 0 13.837398 1.2691732 A 0.06 0.06 0 0 0 13.836882 1.2691732 A 0.06 0.06 0 0 0 13.834814 1.2686564 A 0.06 0.06 0 0 0 13.822412 1.2676229 L 13.507703 1.2676229 z M 1.5311727 1.5880168 A 0.060006 0.060006 0 0 0 1.4825968 1.6836182 L 1.7228923 2.0138306 A 0.060006 0.060006 0 0 0 1.8184937 2.0138306 L 2.0587891 1.6836182 A 0.060006 0.060006 0 0 0 2.0096965 1.5880168 L 1.5311727 1.5880168 z M 10.445874 1.7172078 A 0.075 0.075 0 0 0 10.382829 1.7518311 L 10.297046 1.8825724 L 10.211263 1.9704224 L 10.12703 2.0117635 A 0.075 0.075 0 0 0 10.093958 2.1130493 A 0.075 0.075 0 0 0 10.193176 2.146639 L 10.289294 2.0996134 A 0.075 0.075 0 0 0 10.317716 2.0748088 L 10.370943 2.0231323 L 10.370943 2.7186971 L 10.160103 2.7186971 A 0.075 0.075 0 0 0 10.085689 2.7931112 A 0.075 0.075 0 0 0 10.160103 2.8690755 L 10.732678 2.8690755 A 0.075 0.075 0 0 0 10.806576 2.7931112 A 0.075 0.075 0 0 0 10.732678 2.7186971 L 10.521322 2.7186971 L 10.521322 1.7998901 A 0.075 0.075 0 0 0 10.521322 1.7931722 A 0.075 0.075 0 0 0 10.521322 1.7921387 A 0.075 0.075 0 0 0 10.520288 1.7797363 A 0.075 0.075 0 0 0 10.520288 1.7792196 A 0.075 0.075 0 0 0 10.516671 1.767334 A 0.075 0.075 0 0 0 10.516671 1.7668172 A 0.075 0.075 0 0 0 10.510986 1.7554484 A 0.075 0.075 0 0 0 10.510986 1.7549316 A 0.075 0.075 0 0 0 10.488249 1.7306437 A 0.075 0.075 0 0 0 10.445874 1.7172078 z M 9.7322225 1.7187581 A 0.075 0.075 0 0 0 9.6562581 1.7931722 L 9.6562581 2.4970052 L 9.6190511 2.6096598 L 9.5472209 2.6814901 L 9.4340495 2.7186971 L 9.3513672 2.7186971 A 0.075 0.075 0 0 0 9.2754028 2.7931112 A 0.075 0.075 0 0 0 9.3513672 2.8690755 L 9.4454183 2.8690755 A 0.075 0.075 0 0 0 9.479008 2.8618408 L 9.6025146 2.8199829 A 0.075 0.075 0 0 0 9.6428223 2.7987956 L 9.7249878 2.714563 A 0.075 0.075 0 0 0 9.7559937 2.6737386 L 9.8025024 2.5311117 A 0.075 0.075 0 0 0 9.8030192 2.5305949 A 0.075 0.075 0 0 0 9.803536 2.5290446 A 0.075 0.075 0 0 0 9.8040527 2.5264608 A 0.075 0.075 0 0 0 9.805603 2.5192261 A 0.075 0.075 0 0 0 9.805603 2.517159 A 0.075 0.075 0 0 0 9.8061198 2.5156087 A 0.075 0.075 0 0 0 9.8061198 2.5145752 A 0.075 0.075 0 0 0 9.8061198 2.5125081 A 0.075 0.075 0 0 0 9.8066366 2.5078573 L 9.8066366 1.7931722 A 0.075 0.075 0 0 0 9.7322225 1.7187581 z M 2.4825358 1.7420125 A 0.06 0.06 0 0 0 2.4236247 1.8029907 A 0.06 0.06 0 0 0 2.4825358 1.8634521 L 3.9821859 1.8634521 L 5.4823527 1.8634521 A 0.06 0.06 0 0 0 5.5428141 1.8029907 A 0.06 0.06 0 0 0 5.4823527 1.7420125 L 3.9821859 1.7420125 L 2.4825358 1.7420125 z M 11.402405 2.5135417 A 0.06 0.06 0 0 0 11.385868 2.5166423 A 0.06 0.06 0 0 0 11.384318 2.5166423 A 0.06 0.06 0 0 0 11.382251 2.5176758 A 0.06 0.06 0 0 0 11.355896 2.5373128 A 0.06 0.06 0 0 0 11.355379 2.5383464 A 0.06 0.06 0 0 0 11.34401 2.5724528 A 0.06 0.06 0 0 0 11.34401 2.5776204 L 11.34401 5.4472127 A 0.06 0.06 0 0 0 11.346594 5.464266 A 0.06 0.06 0 0 0 11.347111 5.4668498 A 0.06 0.06 0 0 0 11.382768 5.5040568 A 0.06 0.06 0 0 0 11.385352 5.5050903 A 0.06 0.06 0 0 0 11.402405 5.5076742 A 0.06 0.06 0 0 0 11.408606 5.5076742 L 11.718665 5.5076742 A 0.06 0.06 0 0 0 11.779126 5.4472127 A 0.06 0.06 0 0 0 11.718665 5.3888184 L 11.462866 5.3888184 L 11.462866 2.6329142 L 11.503691 2.6329142 A 0.06 0.06 0 0 0 11.564669 2.5724528 A 0.06 0.06 0 0 0 11.503691 2.5135417 L 11.402405 2.5135417 z M 2.4825358 4.9630046 A 0.06 0.06 0 0 0 2.4236247 5.023466 A 0.06 0.06 0 0 0 2.4825358 5.0818604 L 3.9821859 5.0818604 L 5.4823527 5.0818604 A 0.06 0.06 0 0 0 5.5428141 5.023466 A 0.06 0.06 0 0 0 5.4823527 4.9630046 L 3.9873535 4.9630046 A 0.06 0.06 0 0 0 3.9821859 4.9630046 L 2.4825358 4.9630046 z M 4.499467 5.2740967 A 0.075 0.075 0 0 0 4.4922323 5.275647 A 0.075 0.075 0 0 0 4.4596761 5.2916667 A 0.075 0.075 0 0 0 4.4581258 5.293217 A 0.075 0.075 0 0 0 4.4545085 5.2968343 A 0.075 0.075 0 0 0 4.4493408 5.302002 A 0.075 0.075 0 0 0 4.4493408 5.3025187 A 0.075 0.075 0 0 0 4.4400391 5.3169881 L 4.3537394 5.4451457 L 4.2715739 5.5273112 L 4.1873413 5.5681356 A 0.075 0.075 0 0 0 4.1542684 5.6678711 A 0.075 0.075 0 0 0 4.2540039 5.7030111 L 4.3449544 5.6565023 A 0.075 0.075 0 0 0 4.3496053 5.6544352 A 0.075 0.075 0 0 0 4.3537394 5.6518514 A 0.075 0.075 0 0 0 4.3573568 5.6497843 A 0.075 0.075 0 0 0 4.3578735 5.6497843 A 0.075 0.075 0 0 0 4.3635579 5.6456502 A 0.075 0.075 0 0 0 4.3682088 5.6409993 A 0.075 0.075 0 0 0 4.3713094 5.6378988 L 4.4317708 5.5779541 L 4.4317708 6.2755859 L 4.220931 6.2755859 A 0.075 0.075 0 0 0 4.1465169 6.3494832 A 0.075 0.075 0 0 0 4.220931 6.4238973 L 4.7929891 6.4238973 A 0.075 0.075 0 0 0 4.8674032 6.3494832 A 0.075 0.075 0 0 0 4.7929891 6.2755859 L 4.5821493 6.2755859 L 4.5821493 5.3495443 A 0.075 0.075 0 0 0 4.5800822 5.3350749 A 0.075 0.075 0 0 0 4.5800822 5.3340413 A 0.075 0.075 0 0 0 4.5795654 5.332491 A 0.075 0.075 0 0 0 4.5780151 5.3278402 A 0.075 0.075 0 0 0 4.5780151 5.3273234 A 0.075 0.075 0 0 0 4.5769816 5.3247396 A 0.075 0.075 0 0 0 4.5769816 5.3237061 A 0.075 0.075 0 0 0 4.5764648 5.3226725 A 0.075 0.075 0 0 0 4.5712972 5.3123372 A 0.075 0.075 0 0 0 4.5707804 5.3113037 A 0.075 0.075 0 0 0 4.5640625 5.3014852 A 0.075 0.075 0 0 0 4.5635457 5.3009684 A 0.075 0.075 0 0 0 4.5490763 5.2870158 A 0.075 0.075 0 0 0 4.499467 5.2740967 z M 3.2204753 5.275647 A 0.075 0.075 0 0 0 3.146578 5.3495443 L 3.146578 6.1494954 A 0.075 0.075 0 0 0 3.1543294 6.1934204 A 0.075 0.075 0 0 0 3.1548462 6.1939372 L 3.1987712 6.2823039 A 0.075 0.075 0 0 0 3.2003215 6.2854045 L 3.201355 6.2869548 A 0.075 0.075 0 0 0 3.2065226 6.2967733 A 0.075 0.075 0 0 0 3.2127238 6.3045247 A 0.075 0.075 0 0 0 3.2147909 6.3065918 A 0.075 0.075 0 0 0 3.2230591 6.3143433 L 3.2638835 6.3556844 A 0.075 0.075 0 0 0 3.2819702 6.3686035 A 0.075 0.075 0 0 0 3.2830037 6.3691203 L 3.2850708 6.3701538 A 0.075 0.075 0 0 0 3.2855876 6.3706706 A 0.075 0.075 0 0 0 3.2907552 6.3727376 L 3.3698201 6.411495 A 0.075 0.075 0 0 0 3.3703369 6.4120117 A 0.075 0.075 0 0 0 3.4121948 6.4238973 L 3.6013306 6.4238973 A 0.075 0.075 0 0 0 3.6085653 6.4233805 A 0.075 0.075 0 0 0 3.609082 6.4233805 A 0.075 0.075 0 0 0 3.644222 6.411495 L 3.7227702 6.3727376 A 0.075 0.075 0 0 0 3.725354 6.3717041 L 3.7305216 6.3691203 A 0.075 0.075 0 0 0 3.7346558 6.3670532 A 0.075 0.075 0 0 0 3.7382731 6.3644694 A 0.075 0.075 0 0 0 3.7398234 6.3639526 A 0.075 0.075 0 0 0 3.7403402 6.3634359 A 0.075 0.075 0 0 0 3.744991 6.3598185 A 0.075 0.075 0 0 0 3.7501587 6.3556844 L 3.7961507 6.3096924 A 0.075 0.075 0 0 0 3.7987345 6.3065918 A 0.075 0.075 0 0 0 3.8008016 6.3045247 A 0.075 0.075 0 0 0 3.8018351 6.3034912 A 0.075 0.075 0 0 0 3.8044189 6.3003906 A 0.075 0.075 0 0 0 3.8054525 6.2993571 A 0.075 0.075 0 0 0 3.8059692 6.2983236 A 0.075 0.075 0 0 0 3.806486 6.29729 A 0.075 0.075 0 0 0 3.8070028 6.2967733 A 0.075 0.075 0 0 0 3.8126872 6.2869548 L 3.8137207 6.2854045 A 0.075 0.075 0 0 0 3.815271 6.2812703 L 3.8586792 6.1939372 A 0.075 0.075 0 0 0 3.859196 6.1934204 A 0.075 0.075 0 0 0 3.8669474 6.1474284 L 3.8669474 5.3495443 A 0.075 0.075 0 0 0 3.7930501 5.275647 A 0.075 0.075 0 0 0 3.716569 5.3495443 L 3.716569 6.1422607 L 3.6834961 6.2094401 L 3.6555908 6.2383789 L 3.5832438 6.2755859 L 3.4302816 6.2755859 L 3.3589681 6.2388957 L 3.3300293 6.2094401 L 3.2969564 6.1412272 L 3.2969564 5.3495443 A 0.075 0.075 0 0 0 3.2204753 5.275647 z M 12.501046 5.3888184 A 0.06 0.06 0 0 0 12.447302 5.4472127 A 0.06 0.06 0 0 0 12.507764 5.5076742 L 12.718604 5.5076742 A 0.06 0.06 0 0 0 12.779065 5.4472127 A 0.06 0.06 0 0 0 12.718604 5.3888184 L 12.507764 5.3888184 A 0.06 0.06 0 0 0 12.501046 5.3888184 z " />
  <metadata
     id="metadata1016">
    <rdf:RDF>
      <cc:Work
         rdf:about="">
        <dc:title>SVG Image created as Simple Graphic-F_Silkscreen.svg date 2024/07/19 01:13:17 </dc:title>
      </cc:Work>
    </rdf:RDF>
  </metadata>
</svg>
