<?xml version="1.0" encoding="UTF-8" standalone="no"?>
<svg
   version="1.1"
   width="15.0368mm"
   height="7.0358mm"
   viewBox="0.0000 0.0000 15.0368 7.0358"
   id="svg1912"
   sodipodi:docname="Simple Graphic-B_Cu.svg"
   inkscape:version="1.2.2 (732a01da63, 2022-12-09)"
   xmlns:inkscape="http://www.inkscape.org/namespaces/inkscape"
   xmlns:sodipodi="http://sodipodi.sourceforge.net/DTD/sodipodi-0.dtd"
   xmlns="http://www.w3.org/2000/svg"
   xmlns:svg="http://www.w3.org/2000/svg"
   xmlns:rdf="http://www.w3.org/1999/02/22-rdf-syntax-ns#"
   xmlns:cc="http://creativecommons.org/ns#"
   xmlns:dc="http://purl.org/dc/elements/1.1/">
  <defs
     id="defs1916" />
  <sodipodi:namedview
     id="namedview1914"
     pagecolor="#ffffff"
     bordercolor="#000000"
     borderopacity="0.25"
     inkscape:showpageshadow="2"
     inkscape:pageopacity="0.0"
     inkscape:pagecheckerboard="0"
     inkscape:deskcolor="#d1d1d1"
     inkscape:document-units="mm"
     showgrid="false"
     inkscape:zoom="19.513654"
     inkscape:cx="28.416001"
     inkscape:cy="13.298381"
     inkscape:window-width="1620"
     inkscape:window-height="1010"
     inkscape:window-x="-6"
     inkscape:window-y="-6"
     inkscape:window-maximized="1"
     inkscape:current-layer="svg1912" />
  <title
     id="title1848">SVG Image created as Simple Graphic-B_Cu.svg date 2024/07/19 01:13:17 </title>
  <desc
     id="desc1850">Image generated by PCBNEW </desc>
  <path
     id="path1992"
     style="fill:#000000;fill-opacity:1;fill-rule:evenodd;stroke:none;stroke-linecap:round;stroke-linejoin:round;stroke-opacity:1"
     d="M 0.79116618 0.30695801 L 0.73948975 0.31832682 L 0.68677979 0.36380208 L 0.66714274 0.43098145 L 0.66714274 1.4149007 L 0.66714274 2.887679 L 0.66714274 6.5329346 L 0.67799479 6.584611 L 0.72398682 6.637321 L 0.79116618 6.656958 L 14.259078 6.656958 L 14.310754 6.6455892 L 14.363464 6.6001139 L 14.383101 6.5329346 L 14.383101 0.43098145 L 14.371733 0.37930501 L 14.326257 0.32659505 L 14.259078 0.30695801 L 0.79116618 0.30695801 z M 13.015743 0.96221517 L 13.210046 0.96221517 L 13.400732 1.0030396 L 13.416235 1.0097575 L 13.578499 1.0821045 L 13.611056 1.1058757 L 13.735596 1.1963094 L 13.814661 1.2841593 L 13.86582 1.3410034 L 13.929382 1.4505575 L 13.962972 1.5094686 L 14.023433 1.6944702 L 14.043587 1.8877401 L 14.023433 2.0815267 L 13.962972 2.2665283 L 13.928866 2.3259562 L 13.912329 2.3817668 L 13.928866 2.4499797 L 13.962972 2.5094076 L 14.023433 2.6944092 L 14.043587 2.887679 L 14.023433 3.0814657 L 13.962972 3.2664673 L 13.928866 3.3258952 L 13.912329 3.3822225 L 13.928866 3.4499186 L 13.962972 3.5093465 L 14.023433 3.6943481 L 14.043587 3.8881348 L 14.023433 4.0814046 L 13.962972 4.2664062 L 13.928866 4.3258341 L 13.912329 4.3821615 L 13.928866 4.4498576 L 13.962972 4.5092855 L 14.023433 4.6942871 L 14.043587 4.8880737 L 14.023433 5.0813436 L 13.962972 5.2663452 L 13.86582 5.4348104 L 13.735596 5.5795044 L 13.578499 5.6937093 L 13.400732 5.7727743 L 13.210046 5.8135986 L 13.015743 5.8135986 L 12.825574 5.7727743 L 12.66331 5.700944 L 12.631787 5.6916423 L 12.562541 5.700944 L 12.400793 5.7727743 L 12.210107 5.8135986 L 12.015804 5.8135986 L 11.825635 5.7727743 L 11.716081 5.7241984 L 11.647868 5.6937093 L 11.608594 5.6652873 L 11.490255 5.5795044 L 11.405505 5.4854533 L 11.36003 5.4348104 L 11.342977 5.4053548 L 11.262878 5.2663452 L 11.202934 5.0813436 L 11.182263 4.8880737 L 11.202934 4.6942871 L 11.262878 4.5092855 L 11.296985 4.4498576 L 11.313521 4.394047 L 11.296985 4.3258341 L 11.262878 4.2664062 L 11.202934 4.0814046 L 11.182263 3.8881348 L 11.202934 3.6943481 L 11.262878 3.5093465 L 11.296985 3.4499186 L 11.313521 3.3935913 L 11.296985 3.3258952 L 11.262878 3.2664673 L 11.202934 3.0814657 L 11.182263 2.887679 L 11.202934 2.6944092 L 11.232906 2.6008748 L 11.236523 2.5889893 L 11.231356 2.5192261 L 11.194149 2.4205241 L 11.194149 2.4200073 L 11.187948 2.3605794 L 11.187948 2.137854 L 11.530562 2.137854 L 11.53728 2.137854 L 11.603426 2.1140828 L 11.647868 2.0820435 L 11.688175 2.0639567 L 11.688175 2.3130371 L 12.538253 2.3130371 L 12.538253 1.4629598 L 12.289689 1.4629598 L 12.346533 1.3647746 L 12.36307 1.3027629 L 12.36307 0.96273193 L 12.585795 0.96273193 L 12.645223 0.96944987 L 12.73669 1.0035563 L 12.761495 1.0097575 L 12.818339 1.002006 L 12.819373 1.0045898 L 12.825574 1.0030396 L 13.015743 0.96221517 z M 11.640116 0.96273193 L 11.862842 0.96273193 L 11.862842 1.4629598 L 11.688175 1.4629598 L 11.688175 1.6381429 L 11.187948 1.6381429 L 11.187948 1.4149007 L 11.194149 1.3554728 L 11.244792 1.2205973 L 11.330575 1.1058757 L 11.445813 1.019576 L 11.580688 0.96944987 L 11.640116 0.96273193 z M 13.112895 1.4629598 A 0.42500001 0.42500001 0 0 0 12.688114 1.8877401 A 0.42500001 0.42500001 0 0 0 13.112895 2.3130371 A 0.42500001 0.42500001 0 0 0 13.538192 1.8877401 A 0.42500001 0.42500001 0 0 0 13.112895 1.4629598 z M 12.112956 1.6381429 A 0.25 0.25 0 0 1 12.36307 1.8877401 A 0.25 0.25 0 0 1 12.112956 2.137854 A 0.25 0.25 0 0 1 11.862842 1.8877401 A 0.25 0.25 0 0 1 12.112956 1.6381429 z M 13.112895 1.6381429 A 0.25 0.25 0 0 1 13.363009 1.8877401 A 0.25 0.25 0 0 1 13.112895 2.137854 A 0.25 0.25 0 0 1 12.862781 1.8877401 A 0.25 0.25 0 0 1 13.112895 1.6381429 z M 3.003951 2.2902995 A 0.15000001 0.15000001 0 0 1 3.1538127 2.4406779 A 0.15000001 0.15000001 0 0 1 3.003951 2.5905396 A 0.15000001 0.15000001 0 0 1 2.8535726 2.4406779 A 0.15000001 0.15000001 0 0 1 3.003951 2.2902995 z M 12.112956 2.4628988 A 0.42500001 0.42500001 0 0 0 11.688175 2.887679 A 0.42500001 0.42500001 0 0 0 12.112956 3.3129761 A 0.42500001 0.42500001 0 0 0 12.538253 2.887679 A 0.42500001 0.42500001 0 0 0 12.112956 2.4628988 z M 13.112895 2.4628988 A 0.42500001 0.42500001 0 0 0 12.688114 2.887679 A 0.42500001 0.42500001 0 0 0 13.112895 3.3129761 A 0.42500001 0.42500001 0 0 0 13.538192 2.887679 A 0.42500001 0.42500001 0 0 0 13.112895 2.4628988 z M 12.112956 2.6380819 A 0.25 0.25 0 0 1 12.36307 2.887679 A 0.25 0.25 0 0 1 12.112956 3.137793 A 0.25 0.25 0 0 1 11.862842 2.887679 A 0.25 0.25 0 0 1 12.112956 2.6380819 z M 13.112895 2.6380819 A 0.25 0.25 0 0 1 13.363009 2.887679 A 0.25 0.25 0 0 1 13.112895 3.137793 A 0.25 0.25 0 0 1 12.862781 2.887679 A 0.25 0.25 0 0 1 13.112895 2.6380819 z M 12.112956 3.4628377 A 0.42500001 0.42500001 0 0 0 11.688175 3.8881348 A 0.42500001 0.42500001 0 0 0 12.112956 4.312915 A 0.42500001 0.42500001 0 0 0 12.538253 3.8881348 A 0.42500001 0.42500001 0 0 0 12.112956 3.4628377 z M 13.112895 3.4628377 A 0.42500001 0.42500001 0 0 0 12.688114 3.8881348 A 0.42500001 0.42500001 0 0 0 13.112895 4.312915 A 0.42500001 0.42500001 0 0 0 13.538192 3.8881348 A 0.42500001 0.42500001 0 0 0 13.112895 3.4628377 z M 12.112956 3.6380208 A 0.25 0.25 0 0 1 12.36307 3.8881348 A 0.25 0.25 0 0 1 12.112956 4.1377319 A 0.25 0.25 0 0 1 11.862842 3.8881348 A 0.25 0.25 0 0 1 12.112956 3.6380208 z M 13.112895 3.6380208 A 0.25 0.25 0 0 1 13.363009 3.8881348 A 0.25 0.25 0 0 1 13.112895 4.1377319 A 0.25 0.25 0 0 1 12.862781 3.8881348 A 0.25 0.25 0 0 1 13.112895 3.6380208 z M 12.112956 4.4627767 A 0.42500001 0.42500001 0 0 0 11.688175 4.8880737 A 0.42500001 0.42500001 0 0 0 12.112956 5.312854 A 0.42500001 0.42500001 0 0 0 12.538253 4.8880737 A 0.42500001 0.42500001 0 0 0 12.112956 4.4627767 z M 13.112895 4.4627767 A 0.42500001 0.42500001 0 0 0 12.688114 4.8880737 A 0.42500001 0.42500001 0 0 0 13.112895 5.312854 A 0.42500001 0.42500001 0 0 0 13.538192 4.8880737 A 0.42500001 0.42500001 0 0 0 13.112895 4.4627767 z M 12.112956 4.6379598 A 0.25 0.25 0 0 1 12.36307 4.8880737 A 0.25 0.25 0 0 1 12.112956 5.1376709 A 0.25 0.25 0 0 1 11.862842 4.8880737 A 0.25 0.25 0 0 1 12.112956 4.6379598 z M 13.112895 4.6379598 A 0.25 0.25 0 0 1 13.363009 4.8880737 A 0.25 0.25 0 0 1 13.112895 5.1376709 A 0.25 0.25 0 0 1 12.862781 4.8880737 A 0.25 0.25 0 0 1 13.112895 4.6379598 z " />
  <metadata
     id="metadata2023">
    <rdf:RDF>
      <cc:Work
         rdf:about="">
        <dc:title>SVG Image created as Simple Graphic-B_Cu.svg date 2024/07/19 01:13:17 </dc:title>
      </cc:Work>
    </rdf:RDF>
  </metadata>
</svg>
