<?xml version="1.0" encoding="UTF-8" standalone="no"?>
<svg
   version="1.1"
   width="15.0368mm"
   height="7.0358mm"
   viewBox="0.0000 0.0000 15.0368 7.0358"
   id="svg1418"
   sodipodi:docname="Simple Graphic-Fiberglass.svg"
   xml:space="preserve"
   inkscape:version="1.2.2 (732a01da63, 2022-12-09)"
   xmlns:inkscape="http://www.inkscape.org/namespaces/inkscape"
   xmlns:sodipodi="http://sodipodi.sourceforge.net/DTD/sodipodi-0.dtd"
   xmlns="http://www.w3.org/2000/svg"
   xmlns:svg="http://www.w3.org/2000/svg"
   xmlns:rdf="http://www.w3.org/1999/02/22-rdf-syntax-ns#"
   xmlns:cc="http://creativecommons.org/ns#"
   xmlns:dc="http://purl.org/dc/elements/1.1/"><defs
     id="defs1422" /><sodipodi:namedview
     id="namedview1420"
     pagecolor="#ffffff"
     bordercolor="#000000"
     borderopacity="0.25"
     inkscape:showpageshadow="2"
     inkscape:pageopacity="0.0"
     inkscape:pagecheckerboard="0"
     inkscape:deskcolor="#d1d1d1"
     inkscape:document-units="mm"
     showgrid="false"
     inkscape:zoom="18.281953"
     inkscape:cx="28.416001"
     inkscape:cy="13.319146"
     inkscape:window-width="1620"
     inkscape:window-height="1010"
     inkscape:window-x="-6"
     inkscape:window-y="-6"
     inkscape:window-maximized="1"
     inkscape:current-layer="svg1418" /><title
     id="title1354">SVG Image created as Simple Graphic-B_Cu.svg date 2024/07/19 01:13:17 </title><desc
     id="desc1356">Image generated by PCBNEW </desc><path
     id="path1516"
     style="fill:#000000;fill-opacity:1;stroke:#000000;stroke-width:0.05;stroke-linecap:round;stroke-linejoin:round;stroke-opacity:1"
     d="M 0.018603516 0.023771159 L 0.018603516 7.0238607 L 15.018205 7.0238607 L 15.018205 0.023771159 L 0.018603516 0.023771159 z M 12.112956 1.6381429 A 0.25 0.25 0 0 1 12.36307 1.8877401 A 0.25 0.25 0 0 1 12.112956 2.137854 A 0.25 0.25 0 0 1 11.862842 1.8877401 A 0.25 0.25 0 0 1 12.112956 1.6381429 z M 13.112895 1.6381429 A 0.25 0.25 0 0 1 13.363009 1.8877401 A 0.25 0.25 0 0 1 13.112895 2.137854 A 0.25 0.25 0 0 1 12.862781 1.8877401 A 0.25 0.25 0 0 1 13.112895 1.6381429 z M 3.003951 2.2902995 A 0.15000001 0.15000001 0 0 1 3.1538127 2.4406779 A 0.15000001 0.15000001 0 0 1 3.003951 2.5905396 A 0.15000001 0.15000001 0 0 1 2.8535726 2.4406779 A 0.15000001 0.15000001 0 0 1 3.003951 2.2902995 z M 12.112956 2.6380819 A 0.25 0.25 0 0 1 12.36307 2.887679 A 0.25 0.25 0 0 1 12.112956 3.137793 A 0.25 0.25 0 0 1 11.862842 2.887679 A 0.25 0.25 0 0 1 12.112956 2.6380819 z M 13.112895 2.6380819 A 0.25 0.25 0 0 1 13.363009 2.887679 A 0.25 0.25 0 0 1 13.112895 3.137793 A 0.25 0.25 0 0 1 12.862781 2.887679 A 0.25 0.25 0 0 1 13.112895 2.6380819 z M 12.112956 3.6380208 A 0.25 0.25 0 0 1 12.36307 3.8881348 A 0.25 0.25 0 0 1 12.112956 4.1377319 A 0.25 0.25 0 0 1 11.862842 3.8881348 A 0.25 0.25 0 0 1 12.112956 3.6380208 z M 13.112895 3.6380208 A 0.25 0.25 0 0 1 13.363009 3.8881348 A 0.25 0.25 0 0 1 13.112895 4.1377319 A 0.25 0.25 0 0 1 12.862781 3.8881348 A 0.25 0.25 0 0 1 13.112895 3.6380208 z M 12.112956 4.6379598 A 0.25 0.25 0 0 1 12.36307 4.8880737 A 0.25 0.25 0 0 1 12.112956 5.1376709 A 0.25 0.25 0 0 1 11.862842 4.8880737 A 0.25 0.25 0 0 1 12.112956 4.6379598 z M 13.112895 4.6379598 A 0.25 0.25 0 0 1 13.363009 4.8880737 A 0.25 0.25 0 0 1 13.112895 5.1376709 A 0.25 0.25 0 0 1 12.862781 4.8880737 A 0.25 0.25 0 0 1 13.112895 4.6379598 z " /><metadata
     id="metadata1530"><rdf:RDF><cc:Work
         rdf:about=""><dc:title>SVG Image created as Simple Graphic-B_Cu.svg date 2024/07/19 01:13:17 </dc:title></cc:Work></rdf:RDF></metadata></svg>
