<?xml version="1.0" encoding="UTF-8" standalone="no"?>
<svg
   version="1.1"
   width="15.0368mm"
   height="7.0358mm"
   viewBox="0.0000 0.0000 15.0368 7.0358"
   id="svg1347"
   sodipodi:docname="Simple Graphic-F_Cu.svg"
   inkscape:version="1.2.2 (732a01da63, 2022-12-09)"
   xmlns:inkscape="http://www.inkscape.org/namespaces/inkscape"
   xmlns:sodipodi="http://sodipodi.sourceforge.net/DTD/sodipodi-0.dtd"
   xmlns="http://www.w3.org/2000/svg"
   xmlns:svg="http://www.w3.org/2000/svg"
   xmlns:rdf="http://www.w3.org/1999/02/22-rdf-syntax-ns#"
   xmlns:cc="http://creativecommons.org/ns#"
   xmlns:dc="http://purl.org/dc/elements/1.1/">
  <defs
     id="defs1351" />
  <sodipodi:namedview
     id="namedview1349"
     pagecolor="#ffffff"
     bordercolor="#000000"
     borderopacity="0.25"
     inkscape:showpageshadow="2"
     inkscape:pageopacity="0.0"
     inkscape:pagecheckerboard="0"
     inkscape:deskcolor="#d1d1d1"
     inkscape:document-units="mm"
     showgrid="false"
     inkscape:zoom="8.8748496"
     inkscape:cx="21.915864"
     inkscape:cy="13.352339"
     inkscape:window-width="1620"
     inkscape:window-height="1010"
     inkscape:window-x="-6"
     inkscape:window-y="-6"
     inkscape:window-maximized="1"
     inkscape:current-layer="svg1347" />
  <title
     id="title1177">SVG Image created as Simple Graphic-F_Cu.svg date 2024/07/19 01:13:17 </title>
  <desc
     id="desc1179">Image generated by PCBNEW </desc>
  <path
     id="path1181"
     style="fill:#000000;fill-opacity:1;fill-rule:evenodd;stroke:none;stroke-linecap:round;stroke-linejoin:round;stroke-opacity:1"
     d="M 12.964067 1.0366292 A 0.1 0.1 0 0 0 12.953731 1.037146 L 1.931665 1.037146 A 0.1 0.1 0 0 0 1.894458 1.0438639 A 0.1 0.1 0 0 0 1.8913574 1.0454142 A 0.1 0.1 0 0 0 1.859318 1.0666016 L 0.78703206 2.1404378 A 0.1 0.1 0 0 0 0.77669678 2.1533569 A 0.1 0.1 0 0 0 0.77359619 2.1580078 A 0.1 0.1 0 0 0 0.76016032 2.1915975 A 0.1 0.1 0 0 0 0.7575765 2.2107178 L 0.7575765 2.8887126 A 0.1 0.1 0 0 0 0.78703206 2.9589925 L 0.98030192 3.1517456 A 0.1 0.1 0 0 0 0.98185221 3.1538127 L 0.98650309 3.1579468 A 0.1 0.1 0 0 0 0.99425456 3.1651815 A 0.1 0.1 0 0 0 1.0035563 3.1718994 A 0.1 0.1 0 0 0 1.0040731 3.1724162 A 0.1 0.1 0 0 0 1.0051066 3.1729329 A 0.1 0.1 0 0 0 1.0154419 3.1786174 A 0.1 0.1 0 0 0 1.0180257 3.1796509 A 0.1 0.1 0 0 0 1.0578166 3.1879191 L 1.065568 3.2261597 L 1.0872721 3.2587158 L 1.1198283 3.2804199 L 1.1580688 3.2876546 L 2.5827881 3.2876546 L 2.6215454 3.2804199 L 2.6535848 3.2587158 L 2.6752889 3.2261597 L 2.6830404 3.1879191 L 2.6830404 2.9879313 L 2.6752889 2.9496908 L 2.6535848 2.9171346 L 2.6215454 2.8954305 L 2.5827881 2.887679 L 1.1580688 2.887679 L 1.1198283 2.8954305 L 1.0872721 2.9171346 L 1.065568 2.9496908 L 1.0650513 2.9533081 L 0.95704753 2.8458211 L 0.95704753 2.2515422 L 1.9730062 1.2381673 L 12.922209 1.2381673 L 13.013676 1.3286011 L 13.013676 1.4748454 A 0.42500001 0.42500001 0 0 0 12.688114 1.8877401 A 0.42500001 0.42500001 0 0 0 13.112895 2.3130371 A 0.42500001 0.42500001 0 0 0 13.538192 1.8877401 A 0.42500001 0.42500001 0 0 0 13.213147 1.4748454 L 13.213147 1.2872599 A 0.1 0.1 0 0 0 13.211597 1.2722738 A 0.1 0.1 0 0 0 13.205396 1.2500529 A 0.1 0.1 0 0 0 13.202812 1.2438517 A 0.1 0.1 0 0 0 13.199711 1.2381673 A 0.1 0.1 0 0 0 13.197127 1.2340332 A 0.1 0.1 0 0 0 13.196094 1.2324829 A 0.1 0.1 0 0 0 13.183691 1.21698 L 13.035897 1.0671183 A 0.1 0.1 0 0 0 13.03538 1.0666016 A 0.1 0.1 0 0 0 13.027112 1.0593669 A 0.1 0.1 0 0 0 13.024011 1.056783 A 0.1 0.1 0 0 0 13.022978 1.0562663 A 0.1 0.1 0 0 0 12.983704 1.0386963 A 0.1 0.1 0 0 0 12.980086 1.0381795 A 0.1 0.1 0 0 0 12.964067 1.0366292 z M 4.9826416 1.3379028 A 0.1 0.1 0 0 0 4.9568034 1.3415202 A 0.1 0.1 0 0 0 4.9537028 1.3430705 A 0.1 0.1 0 0 0 4.935616 1.3503052 A 0.1 0.1 0 0 0 4.9283813 1.3549561 A 0.1 0.1 0 0 0 4.9149455 1.3652913 A 0.1 0.1 0 0 0 4.9123617 1.3673584 L 2.6758057 3.6033976 L 2.6752889 3.5997803 L 2.6535848 3.5672241 L 2.6215454 3.54552 L 2.5827881 3.5377686 L 1.1580688 3.5377686 L 1.1198283 3.54552 L 1.0872721 3.5672241 L 1.065568 3.5997803 L 1.0578166 3.6380208 L 1.0578166 3.8380086 L 1.065568 3.8762492 L 1.0872721 3.9088053 L 1.1198283 3.9305094 L 1.1580688 3.9377441 L 2.5827881 3.9377441 L 2.6215454 3.9305094 L 2.6535848 3.9088053 L 2.6752889 3.8762492 L 2.6830404 3.8385254 A 0.1 0.1 0 0 0 2.6892415 3.8374919 A 0.1 0.1 0 0 0 2.7037109 3.8354248 A 0.1 0.1 0 0 0 2.7114624 3.8338745 A 0.1 0.1 0 0 0 2.7590047 3.8033854 L 5.0239827 1.5368571 L 7.8532674 1.5368571 L 9.2733358 2.9589925 A 0.1 0.1 0 0 0 9.2795369 2.9641602 A 0.1 0.1 0 0 0 9.2836711 2.9672607 A 0.1 0.1 0 0 0 9.2965902 2.975529 A 0.1 0.1 0 0 0 9.3048584 2.9796631 A 0.1 0.1 0 0 0 9.307959 2.9806966 A 0.1 0.1 0 0 0 9.3436157 2.9884481 L 11.700061 2.9884481 A 0.42500001 0.42500001 0 0 0 12.112956 3.3129761 A 0.42500001 0.42500001 0 0 0 12.538253 2.887679 A 0.42500001 0.42500001 0 0 0 12.112956 2.4628988 A 0.42500001 0.42500001 0 0 0 11.700061 2.78691 L 9.3844401 2.78691 L 7.9648885 1.3673584 A 0.1 0.1 0 0 0 7.9612712 1.3642578 A 0.1 0.1 0 0 0 7.9519694 1.3570231 A 0.1 0.1 0 0 0 7.9447347 1.3523722 A 0.1 0.1 0 0 0 7.8946086 1.3379028 L 4.9826416 1.3379028 z M 11.688175 1.4629598 L 11.688175 2.3130371 L 12.538253 2.3130371 L 12.538253 1.4629598 L 11.688175 1.4629598 z M 7.6279582 1.6381429 A 0.1 0.1 0 0 0 7.6243408 1.6386597 L 5.1071818 1.6386597 A 0.1 0.1 0 0 0 5.1004639 1.6396932 A 0.1 0.1 0 0 0 5.0885783 1.6407267 A 0.1 0.1 0 0 0 5.0834106 1.6417603 A 0.1 0.1 0 0 0 5.067391 1.6474447 A 0.1 0.1 0 0 0 5.0617065 1.6500285 A 0.1 0.1 0 0 0 5.0467204 1.6593302 A 0.1 0.1 0 0 0 5.0425863 1.6629476 A 0.1 0.1 0 0 0 5.0369019 1.6681152 L 4.6017863 2.1037476 A 0.1 0.1 0 0 0 4.5754313 2.1512899 A 0.1 0.1 0 0 0 4.573881 2.157491 A 0.1 0.1 0 0 0 4.5733643 2.166276 A 0.1 0.1 0 0 0 4.5723307 2.1740275 L 4.5723307 3.7930501 A 0.1 0.1 0 0 0 4.5842163 3.8519613 A 0.1 0.1 0 0 0 4.5852498 3.8535116 A 0.1 0.1 0 0 0 4.5945516 3.8674642 A 0.1 0.1 0 0 0 4.5950684 3.867981 A 0.1 0.1 0 0 0 4.6017863 3.8752157 A 0.1 0.1 0 0 0 4.6074707 3.8803833 L 5.18573 4.4591593 A 0.1 0.1 0 0 0 5.1908976 4.4638102 A 0.1 0.1 0 0 0 5.1996826 4.4705282 A 0.1 0.1 0 0 0 5.2198364 4.4813802 A 0.1 0.1 0 0 0 5.2234538 4.4824137 A 0.1 0.1 0 0 0 5.2560099 4.4880981 L 5.2828817 4.4880981 L 5.2906331 4.5263387 L 5.3123372 4.5583781 L 5.3448934 4.5800822 L 5.383134 4.5878337 L 6.8078532 4.5878337 L 6.8460937 4.5800822 L 6.8786499 4.5583781 L 6.900354 4.5263387 L 6.9081055 4.4880981 L 6.9081055 4.2881104 L 6.900354 4.249353 L 6.8786499 4.2173136 L 6.8460937 4.1956095 L 6.8078532 4.1878581 L 5.383134 4.1878581 L 5.3448934 4.1956095 L 5.3123372 4.2173136 L 5.2906331 4.249353 L 5.2854655 4.275708 L 4.771285 3.7615275 L 4.771285 2.2153687 L 5.1485229 1.8381307 L 7.5861003 1.8381307 L 9.706901 3.9589315 A 0.1 0.1 0 0 0 9.7100016 3.9609985 A 0.1 0.1 0 0 0 9.724471 3.9723674 A 0.1 0.1 0 0 0 9.7317057 3.9765015 A 0.1 0.1 0 0 0 9.7435913 3.9816691 A 0.1 0.1 0 0 0 9.7549601 3.9858032 A 0.1 0.1 0 0 0 9.7616781 3.98632 A 0.1 0.1 0 0 0 9.7818319 3.988387 L 11.700061 3.988387 A 0.42500001 0.42500001 0 0 0 12.112956 4.312915 A 0.42500001 0.42500001 0 0 0 12.538253 3.8881348 A 0.42500001 0.42500001 0 0 0 12.112956 3.4628377 A 0.42500001 0.42500001 0 0 0 11.700061 3.7873657 L 9.8205892 3.7873657 L 7.6992716 1.6681152 A 0.1 0.1 0 0 0 7.6956543 1.6655314 A 0.1 0.1 0 0 0 7.6848022 1.6562297 A 0.1 0.1 0 0 0 7.6734334 1.6495117 A 0.1 0.1 0 0 0 7.6646484 1.6458944 A 0.1 0.1 0 0 0 7.6512126 1.6412435 A 0.1 0.1 0 0 0 7.6470785 1.6407267 A 0.1 0.1 0 0 0 7.6279582 1.6381429 z M 12.112956 1.6381429 A 0.25 0.25 0 0 1 12.36307 1.8877401 A 0.25 0.25 0 0 1 12.112956 2.137854 A 0.25 0.25 0 0 1 11.862842 1.8877401 A 0.25 0.25 0 0 1 12.112956 1.6381429 z M 13.112895 1.6381429 A 0.25 0.25 0 0 1 13.363009 1.8877401 A 0.25 0.25 0 0 1 13.112895 2.137854 A 0.25 0.25 0 0 1 12.862781 1.8877401 A 0.25 0.25 0 0 1 13.112895 1.6381429 z M 5.2312052 1.9368327 A 0.1 0.1 0 0 0 5.1604085 1.966805 L 4.9123617 2.2148519 A 0.1 0.1 0 0 0 4.907194 2.2200195 A 0.1 0.1 0 0 0 4.9046102 2.2231201 A 0.1 0.1 0 0 0 4.8999593 2.2298381 A 0.1 0.1 0 0 0 4.8829061 2.2975342 L 4.8829061 2.7776082 A 0.1 0.1 0 0 0 4.8994425 2.8437541 A 0.1 0.1 0 0 0 4.9015096 2.8468547 A 0.1 0.1 0 0 0 4.9056437 2.8520223 A 0.1 0.1 0 0 0 4.907194 2.8540894 A 0.1 0.1 0 0 0 4.9123617 2.859257 A 0.1 0.1 0 0 0 4.915979 2.8628743 L 5.2131185 3.1579468 A 0.1 0.1 0 0 0 5.2198364 3.1641479 A 0.1 0.1 0 0 0 5.2374064 3.1760335 A 0.1 0.1 0 0 0 5.2420573 3.1786174 A 0.1 0.1 0 0 0 5.2425741 3.1786174 A 0.1 0.1 0 0 0 5.251359 3.1822347 A 0.1 0.1 0 0 0 5.2534261 3.1827515 A 0.1 0.1 0 0 0 5.2539429 3.1827515 A 0.1 0.1 0 0 0 5.2549764 3.1832682 A 0.1 0.1 0 0 0 5.2653117 3.1853353 A 0.1 0.1 0 0 0 5.2828817 3.1874023 L 5.2828817 3.1879191 L 5.2906331 3.2261597 L 5.3123372 3.2587158 L 5.3448934 3.2804199 L 5.383134 3.2876546 L 6.8078532 3.2876546 L 6.8460937 3.2804199 L 6.8786499 3.2587158 L 6.900354 3.2261597 L 6.9081055 3.1879191 L 6.9081055 2.9879313 L 6.900354 2.9496908 L 6.8786499 2.9171346 L 6.8460937 2.8954305 L 6.8078532 2.887679 L 5.383134 2.887679 L 5.3448934 2.8954305 L 5.3123372 2.9171346 L 5.2906331 2.9496908 L 5.2895996 2.9533081 L 5.0818604 2.7455688 L 5.0818604 2.32854 L 5.2730632 2.1388875 L 7.0646851 2.1388875 L 9.884668 4.9588704 A 0.1 0.1 0 0 0 9.8877686 4.9614543 A 0.1 0.1 0 0 0 9.9017212 4.9723063 A 0.1 0.1 0 0 0 9.9079224 4.9759237 A 0.1 0.1 0 0 0 9.9285929 4.9841919 A 0.1 0.1 0 0 0 9.9296265 4.9847087 A 0.1 0.1 0 0 0 9.9549479 4.988326 L 11.700061 4.988326 A 0.42500001 0.42500001 0 0 0 12.112956 5.312854 A 0.42500001 0.42500001 0 0 0 12.538253 4.8880737 A 0.42500001 0.42500001 0 0 0 12.112956 4.4627767 A 0.42500001 0.42500001 0 0 0 11.700061 4.7873047 L 9.9962891 4.7873047 L 7.1757894 1.966805 A 0.1 0.1 0 0 0 7.1055094 1.9373494 L 5.2425741 1.9373494 A 0.1 0.1 0 0 0 5.2312052 1.9368327 z M 3.003951 2.1404378 A 0.30000001 0.30000001 0 0 0 2.7223145 2.3378418 L 2.6830404 2.3378418 L 2.6752889 2.2996012 L 2.6535848 2.2670451 L 2.6215454 2.245341 L 2.5827881 2.2381063 L 1.1580688 2.2381063 L 1.1198283 2.245341 L 1.0872721 2.2670451 L 1.065568 2.2996012 L 1.0578166 2.3378418 L 1.0578166 2.5378296 L 1.065568 2.5760701 L 1.0872721 2.6086263 L 1.1198283 2.6303304 L 1.1580688 2.6380819 L 2.5827881 2.6380819 L 2.6215454 2.6303304 L 2.6535848 2.6086263 L 2.6752889 2.5760701 L 2.6830404 2.5378296 L 2.6830404 2.5373128 L 2.7197306 2.5373128 A 0.30000001 0.30000001 0 0 0 3.003951 2.7404012 A 0.30000001 0.30000001 0 0 0 3.3036743 2.4406779 A 0.30000001 0.30000001 0 0 0 3.003951 2.1404378 z M 5.383134 2.2381063 L 5.3448934 2.245341 L 5.3123372 2.2670451 L 5.2906331 2.2996012 L 5.2828817 2.3378418 L 5.2828817 2.5378296 L 5.2906331 2.5760701 L 5.3123372 2.6086263 L 5.3448934 2.6303304 L 5.383134 2.6380819 L 6.8078532 2.6380819 L 6.8460937 2.6303304 L 6.8786499 2.6086263 L 6.900354 2.5760701 L 6.9065552 2.5450643 L 9.9549479 5.5939738 A 0.1 0.1 0 0 0 9.959082 5.5970744 A 0.1 0.1 0 0 0 9.9776855 5.6099935 A 0.1 0.1 0 0 0 9.9813029 5.6125773 A 0.1 0.1 0 0 0 10.008691 5.6208455 A 0.1 0.1 0 0 0 10.009725 5.6213623 A 0.1 0.1 0 0 0 10.025228 5.6229126 L 12.466939 5.6229126 A 0.1 0.1 0 0 0 12.548588 5.5939738 L 12.89172 5.2508423 A 0.42500001 0.42500001 0 0 0 13.112895 5.312854 A 0.42500001 0.42500001 0 0 0 13.538192 4.8880737 A 0.42500001 0.42500001 0 0 0 13.112895 4.4627767 A 0.42500001 0.42500001 0 0 0 12.688114 4.8880737 A 0.42500001 0.42500001 0 0 0 12.750126 5.1092489 L 12.435417 5.4239583 L 10.066569 5.4239583 L 7.0145589 2.372465 A 0.1 0.1 0 0 0 6.9396281 2.3378418 L 6.9081055 2.3378418 L 6.900354 2.2996012 L 6.8786499 2.2670451 L 6.8460937 2.245341 L 6.8078532 2.2381063 L 5.383134 2.2381063 z M 3.003951 2.2902995 A 0.15000001 0.15000001 0 0 1 3.1538127 2.4406779 A 0.15000001 0.15000001 0 0 1 3.003951 2.5905396 A 0.15000001 0.15000001 0 0 1 2.8535726 2.4406779 A 0.15000001 0.15000001 0 0 1 3.003951 2.2902995 z M 13.112895 2.4628988 A 0.42500001 0.42500001 0 0 0 12.688114 2.887679 A 0.42500001 0.42500001 0 0 0 13.112895 3.3129761 A 0.42500001 0.42500001 0 0 0 13.334587 3.2504476 L 13.937651 3.8540283 L 13.937651 5.2301717 L 13.144934 6.0234049 L 9.3865072 6.0234049 L 8.1798625 4.8162435 A 0.1 0.1 0 0 0 8.1767619 4.8136597 A 0.1 0.1 0 0 0 8.1095825 4.7873047 L 2.4122559 4.7873047 L 2.2127848 4.5878337 L 2.5827881 4.5878337 L 2.6215454 4.5800822 L 2.6535848 4.5583781 L 2.6752889 4.5263387 L 2.6830404 4.4880981 L 2.6830404 4.2881104 L 2.6752889 4.249353 L 2.6535848 4.2173136 L 2.6215454 4.1956095 L 2.5827881 4.1878581 L 1.1580688 4.1878581 L 1.1198283 4.1956095 L 1.0872721 4.2173136 L 1.065568 4.249353 L 1.0578166 4.2881104 L 1.0578166 4.4880981 L 1.065568 4.5263387 L 1.0872721 4.5583781 L 1.1198283 4.5800822 L 1.1580688 4.5878337 L 1.9275309 4.5878337 L 2.2990845 4.9588704 A 0.1 0.1 0 0 0 2.3807332 4.988326 L 8.0687581 4.988326 L 9.2733358 6.1934204 A 0.1 0.1 0 0 0 9.2924561 6.2078898 A 0.1 0.1 0 0 0 9.2981405 6.2115072 A 0.1 0.1 0 0 0 9.3177775 6.2192586 A 0.1 0.1 0 0 0 9.3193278 6.2197754 A 0.1 0.1 0 0 0 9.3493001 6.222876 L 13.185758 6.222876 A 0.1 0.1 0 0 0 13.219865 6.2156413 A 0.1 0.1 0 0 0 13.2302 6.2115072 A 0.1 0.1 0 0 0 13.256038 6.1934204 L 14.101982 5.3485107 A 0.1 0.1 0 0 0 14.109216 5.3417928 A 0.1 0.1 0 0 0 14.114901 5.3361084 A 0.1 0.1 0 0 0 14.116968 5.3330078 A 0.1 0.1 0 0 0 14.117485 5.332491 A 0.1 0.1 0 0 0 14.120585 5.3283569 A 0.1 0.1 0 0 0 14.124719 5.321639 A 0.1 0.1 0 0 0 14.12627 5.3185384 A 0.1 0.1 0 0 0 14.132471 5.3061361 A 0.1 0.1 0 0 0 14.133504 5.3025187 A 0.1 0.1 0 0 0 14.136088 5.2916667 A 0.1 0.1 0 0 0 14.137122 5.2859823 A 0.1 0.1 0 0 0 14.138155 5.2746134 A 0.1 0.1 0 0 0 14.138672 5.2715129 L 14.138672 3.8126872 A 0.1 0.1 0 0 0 14.138155 3.806486 A 0.1 0.1 0 0 0 14.137638 3.7997681 A 0.1 0.1 0 0 0 14.135571 3.788916 A 0.1 0.1 0 0 0 14.132471 3.778064 A 0.1 0.1 0 0 0 14.131954 3.7770304 A 0.1 0.1 0 0 0 14.12782 3.7682454 A 0.1 0.1 0 0 0 14.126786 3.7661784 A 0.1 0.1 0 0 0 14.124719 3.7620443 A 0.1 0.1 0 0 0 14.124202 3.7610107 A 0.1 0.1 0 0 0 14.114901 3.7480916 A 0.1 0.1 0 0 0 14.11335 3.7465413 A 0.1 0.1 0 0 0 14.109216 3.7424072 L 13.475663 3.1088542 A 0.42500001 0.42500001 0 0 0 13.538192 2.887679 A 0.42500001 0.42500001 0 0 0 13.112895 2.4628988 z M 12.112956 2.6380819 A 0.25 0.25 0 0 1 12.36307 2.887679 A 0.25 0.25 0 0 1 12.112956 3.137793 A 0.25 0.25 0 0 1 11.862842 2.887679 A 0.25 0.25 0 0 1 12.112956 2.6380819 z M 13.112895 2.6380819 A 0.25 0.25 0 0 1 13.363009 2.887679 A 0.25 0.25 0 0 1 13.112895 3.137793 A 0.25 0.25 0 0 1 12.862781 2.887679 A 0.25 0.25 0 0 1 13.112895 2.6380819 z M 13.112895 3.4628377 A 0.42500001 0.42500001 0 0 0 12.688114 3.8881348 A 0.42500001 0.42500001 0 0 0 13.112895 4.312915 A 0.42500001 0.42500001 0 0 0 13.33407 4.2503866 L 13.638444 4.5547607 L 13.638444 5.1056315 L 13.019877 5.7226481 L 9.8004354 5.7226481 L 7.7442301 3.6679932 A 0.1 0.1 0 0 0 7.7406128 3.6654093 A 0.1 0.1 0 0 0 7.6739502 3.6385376 L 6.9081055 3.6385376 L 6.9081055 3.6380208 L 6.900354 3.5997803 L 6.8786499 3.5672241 L 6.8460937 3.54552 L 6.8078532 3.5377686 L 5.383134 3.5377686 L 5.3448934 3.54552 L 5.3123372 3.5672241 L 5.2906331 3.5997803 L 5.2828817 3.6380208 L 5.2828817 3.8380086 L 5.2906331 3.8762492 L 5.3123372 3.9088053 L 5.3448934 3.9305094 L 5.383134 3.9377441 L 6.8078532 3.9377441 L 6.8460937 3.9305094 L 6.8786499 3.9088053 L 6.900354 3.8762492 L 6.9081055 3.8380086 L 7.6331258 3.8380086 L 9.6893311 5.8947306 A 0.1 0.1 0 0 0 9.7100016 5.9102336 A 0.1 0.1 0 0 0 9.759611 5.9236694 L 13.053467 5.9236694 A 0.1 0.1 0 0 0 13.109277 5.9117839 A 0.1 0.1 0 0 0 13.114445 5.9092 A 0.1 0.1 0 0 0 13.133049 5.8947306 L 13.808459 5.2167358 A 0.1 0.1 0 0 0 13.812077 5.2131185 A 0.1 0.1 0 0 0 13.817244 5.2069173 A 0.1 0.1 0 0 0 13.818795 5.2048503 A 0.1 0.1 0 0 0 13.83068 5.1836629 A 0.1 0.1 0 0 0 13.831197 5.1821126 A 0.1 0.1 0 0 0 13.837398 5.1516235 A 0.1 0.1 0 0 0 13.837915 5.1464559 L 13.837915 4.5232381 A 0.1 0.1 0 0 0 13.834814 4.4870646 A 0.1 0.1 0 0 0 13.834814 4.4865479 A 0.1 0.1 0 0 0 13.833264 4.4824137 A 0.1 0.1 0 0 0 13.833264 4.481897 A 0.1 0.1 0 0 0 13.833264 4.4813802 A 0.1 0.1 0 0 0 13.832231 4.4782796 A 0.1 0.1 0 0 0 13.831714 4.4767293 A 0.1 0.1 0 0 0 13.824479 4.4617432 A 0.1 0.1 0 0 0 13.821895 4.457609 A 0.1 0.1 0 0 0 13.819312 4.4539917 A 0.1 0.1 0 0 0 13.818795 4.4534749 A 0.1 0.1 0 0 0 13.816728 4.4503743 A 0.1 0.1 0 0 0 13.815694 4.4493408 A 0.1 0.1 0 0 0 13.813627 4.4472738 A 0.1 0.1 0 0 0 13.812594 4.4457235 A 0.1 0.1 0 0 0 13.812077 4.4452067 A 0.1 0.1 0 0 0 13.811043 4.4436564 A 0.1 0.1 0 0 0 13.808459 4.4415894 L 13.807943 4.4405558 A 0.1 0.1 0 0 0 13.804325 4.4374552 L 13.475663 4.1087931 A 0.42500001 0.42500001 0 0 0 13.538192 3.8881348 A 0.42500001 0.42500001 0 0 0 13.112895 3.4628377 z M 12.112956 3.6380208 A 0.25 0.25 0 0 1 12.36307 3.8881348 A 0.25 0.25 0 0 1 12.112956 4.1377319 A 0.25 0.25 0 0 1 11.862842 3.8881348 A 0.25 0.25 0 0 1 12.112956 3.6380208 z M 13.112895 3.6380208 A 0.25 0.25 0 0 1 13.363009 3.8881348 A 0.25 0.25 0 0 1 13.112895 4.1377319 A 0.25 0.25 0 0 1 12.862781 3.8881348 A 0.25 0.25 0 0 1 13.112895 3.6380208 z M 12.112956 4.6379598 A 0.25 0.25 0 0 1 12.36307 4.8880737 A 0.25 0.25 0 0 1 12.112956 5.1376709 A 0.25 0.25 0 0 1 11.862842 4.8880737 A 0.25 0.25 0 0 1 12.112956 4.6379598 z M 13.112895 4.6379598 A 0.25 0.25 0 0 1 13.363009 4.8880737 A 0.25 0.25 0 0 1 13.112895 5.1376709 A 0.25 0.25 0 0 1 12.862781 4.8880737 A 0.25 0.25 0 0 1 13.112895 4.6379598 z " />
  <metadata
     id="metadata1762">
    <rdf:RDF>
      <cc:Work
         rdf:about="">
        <dc:title>SVG Image created as Simple Graphic-F_Cu.svg date 2024/07/19 01:13:17 </dc:title>
      </cc:Work>
    </rdf:RDF>
  </metadata>
</svg>
