<?xml version="1.0" standalone="no"?>
 <!DOCTYPE svg PUBLIC "-//W3C//DTD SVG 1.1//EN" 
 "http://www.w3.org/Graphics/SVG/1.1/DTD/svg11.dtd"> 
<svg
  xmlns:svg="http://www.w3.org/2000/svg"
  xmlns="http://www.w3.org/2000/svg"
  xmlns:xlink="http://www.w3.org/1999/xlink"
  version="1.1"
  width="15.0368mm" height="7.0358mm" viewBox="0.0000 0.0000 15.0368 7.0358">
<title>SVG Image created as Simple Graphic-brd.svg date 2024/07/19 00:52:03 </title>
  <desc>Image generated by PCBNEW </desc>
<g style="fill:#000000; fill-opacity:1.0000;stroke:#000000; stroke-opacity:1.0000;
stroke-linecap:round; stroke-linejoin:round;"
 transform="translate(0 0) scale(1 1)">
<path style="fill:#4D7FC4; fill-opacity:1.0000; stroke:none;fill-rule:evenodd;"
d="M 11.6880,2.3129
11.6880,1.4629
12.5380,1.4629
12.5380,2.3129
Z" /> 
</g>
<g style="fill:#4D7FC4; fill-opacity:1.0000; stroke:none;">
<circle cx="13.1130" cy="1.8879" r="0.4250" /> 
<circle cx="12.1130" cy="2.8879" r="0.4250" /> 
<circle cx="13.1130" cy="2.8879" r="0.4250" /> 
<circle cx="12.1130" cy="3.8879" r="0.4250" /> 
<circle cx="13.1130" cy="3.8879" r="0.4250" /> 
<circle cx="12.1130" cy="4.8879" r="0.4250" /> 
<circle cx="13.1130" cy="4.8879" r="0.4250" /> 
</g>
<g style="fill:#ECECEC; fill-opacity:1.0000; stroke:none;">
<circle cx="3.0038" cy="2.4405" r="0.3000" /> 
<path style="fill:#4D7FC4; fill-opacity:1.0000; stroke:none;fill-rule:evenodd;"
d="M 14.3260,0.3266
14.3718,0.3794
14.3830,0.4309
14.3830,6.5329
14.3633,6.5999
14.3105,6.6457
14.2590,6.6569
0.7910,6.6569
0.7240,6.6372
0.6782,6.5844
0.6670,6.5329
0.6670,2.8879
11.1824,2.8879
11.2027,3.0814
11.2629,3.2664
11.2629,3.2664
11.2972,3.3259
11.3137,3.3938
11.2972,3.4499
11.2629,3.5094
11.2629,3.5094
11.2027,3.6944
11.1824,3.8879
11.2027,4.0814
11.2629,4.2664
11.2629,4.2664
11.2972,4.3259
11.3137,4.3938
11.2972,4.4499
11.2629,4.5094
11.2629,4.5094
11.2027,4.6944
11.1824,4.8879
11.2027,5.0814
11.2629,5.2664
11.2629,5.2664
11.3432,5.4055
11.3601,5.4349
11.4055,5.4852
11.4903,5.5794
11.4903,5.5794
11.4903,5.5794
11.6084,5.6652
11.6477,5.6938
11.7159,5.7242
11.8254,5.7729
12.0157,5.8134
12.2103,5.8134
12.4006,5.7729
12.4006,5.7729
12.4006,5.7729
12.5626,5.7008
12.6318,5.6915
12.6634,5.7008
12.8254,5.7729
12.8254,5.7729
12.8254,5.7729
13.0157,5.8134
13.2103,5.8134
13.4006,5.7729
13.5783,5.6938
13.7357,5.5794
13.8659,5.4349
13.9631,5.2664
14.0233,5.0814
14.0436,4.8879
14.0233,4.6944
13.9631,4.5094
13.9288,4.4499
13.9123,4.3820
13.9288,4.3259
13.9631,4.2664
14.0233,4.0814
14.0436,3.8879
14.0233,3.6944
13.9631,3.5094
13.9288,3.4499
13.9123,3.3820
13.9288,3.3259
13.9631,3.2664
14.0233,3.0814
14.0436,2.8879
14.0233,2.6944
13.9631,2.5094
13.9288,2.4499
13.9123,2.3820
13.9288,2.3259
13.9631,2.2664
14.0233,2.0814
14.0436,1.8879
14.0233,1.6944
13.9631,1.5094
13.9631,1.5094
13.9631,1.5094
13.9631,1.5094
13.9292,1.4506
13.8659,1.3409
13.8149,1.2843
13.7357,1.1963
13.7357,1.1963
13.7357,1.1963
13.7357,1.1963
13.6110,1.1057
13.5783,1.0820
13.4162,1.0098
13.4006,1.0028
13.4006,1.0028
13.2103,0.9624
13.0157,0.9624
12.8254,1.0028
12.8193,1.0048
12.8184,1.0022
12.7613,1.0098
12.7369,1.0034
12.6454,0.9693
12.6454,0.9693
12.5858,0.9629
12.3630,0.9629
12.3630,1.3027
12.3464,1.3647
12.2629,1.5094
12.2629,1.5094
12.2142,1.6592
12.1627,1.6379
12.0633,1.6379
11.9714,1.6759
11.9011,1.7463
11.8630,1.8381
11.8630,1.9376
11.8848,1.9902
11.8254,2.0028
11.6477,2.0820
11.6033,2.1142
11.5375,2.1377
11.5304,2.1379
11.1880,2.1379
11.1880,2.3607
11.1944,2.4202
11.1944,2.4203
11.2313,2.5193
11.2363,2.5890
11.2331,2.6010
11.2027,2.6944
11.1824,2.8879
0.6670,2.8879
0.6670,1.4150
11.1880,1.4150
11.1880,1.6379
11.8630,1.6379
11.8630,0.9629
11.6402,0.9629
11.5806,0.9693
11.5806,0.9693
11.4459,1.0195
11.4459,1.0195
11.3308,1.1057
11.3308,1.1057
11.2446,1.2208
11.2446,1.2208
11.1944,1.3555
11.1944,1.3555
11.1880,1.4150
0.6670,1.4150
0.6670,0.4309
0.6867,0.3638
0.7395,0.3181
0.7910,0.3069
14.2590,0.3069
Z" /> 
</g>
<g style="fill:#FFFFFF; fill-opacity:1.0000; stroke:none;">
<circle cx="3.0038" cy="2.4405" r="0.1500" /> 
</g>
<g style="fill:#FFFFFF; fill-opacity:1.0000; stroke:none;">
<circle cx="12.1130" cy="1.8879" r="0.2500" /> 
</g>
<g style="fill:#FFFFFF; fill-opacity:1.0000; stroke:none;">
<circle cx="13.1130" cy="1.8879" r="0.2500" /> 
</g>
<g style="fill:#FFFFFF; fill-opacity:1.0000; stroke:none;">
<circle cx="12.1130" cy="2.8879" r="0.2500" /> 
</g>
<g style="fill:#FFFFFF; fill-opacity:1.0000; stroke:none;">
<circle cx="13.1130" cy="2.8879" r="0.2500" /> 
</g>
<g style="fill:#FFFFFF; fill-opacity:1.0000; stroke:none;">
<circle cx="12.1130" cy="3.8879" r="0.2500" /> 
</g>
<g style="fill:#FFFFFF; fill-opacity:1.0000; stroke:none;">
<circle cx="13.1130" cy="3.8879" r="0.2500" /> 
</g>
<g style="fill:#FFFFFF; fill-opacity:1.0000; stroke:none;">
<circle cx="12.1130" cy="4.8879" r="0.2500" /> 
</g>
<g style="fill:#FFFFFF; fill-opacity:1.0000; stroke:none;">
<circle cx="13.1130" cy="4.8879" r="0.2500" /> 
<path style="fill:#02FFEE; fill-opacity:0.4000; stroke:none;fill-rule:evenodd;"
d="M 11.6880,2.3129
11.6880,1.4629
12.5380,1.4629
12.5380,2.3129
Z" /> 
</g>
<g style="fill:#02FFEE; fill-opacity:0.4000; stroke:none;">
<circle cx="13.1130" cy="1.8879" r="0.4250" /> 
<circle cx="12.1130" cy="2.8879" r="0.4250" /> 
<circle cx="13.1130" cy="2.8879" r="0.4250" /> 
<circle cx="12.1130" cy="3.8879" r="0.4250" /> 
<circle cx="13.1130" cy="3.8879" r="0.4250" /> 
<circle cx="12.1130" cy="4.8879" r="0.4250" /> 
<circle cx="13.1130" cy="4.8879" r="0.4250" /> 
<path style="fill:#E8B2A7; fill-opacity:1.0000; stroke:none;fill-rule:evenodd;"
d="M 4.4633,4.7908
4.4869,4.8193
4.5181,4.8945
4.5546,5.0705
4.5558,5.2938
4.5218,5.4702
4.4900,5.5526
4.4667,5.5830
4.4188,5.6138
4.3853,5.6143
4.3387,5.5862
4.3151,5.5577
4.2839,5.4825
4.2474,5.3064
4.2461,5.0832
4.2802,4.9068
4.3120,4.8243
4.3353,4.7940
4.3832,4.7632
4.4167,4.7626
Z" /> 
<path style="fill:#E8B2A7; fill-opacity:1.0000; stroke:none;fill-rule:evenodd;"
d="M 4.5117,3.7947
4.5357,3.8524
4.5366,3.9191
4.5131,3.9800
4.4762,4.0037
4.3286,4.0047
4.3043,3.9900
4.3038,3.7724
4.3058,3.7726
4.4734,3.7714
Z" /> 
<path style="fill:#E8B2A7; fill-opacity:1.0000; stroke:none;fill-rule:evenodd;"
d="M 5.2987,4.0041
5.1995,4.0048
5.1153,3.9707
5.0582,3.9009
5.0267,3.8249
4.9903,3.6489
4.9891,3.5204
5.0230,3.3445
5.0548,3.2622
5.1124,3.1886
5.1943,3.1535
5.2975,3.1527
Z" /> 
<path style="fill:#E8B2A7; fill-opacity:1.0000; stroke:none;fill-rule:evenodd;"
d="M 6.7083,4.0039
6.5002,4.0048
6.4530,3.9762
6.4293,3.9477
6.3997,3.8762
6.3987,3.7622
6.4263,3.6906
6.4463,3.6645
6.5276,3.6297
6.7077,3.6288
Z" /> 
<path style="fill:#E8B2A7; fill-opacity:1.0000; stroke:none;fill-rule:evenodd;"
d="M 6.7075,3.4801
6.5383,3.4810
6.4911,3.4524
6.4674,3.4239
6.4377,3.3523
6.4369,3.2856
6.4644,3.2144
6.4877,3.1841
6.5352,3.1534
6.7071,3.1526
Z" /> 
<path style="fill:#E8B2A7; fill-opacity:1.0000; stroke:none;fill-rule:evenodd;"
d="M 8.3076,3.5277
8.1002,3.5286
8.0530,3.5000
8.0293,3.4716
7.9997,3.4000
7.9987,3.2860
8.0263,3.2144
8.0496,3.1841
8.0971,3.1535
8.3071,3.1525
Z" /> 
<path style="fill:#E8B2A7; fill-opacity:1.0000; stroke:none;fill-rule:evenodd;"
d="M 3.1213,1.8990
3.1451,1.9565
3.1454,2.0396
2.9133,1.9825
2.9131,1.9614
2.9366,1.9005
2.9734,1.8768
3.0830,1.8758
Z" /> 
<path style="fill:#E8B2A7; fill-opacity:1.0000; stroke:none;fill-rule:evenodd;"
d="M 4.4927,2.1847
4.5166,2.2425
4.5175,2.3091
4.4940,2.3700
4.4572,2.3937
4.3096,2.3948
4.2853,2.3801
4.2847,2.1625
4.2867,2.1627
4.4543,2.1615
Z" /> 
<path style="fill:#E8B2A7; fill-opacity:1.0000; stroke:none;fill-rule:evenodd;"
d="M 6.7022,1.8990
6.7260,1.9565
6.7263,2.0396
6.4943,1.9825
6.4940,1.9614
6.5175,1.9005
6.5544,1.8768
6.6639,1.8758
Z" /> 
<path style="fill:#E8B2A7; fill-opacity:1.0000; stroke:none;fill-rule:evenodd;"
d="M 8.7594,2.1847
8.7833,2.2425
8.7842,2.3091
8.7607,2.3700
8.7239,2.3937
8.5763,2.3948
8.5520,2.3801
8.5514,2.1625
8.5534,2.1627
8.7210,2.1615
Z" /> 
<path style="fill:#E8B2A7; fill-opacity:1.0000; stroke:none;fill-rule:evenodd;"
d="M 9.4451,1.8990
9.4689,1.9565
9.4692,2.0396
9.2371,1.9825
9.2369,1.9614
9.2604,1.9005
9.2972,1.8768
9.4068,1.8758
Z" /> 
<path style="fill:#E8B2A7; fill-opacity:1.0000; stroke:none;fill-rule:evenodd;"
d="M 10.4919,6.1123
1.5101,6.1123
1.5101,5.3405
2.5370,5.3405
2.5370,5.3698
2.5482,5.3968
2.5689,5.4175
2.5959,5.4287
2.6105,5.4302
2.6507,5.4300
2.6512,5.7031
2.6624,5.7302
2.6831,5.7509
2.7102,5.7621
2.7394,5.7621
2.7665,5.7509
2.7872,5.7302
2.7984,5.7031
2.7998,5.6885
2.7993,5.4296
3.1013,5.4288
3.1106,5.4300
3.1153,5.4287
3.1204,5.4287
3.1294,5.4250
3.1389,5.4225
3.1428,5.4194
3.1474,5.4175
3.1543,5.4106
3.1621,5.4047
3.1646,5.4004
3.1681,5.3968
3.1719,5.3878
3.1768,5.3794
3.1774,5.3744
3.1793,5.3698
3.1793,5.3600
3.1806,5.3503
3.1793,5.3425
3.1793,5.3405
3.1788,5.3392
3.1782,5.3358
3.0555,4.8790
3.3355,4.8790
3.3367,4.9711
3.3357,4.9790
3.3369,4.9867
3.3370,4.9888
3.3375,4.9901
3.3381,4.9935
3.3739,5.1233
3.3739,5.1235
3.3750,5.1274
3.3813,5.1502
3.3818,5.1508
3.3820,5.1516
3.3901,5.1639
3.7515,5.6139
3.3959,5.6149
3.3689,5.6261
3.3482,5.6468
3.3370,5.6739
3.3370,5.7031
3.3482,5.7302
3.3689,5.7509
3.3959,5.7621
3.4105,5.7635
3.9022,5.7621
3.9122,5.7632
3.9162,5.7621
3.9204,5.7621
3.9301,5.7580
3.9403,5.7551
3.9436,5.7525
3.9474,5.7509
3.9549,5.7434
3.9631,5.7368
3.9652,5.7331
3.9681,5.7302
3.9722,5.7204
3.9773,5.7112
3.9777,5.7070
3.9793,5.7031
3.9793,5.6926
3.9805,5.6821
3.9793,5.6781
3.9793,5.6739
3.9753,5.6641
3.9723,5.6540
3.9689,5.6486
3.9681,5.6468
3.9669,5.6456
3.9643,5.6416
3.5177,5.0856
3.5132,5.0694
4.0974,5.0694
4.0974,5.0694
4.0974,5.0694
4.0987,5.3009
4.0974,5.3076
4.0989,5.3221
4.0989,5.3222
4.0989,5.3222
4.0989,5.3222
4.1369,5.5056
4.1368,5.5118
4.1409,5.5259
4.1413,5.5268
4.1413,5.5268
4.1413,5.5268
4.1795,5.6192
4.1820,5.6278
4.1850,5.6323
4.1858,5.6342
4.1870,5.6355
4.1901,5.6401
4.2305,5.6887
4.2353,5.6955
4.2376,5.6972
4.2384,5.6983
4.2401,5.6992
4.2470,5.7045
4.3178,5.7474
4.3212,5.7509
4.3284,5.7538
4.3363,5.7586
4.3425,5.7597
4.3483,5.7621
4.3629,5.7635
4.3652,5.7635
4.3652,5.7635
4.3652,5.7635
4.4322,5.7624
4.4368,5.7635
4.4443,5.7622
4.4537,5.7621
4.4595,5.7597
4.4657,5.7586
4.4788,5.7521
4.5555,5.7027
4.5636,5.6983
4.5656,5.6962
4.5667,5.6955
4.5678,5.6939
4.5739,5.6877
4.6106,5.6399
4.6162,5.6342
4.6187,5.6294
4.6200,5.6278
4.6205,5.6260
4.6230,5.6211
4.6576,5.5315
4.6607,5.5268
4.6650,5.5127
4.6652,5.5118
4.6652,5.5118
4.6652,5.5117
4.7006,5.3283
4.7031,5.3222
4.7046,5.3077
4.7046,5.3076
4.7046,5.3076
4.7046,5.3075
4.7033,5.0760
4.7046,5.0694
4.7031,5.0549
4.7031,5.0548
4.7031,5.0548
4.7031,5.0547
4.6667,4.8790
4.8593,4.8790
4.8605,4.9711
4.8595,4.9790
4.8607,4.9867
4.8608,4.9888
4.8613,4.9901
4.8619,4.9935
4.8977,5.1233
4.8977,5.1235
4.8988,5.1274
4.9051,5.1502
4.9056,5.1508
4.9058,5.1516
4.9139,5.1639
5.2753,5.6139
4.9197,5.6149
4.8927,5.6261
4.8720,5.6468
4.8608,5.6739
4.8608,5.7031
4.8720,5.7302
4.8927,5.7509
4.9197,5.7621
4.9343,5.7635
5.4260,5.7621
5.4360,5.7632
5.4400,5.7621
5.4442,5.7621
5.4540,5.7580
5.4641,5.7551
5.4674,5.7525
5.4712,5.7509
5.4787,5.7434
5.4869,5.7368
5.4890,5.7331
5.4919,5.7302
5.4960,5.7204
5.5011,5.7112
5.5015,5.7070
5.5031,5.7031
5.5031,5.6926
5.5043,5.6821
5.5031,5.6781
5.5031,5.6739
5.4991,5.6641
5.4962,5.6540
5.4927,5.6486
5.4919,5.6468
5.4907,5.6456
5.4881,5.6416
5.0415,5.0856
5.0093,4.9687
5.0083,4.8956
5.0358,4.8243
5.0591,4.7940
5.1067,4.7634
5.2543,4.7623
5.3013,4.7908
5.3432,4.8411
5.3688,4.8552
5.3979,4.8585
5.4260,4.8503
5.4489,4.8320
5.4630,4.8064
5.4662,4.7773
5.4581,4.7492
5.4500,4.7369
5.4096,4.6883
5.4048,4.6815
5.4025,4.6798
5.4017,4.6787
5.4000,4.6778
5.3931,4.6725
5.3287,4.6335
5.5454,4.6335
5.5483,4.6626
5.5539,4.6762
6.2477,5.9741
6.2703,5.9927
6.2983,6.0012
6.3275,5.9984
6.3533,5.9846
6.3719,5.9620
6.3804,5.9340
6.3776,5.9049
6.3719,5.8913
6.2557,5.6739
6.4608,5.6739
6.4608,5.7031
6.4720,5.7302
6.4927,5.7509
6.5197,5.7621
6.5343,5.7635
7.0061,5.7621
7.0331,5.7509
7.0538,5.7302
7.0650,5.7031
7.0650,5.6739
7.0538,5.6468
7.0331,5.6261
7.0061,5.6149
6.9915,5.6135
6.8378,5.6140
6.8369,4.9471
6.8581,4.9731
6.8639,4.9812
6.8662,4.9830
6.8670,4.9840
6.8687,4.9849
6.8755,4.9902
6.9649,5.0443
6.9938,5.0492
7.0223,5.0426
7.0461,5.0256
7.0616,5.0008
7.0664,4.9719
7.0599,4.9434
7.0429,4.9196
7.0312,4.9106
6.9790,4.8790
7.2212,4.8790
7.2224,4.9711
7.2214,4.9790
7.2226,4.9867
7.2227,4.9888
7.2232,4.9901
7.2238,4.9935
7.2596,5.1233
7.2596,5.1235
7.2607,5.1274
7.2670,5.1502
7.2675,5.1508
7.2678,5.1516
7.2758,5.1639
7.6372,5.6139
7.2816,5.6149
7.2546,5.6261
7.2339,5.6468
7.2227,5.6739
7.2227,5.7031
7.2339,5.7302
7.2546,5.7509
7.2816,5.7621
7.2962,5.7635
7.7879,5.7621
7.7979,5.7632
7.8019,5.7621
7.8061,5.7621
7.8159,5.7580
7.8260,5.7551
7.8293,5.7525
7.8331,5.7509
7.8406,5.7434
7.8489,5.7368
7.8509,5.7331
7.8538,5.7302
7.8579,5.7204
7.8630,5.7112
7.8634,5.7070
7.8650,5.7031
7.8650,5.6926
7.8662,5.6821
7.8650,5.6781
7.8650,5.6739
7.8610,5.6641
7.8581,5.6540
7.8546,5.6486
7.8538,5.6468
7.8526,5.6456
7.8500,5.6416
7.4034,5.0856
7.3712,4.9687
7.3702,4.8956
7.3977,4.8243
7.4210,4.7940
7.4686,4.7634
7.6162,4.7623
7.6633,4.7908
7.7051,4.8411
7.7307,4.8552
7.7598,4.8585
7.7879,4.8503
7.8108,4.8320
7.8249,4.8064
7.8281,4.7773
7.8200,4.7492
7.8119,4.7369
7.7715,4.6883
7.7667,4.6815
7.7644,4.6798
7.7636,4.6787
7.7619,4.6778
7.7550,4.6725
7.6906,4.6335
7.9073,4.6335
7.9102,4.6626
7.9158,4.6762
8.6096,5.9741
8.6323,5.9927
8.6602,6.0012
8.6894,5.9984
8.7152,5.9846
8.7338,5.9620
8.7423,5.9340
8.7395,5.9049
8.7338,5.8913
8.0962,4.6985
8.7838,4.6985
8.7846,4.7018
8.7846,4.7031
8.7853,4.7049
8.7872,4.7128
9.1362,5.7262
9.1555,5.7481
9.1818,5.7610
9.2110,5.7628
9.2387,5.7533
9.2606,5.7340
9.2735,5.7077
9.2753,5.6785
9.2719,5.6642
8.9617,4.7632
9.4061,4.7621
9.4331,4.7509
9.4538,4.7302
9.4650,4.7031
9.4650,4.6739
9.4538,4.6468
9.4331,4.6261
9.4061,4.6149
9.3915,4.6135
8.8597,4.6149
8.8481,4.6142
8.8459,4.6149
8.8435,4.6149
8.8321,4.6197
8.8204,4.6237
8.8187,4.6252
8.8165,4.6261
8.8078,4.6349
8.7985,4.6430
8.7975,4.6451
8.7958,4.6468
8.7911,4.6582
8.7856,4.6693
8.7855,4.6717
8.7846,4.6739
8.7846,4.6862
8.7838,4.6985
8.0962,4.6985
8.0400,4.5933
8.0174,4.5748
7.9894,4.5662
7.9602,4.5691
7.9344,4.5829
7.9158,4.6055
7.9073,4.6335
7.6906,4.6335
7.6842,4.6296
7.6808,4.6261
7.6736,4.6232
7.6657,4.6184
7.6595,4.6173
7.6537,4.6149
7.6391,4.6135
7.4563,4.6148
7.4509,4.6135
7.4429,4.6149
7.4340,4.6149
7.4282,4.6173
7.4220,4.6184
7.4089,4.6249
7.3323,4.6743
7.3241,4.6787
7.3221,4.6808
7.3210,4.6815
7.3199,4.6830
7.3139,4.6893
7.2771,4.7371
7.2715,4.7428
7.2690,4.7476
7.2678,4.7492
7.2672,4.7510
7.2647,4.7559
7.2252,4.8582
7.2227,4.8643
7.2226,4.8649
7.2225,4.8652
7.2225,4.8660
7.2212,4.8790
6.9790,4.8790
6.9675,4.8720
6.9049,4.7954
6.8290,4.6557
6.8253,4.6468
6.8227,4.6443
6.8209,4.6410
6.8124,4.6339
6.8046,4.6261
6.8012,4.6247
6.7983,4.6224
6.7877,4.6192
6.7775,4.6149
6.7738,4.6149
6.7703,4.6139
6.7593,4.6149
6.7483,4.6149
6.7449,4.6163
6.7412,4.6167
6.7314,4.6219
6.7212,4.6261
6.7186,4.6287
6.7154,4.6305
6.7084,4.6390
6.7005,4.6468
6.6991,4.6502
6.6968,4.6531
6.6936,4.6637
6.6893,4.6739
6.6888,4.6793
6.6883,4.6811
6.6885,4.6829
6.6879,4.6885
6.6892,5.6144
6.5197,5.6149
6.4927,5.6261
6.4720,5.6468
6.4608,5.6739
6.2557,5.6739
5.6781,4.5933
5.6555,4.5748
5.6275,4.5662
5.5983,4.5691
5.5725,4.5829
5.5539,4.6055
5.5454,4.6335
5.3287,4.6335
5.3223,4.6296
5.3189,4.6261
5.3117,4.6232
5.3038,4.6184
5.2976,4.6173
5.2918,4.6149
5.2772,4.6135
5.0944,4.6148
5.0890,4.6135
5.0810,4.6149
5.0721,4.6149
5.0663,4.6173
5.0601,4.6184
5.0470,4.6249
4.9703,4.6743
4.9622,4.6787
4.9602,4.6808
4.9591,4.6815
4.9580,4.6830
4.9520,4.6893
4.9152,4.7371
4.9096,4.7428
4.9071,4.7476
4.9058,4.7492
4.9053,4.7510
4.9028,4.7559
4.8633,4.8582
4.8608,4.8643
4.8607,4.8649
4.8606,4.8652
4.8606,4.8660
4.8593,4.8790
4.6667,4.8790
4.6651,4.8714
4.6652,4.8652
4.6611,4.8511
4.6607,4.8502
4.6607,4.8502
4.6607,4.8502
4.6225,4.7578
4.6200,4.7492
4.6170,4.7447
4.6162,4.7428
4.6150,4.7415
4.6119,4.7369
4.5715,4.6883
4.5667,4.6815
4.5644,4.6798
4.5636,4.6787
4.5619,4.6778
4.5550,4.6725
4.4842,4.6296
4.4808,4.6261
4.4736,4.6232
4.4657,4.6184
4.4595,4.6173
4.4537,4.6149
4.4391,4.6135
4.4368,4.6135
4.4368,4.6135
4.4368,4.6135
4.3698,4.6146
4.3652,4.6135
4.3577,4.6148
4.3483,4.6149
4.3425,4.6173
4.3363,4.6184
4.3232,4.6249
4.2465,4.6743
4.2384,4.6787
4.2364,4.6808
4.2353,4.6815
4.2342,4.6830
4.2281,4.6893
4.1914,4.7371
4.1858,4.7428
4.1833,4.7476
4.1820,4.7492
4.1815,4.7510
4.1790,4.7559
4.1444,4.8455
4.1413,4.8502
4.1370,4.8643
4.1014,5.0486
4.0989,5.0548
4.0974,5.0693
4.0974,5.0694
3.5132,5.0694
3.4854,4.9687
3.4845,4.8956
3.5120,4.8243
3.5353,4.7940
3.5829,4.7634
3.7305,4.7623
3.7775,4.7908
3.8194,4.8411
3.8450,4.8552
3.8741,4.8585
3.9022,4.8503
3.9250,4.8320
3.9392,4.8064
3.9424,4.7773
3.9342,4.7492
3.9262,4.7369
3.8858,4.6883
3.8810,4.6815
3.8787,4.6798
3.8779,4.6787
3.8762,4.6778
3.8693,4.6725
3.7985,4.6296
3.7950,4.6261
3.7879,4.6232
3.7800,4.6184
3.7738,4.6173
3.7680,4.6149
3.7534,4.6135
3.5706,4.6148
3.5652,4.6135
3.5572,4.6149
3.5483,4.6149
3.5425,4.6173
3.5363,4.6184
3.5232,4.6249
3.4465,4.6743
3.4384,4.6787
3.4364,4.6808
3.4353,4.6815
3.4342,4.6830
3.4281,4.6893
3.3914,4.7371
3.3858,4.7428
3.3833,4.7476
3.3820,4.7492
3.3815,4.7510
3.3790,4.7559
3.3395,4.8582
3.3370,4.8643
3.3369,4.8649
3.3368,4.8652
3.3368,4.8660
3.3355,4.8790
3.0555,4.8790
2.9826,4.6078
2.9648,4.5845
2.9395,4.5699
2.9105,4.5660
2.8822,4.5736
2.8590,4.5914
2.8443,4.6167
2.8404,4.6457
2.8428,4.6602
3.0095,5.2804
2.7989,5.2810
2.7984,5.0072
2.7872,4.9802
2.7665,4.9595
2.7394,4.9483
2.7102,4.9483
2.6831,4.9595
2.6624,4.9802
2.6512,5.0072
2.6498,5.0218
2.6504,5.2814
2.5959,5.2816
2.5689,5.2928
2.5482,5.3135
2.5370,5.3405
1.5101,5.3405
1.5101,3.4180
3.4691,3.4180
3.4717,3.4325
3.6599,4.0860
3.6598,4.0870
3.6629,4.1014
3.7409,4.3406
3.7439,4.3512
3.7447,4.3524
3.7449,4.3530
3.7458,4.3541
3.7520,4.3635
3.7924,4.4121
3.7972,4.4189
3.7995,4.4206
3.8003,4.4216
3.8020,4.4226
3.8089,4.4279
3.8982,4.4820
3.9271,4.4868
3.9556,4.4803
3.9794,4.4633
3.9949,4.4385
3.9998,4.4096
3.9932,4.3811
3.9762,4.3573
3.9646,4.3483
3.9006,4.3096
3.8784,4.2828
3.8121,4.0794
3.9608,3.5547
4.1546,3.5547
4.1548,3.6509
4.1546,3.6523
4.1548,3.6533
4.1558,4.0259
4.1546,4.0332
4.1559,4.0387
4.1560,4.0932
4.1672,4.1202
4.1879,4.1409
4.2149,4.1521
4.2442,4.1521
4.2677,4.1424
4.2712,4.1439
4.2792,4.1487
4.2854,4.1497
4.2911,4.1521
4.3058,4.1536
4.4885,4.1523
4.4940,4.1535
4.5020,4.1522
4.5109,4.1521
4.5166,4.1497
4.5228,4.1487
4.5360,4.1421
4.6082,4.0956
4.6149,4.0928
4.6187,4.0889
4.6238,4.0856
4.6290,4.0783
4.6353,4.0718
4.6398,4.0631
4.6408,4.0617
4.6410,4.0608
4.6421,4.0588
4.6816,3.9564
4.6841,3.9503
4.6841,3.9497
4.6843,3.9494
4.6842,3.9487
4.6855,3.9357
4.6842,3.8331
4.6843,3.8267
4.6841,3.8261
4.6841,3.8258
4.6838,3.8251
4.6802,3.8126
4.6425,3.7217
4.6408,3.7144
4.6376,3.7100
4.6353,3.7043
4.6290,3.6979
4.6238,3.6906
4.6161,3.6846
4.6149,3.6834
4.6139,3.6830
4.6122,3.6816
4.5414,3.6387
4.5379,3.6352
4.5308,3.6323
4.5228,3.6275
4.5166,3.6264
4.5109,3.6240
4.4962,3.6226
4.3286,3.6238
4.3033,3.6084
4.3032,3.5722
4.3270,3.5105
4.3639,3.4867
4.4735,3.4858
4.5458,3.5296
4.5747,3.5345
4.6032,3.5279
4.6271,3.5109
4.6295,3.5070
4.8403,3.5070
4.8403,3.5071
4.8403,3.5071
4.8415,3.6437
4.8403,3.6501
4.8417,3.6645
4.8417,3.6646
4.8417,3.6646
4.8417,3.6647
4.8797,3.8480
4.8796,3.8542
4.8837,3.8683
4.8841,3.8692
4.8841,3.8692
4.8841,3.8693
4.9224,3.9616
4.9249,3.9702
4.9279,3.9748
4.9286,3.9766
4.9299,3.9779
4.9329,3.9825
5.0040,4.0695
5.0052,4.0725
5.0119,4.0792
5.0194,4.0883
5.0230,4.0903
5.0259,4.0932
5.0388,4.1002
5.1672,4.1521
5.1672,4.1521
5.1673,4.1521
5.1820,4.1536
5.3871,4.1521
5.4141,4.1409
5.4348,4.1202
5.4460,4.0932
5.4474,4.0785
5.4470,3.7452
6.2498,3.7452
6.2512,3.8941
6.2511,3.9018
6.2512,3.9024
6.2512,3.9027
6.2515,3.9034
6.2552,3.9159
6.2938,4.0092
6.2963,4.0178
6.2993,4.0224
6.3000,4.0242
6.3013,4.0255
6.3043,4.0302
6.3448,4.0788
6.3496,4.0856
6.3518,4.0873
6.3527,4.0883
6.3544,4.0892
6.3613,4.0945
6.4320,4.1374
6.4355,4.1409
6.4427,4.1439
6.4506,4.1487
6.4568,4.1497
6.4626,4.1521
6.4772,4.1536
6.7966,4.1521
6.8236,4.1409
6.8443,4.1202
6.8555,4.0932
6.8570,4.0785
6.8557,3.1674
7.0501,3.1674
7.0533,3.1965
7.0674,3.2221
7.0903,3.2404
7.1184,3.2485
7.1475,3.2453
7.1731,3.2312
7.1834,3.2206
7.2082,3.1883
7.2898,3.1533
7.3365,3.1526
7.4201,3.1864
7.4771,3.2562
7.5086,3.3322
7.5451,3.5082
7.5462,3.6367
7.5123,3.8126
7.4806,3.8949
7.4229,3.9685
7.3408,4.0037
7.2941,4.0045
7.2102,3.9706
7.1731,3.9259
7.1475,3.9118
7.1184,3.9086
7.0903,3.9167
7.0674,3.9350
7.0533,3.9606
7.0501,3.9897
7.0582,4.0178
7.0662,4.0302
7.0995,4.0702
7.1005,4.0725
7.1064,4.0784
7.1146,4.0883
7.1182,4.0903
7.1211,4.0932
7.1341,4.1002
7.2624,4.1521
7.2625,4.1521
7.2626,4.1521
7.2772,4.1536
7.3680,4.1521
7.3681,4.1521
7.3682,4.1521
7.3822,4.1478
7.4871,4.1028
7.4903,4.1024
7.4987,4.0978
7.5095,4.0932
7.5124,4.0903
7.5160,4.0883
7.5262,4.0778
7.6003,3.9832
7.6067,3.9766
7.6092,3.9718
7.6104,3.9702
7.6110,3.9684
7.6135,3.9635
7.6481,3.8739
7.6512,3.8692
7.6555,3.8552
7.6557,3.8542
7.6557,3.8542
7.6557,3.8542
7.6911,3.6708
7.6936,3.6646
7.6950,3.6501
7.6950,3.6501
7.6950,3.6500
7.6950,3.6500
7.6938,3.5134
7.6950,3.5070
7.6936,3.4926
7.6936,3.4925
7.6936,3.4925
7.6936,3.4924
7.6556,3.3091
7.6557,3.3029
7.6516,3.2888
7.6512,3.2879
7.6512,3.2879
7.6512,3.2878
7.6434,3.2690
7.8498,3.2690
7.8512,3.4179
7.8511,3.4256
7.8512,3.4262
7.8512,3.4265
7.8515,3.4272
7.8552,3.4397
7.8938,3.5330
7.8963,3.5416
7.8993,3.5462
7.9000,3.5480
7.9013,3.5493
7.9043,3.5540
7.9448,3.6026
7.9496,3.6094
7.9518,3.6111
7.9527,3.6121
7.9544,3.6130
7.9612,3.6183
8.0320,3.6612
8.0355,3.6647
8.0427,3.6677
8.0506,3.6725
8.0568,3.6735
8.0626,3.6759
8.0772,3.6774
8.3078,3.6763
8.3084,4.0932
8.3196,4.1202
8.3403,4.1409
8.3673,4.1521
8.3966,4.1521
8.4236,4.1409
8.4443,4.1202
8.4555,4.0932
8.4570,4.0785
8.4555,3.0639
8.4443,3.0369
8.4236,3.0162
8.3966,3.0050
8.3820,3.0035
8.0851,3.0049
8.0795,3.0036
8.0713,3.0050
8.0626,3.0050
8.0568,3.0074
8.0506,3.0084
8.0374,3.0149
7.9608,3.0643
7.9527,3.0688
7.9507,3.0708
7.9496,3.0715
7.9485,3.0731
7.9424,3.0793
7.9057,3.1271
7.9000,3.1329
7.8976,3.1376
7.8963,3.1393
7.8958,3.1410
7.8933,3.1459
7.8538,3.2483
7.8512,3.2544
7.8512,3.2550
7.8511,3.2553
7.8511,3.2561
7.8498,3.2690
7.6434,3.2690
7.6129,3.1955
7.6104,3.1869
7.6075,3.1823
7.6067,3.1805
7.6054,3.1792
7.6024,3.1746
7.5313,3.0876
7.5301,3.0846
7.5234,3.0779
7.5160,3.0688
7.5124,3.0668
7.5095,3.0639
7.4965,3.0569
7.3682,3.0050
7.3681,3.0050
7.3680,3.0050
7.3534,3.0035
7.2626,3.0050
7.2625,3.0050
7.2624,3.0050
7.2483,3.0093
7.1434,3.0543
7.1402,3.0547
7.1319,3.0593
7.1211,3.0639
7.1182,3.0668
7.1146,3.0688
7.1043,3.0793
7.0582,3.1393
7.0501,3.1674
6.8557,3.1674
6.8555,3.0639
6.8443,3.0369
6.8236,3.0162
6.7966,3.0050
6.7820,3.0035
6.5232,3.0049
6.5176,3.0036
6.5094,3.0049
6.5007,3.0050
6.4949,3.0074
6.4887,3.0084
6.4755,3.0149
6.3989,3.0643
6.3908,3.0688
6.3888,3.0708
6.3877,3.0715
6.3866,3.0731
6.3805,3.0793
6.3437,3.1271
6.3381,3.1329
6.3357,3.1376
6.3344,3.1393
6.3339,3.1410
6.3314,3.1459
6.2919,3.2483
6.2893,3.2544
6.2893,3.2550
6.2892,3.2553
6.2892,3.2561
6.2879,3.2690
6.2893,3.3716
6.2892,3.3780
6.2893,3.3786
6.2893,3.3789
6.2896,3.3796
6.2933,3.3921
6.3319,3.4854
6.3344,3.4940
6.3374,3.4986
6.3381,3.5004
6.3394,3.5017
6.3424,3.5064
6.3675,3.5365
6.3592,3.5401
6.3563,3.5430
6.3527,3.5450
6.3424,3.5555
6.3057,3.6033
6.3000,3.6091
6.2976,3.6138
6.2963,3.6155
6.2958,3.6172
6.2933,3.6221
6.2538,3.7245
6.2512,3.7306
6.2512,3.7312
6.2511,3.7315
6.2511,3.7322
6.2498,3.7452
5.4470,3.7452
5.4460,3.0639
5.4348,3.0369
5.4141,3.0162
5.3871,3.0050
5.3724,3.0035
5.1673,3.0050
5.1672,3.0050
5.1672,3.0050
5.1531,3.0093
5.0482,3.0543
5.0450,3.0547
5.0367,3.0593
5.0259,3.0639
5.0230,3.0668
5.0194,3.0688
5.0091,3.0793
4.9351,3.1739
4.9286,3.1805
4.9261,3.1853
4.9249,3.1869
4.9244,3.1887
4.9218,3.1936
4.8873,3.2832
4.8841,3.2879
4.8798,3.3019
4.8443,3.4863
4.8417,3.4925
4.8403,3.5070
4.8403,3.5070
4.6295,3.5070
4.6426,3.4861
4.6474,3.4572
4.6408,3.4287
4.6238,3.4049
4.6122,3.3959
4.5414,3.3530
4.5379,3.3495
4.5308,3.3466
4.5228,3.3417
4.5166,3.3407
4.5109,3.3383
4.4962,3.3369
4.3514,3.3381
4.3461,3.3369
4.3382,3.3382
4.3292,3.3383
4.3234,3.3407
4.3173,3.3417
4.3041,3.3483
4.2319,3.3948
4.2252,3.3977
4.2214,3.4015
4.2163,3.4049
4.2111,3.4122
4.2048,3.4186
4.2003,3.4273
4.1993,3.4287
4.1991,3.4297
4.1980,3.4316
4.1585,3.5340
4.1560,3.5401
4.1560,3.5407
4.1558,3.5410
4.1558,3.5418
4.1546,3.5547
3.9608,3.5547
3.9996,3.4180
3.9962,3.3889
3.9820,3.3634
3.9591,3.3452
3.9309,3.3371
3.9019,3.3405
3.8763,3.3547
3.8581,3.3776
3.8527,3.3913
3.7345,3.8081
3.6106,3.3776
3.5924,3.3547
3.5668,3.3405
3.5377,3.3371
3.5096,3.3452
3.4867,3.3634
3.4724,3.3889
3.4691,3.4180
1.5101,3.4180
1.5101,2.2781
1.6212,2.2781
1.6226,2.3352
1.6225,2.3395
1.6227,2.3401
1.6227,2.3404
1.6230,2.3411
1.6266,2.3536
1.6643,2.4445
1.6659,2.4518
1.6691,2.4562
1.6715,2.4619
1.6777,2.4683
1.6829,2.4756
1.6907,2.4816
1.6919,2.4828
1.6928,2.4832
1.6946,2.4846
1.7654,2.5275
1.7689,2.5310
1.7760,2.5339
1.7839,2.5387
1.7901,2.5398
1.7959,2.5422
1.8105,2.5436
1.9554,2.5424
1.9606,2.5436
1.9686,2.5422
1.9775,2.5422
1.9833,2.5398
1.9895,2.5387
2.0027,2.5322
2.0905,2.4756
2.1075,2.4518
2.1141,2.4233
2.1092,2.3944
2.0937,2.3696
2.0699,2.3526
2.0414,2.3460
2.0125,2.3509
1.9993,2.3574
1.9429,2.3938
1.8333,2.3947
1.7950,2.3715
1.7710,2.3134
1.7705,2.2940
1.7937,2.2338
1.8306,2.2100
1.9175,2.2091
1.9225,2.2102
1.9303,2.2089
1.9394,2.2088
1.9452,2.2064
1.9514,2.2054
1.9646,2.1989
2.0367,2.1524
2.0434,2.1495
2.0472,2.1456
2.0524,2.1423
2.0576,2.1350
2.0639,2.1286
2.0684,2.1199
2.0694,2.1184
2.0696,2.1175
2.0706,2.1155
2.1101,2.0132
2.1127,2.0070
2.1127,2.0064
2.1128,2.0061
2.1128,2.0054
2.1141,1.9924
2.1128,1.9354
2.1128,1.9311
2.1127,1.9305
2.1127,1.9302
2.1124,1.9295
2.1087,1.9169
2.0711,1.8260
2.0694,1.8188
2.0662,1.8143
2.0639,1.8087
2.0576,1.8022
2.0524,1.7949
2.0446,1.7890
2.0434,1.7877
2.0425,1.7873
2.0425,1.7873
2.1941,1.7873
2.1941,1.8166
2.2053,1.8436
2.2260,1.8643
2.2530,1.8755
2.2677,1.8769
2.3215,1.8761
2.3680,1.9043
2.3917,1.9327
2.4217,2.0051
2.4227,2.4832
2.4339,2.5103
2.4546,2.5310
2.4816,2.5422
2.5109,2.5422
2.5379,2.5310
2.5586,2.5103
2.5698,2.4832
2.5712,2.4686
2.5701,1.9448
2.7641,1.9448
2.7652,2.0322
2.7642,2.0364
2.7654,2.0446
2.7655,2.0547
2.7677,2.0598
2.7685,2.0653
2.7732,2.0732
2.7767,2.0817
2.7807,2.0856
2.7835,2.0904
2.7909,2.0959
2.7974,2.1024
2.8026,2.1045
2.8071,2.1078
2.8209,2.1128
3.1459,2.1928
3.1464,2.3084
3.1226,2.3700
3.0857,2.3938
2.9762,2.3947
2.9038,2.3509
2.8749,2.3460
2.8464,2.3526
2.8226,2.3696
2.8071,2.3944
2.8022,2.4233
2.8088,2.4518
2.8258,2.4756
2.8374,2.4846
2.9082,2.5275
2.9117,2.5310
2.9189,2.5339
2.9268,2.5387
2.9330,2.5398
2.9387,2.5422
2.9534,2.5436
3.0982,2.5424
3.1035,2.5436
3.1114,2.5422
3.1204,2.5422
3.1262,2.5398
3.1323,2.5387
3.1455,2.5322
3.2177,2.4857
3.2244,2.4828
3.2282,2.4789
3.2333,2.4756
3.2357,2.4723
3.4499,2.4723
3.4570,2.5006
3.4744,2.5242
3.4995,2.5392
3.5285,2.5435
3.5568,2.5364
3.5804,2.5190
3.5891,2.5072
3.7556,2.2277
3.7560,2.4832
3.7672,2.5103
3.7879,2.5310
3.8149,2.5422
3.8442,2.5422
3.8712,2.5310
3.8919,2.5103
3.9031,2.4832
3.9046,2.4686
3.9042,2.1777
3.9043,2.1765
3.9042,2.1760
3.9038,1.9448
4.1355,1.9448
4.1358,2.0410
4.1356,2.0423
4.1358,2.0433
4.1368,2.4159
4.1356,2.4233
4.1368,2.4287
4.1370,2.4832
4.1482,2.5103
4.1689,2.5310
4.1959,2.5422
4.2252,2.5422
4.2486,2.5324
4.2522,2.5339
4.2601,2.5387
4.2663,2.5398
4.2721,2.5422
4.2867,2.5436
4.4695,2.5423
4.4749,2.5436
4.4829,2.5422
4.4918,2.5422
4.4976,2.5398
4.5038,2.5387
4.5169,2.5322
4.5891,2.4857
4.5958,2.4828
4.5996,2.4789
4.6048,2.4756
4.6100,2.4683
4.6162,2.4619
4.6208,2.4532
4.6218,2.4518
4.6220,2.4508
4.6230,2.4488
4.6625,2.3465
4.6650,2.3404
4.6651,2.3398
4.6652,2.3395
4.6652,2.3387
4.6665,2.3257
4.6651,2.2231
4.6652,2.2168
4.6650,2.2162
4.6650,2.2159
4.6647,2.2152
4.6611,2.2027
4.6234,2.1117
4.6218,2.1045
4.6186,2.1000
4.6162,2.0944
4.6100,2.0879
4.6048,2.0806
4.5970,2.0747
4.5958,2.0734
4.5949,2.0730
4.5931,2.0717
4.5223,2.0288
4.5189,2.0253
4.5117,2.0223
4.5038,2.0175
4.4976,2.0165
4.4918,2.0141
4.4772,2.0127
4.3096,2.0138
4.2843,1.9985
4.2842,1.9623
4.3080,1.9005
4.3448,1.8768
4.4544,1.8758
4.5268,1.9197
4.5557,1.9245
4.5842,1.9179
4.6080,1.9010
4.6235,1.8761
4.6283,1.8473
4.6218,1.8188
4.6048,1.7949
4.5931,1.7860
4.5223,1.7431
4.5189,1.7396
4.5117,1.7366
4.5038,1.7318
4.4976,1.7308
4.4918,1.7284
4.4772,1.7269
4.3324,1.7282
4.3271,1.7270
4.3192,1.7283
4.3102,1.7284
4.3044,1.7308
4.2982,1.7318
4.2851,1.7383
4.2129,1.7848
4.2062,1.7877
4.2024,1.7916
4.1972,1.7949
4.1920,1.8022
4.1858,1.8087
4.1812,1.8173
4.1802,1.8188
4.1800,1.8197
4.1790,1.8217
4.1395,1.9241
4.1370,1.9302
4.1369,1.9308
4.1368,1.9311
4.1368,1.9318
4.1355,1.9448
3.9038,1.9448
3.9031,1.4686
4.8593,1.4686
4.8608,2.4832
4.8720,2.5103
4.8927,2.5310
4.9197,2.5422
4.9490,2.5422
4.9760,2.5310
4.9967,2.5103
5.0079,2.4832
5.0093,2.4686
5.0085,1.8795
5.1279,2.1976
5.1280,2.2001
5.1329,2.2108
5.1372,2.2223
5.1390,2.2243
5.1402,2.2267
5.1490,2.2349
5.1572,2.2437
5.1596,2.2449
5.1616,2.2467
5.1728,2.2509
5.1838,2.2559
5.1865,2.2560
5.1890,2.2569
5.2010,2.2565
5.2130,2.2569
5.2155,2.2560
5.2182,2.2559
5.2292,2.2509
5.2404,2.2467
5.2424,2.2449
5.2448,2.2437
5.2530,2.2349
5.2618,2.2267
5.2630,2.2243
5.2648,2.2223
5.2713,2.2091
5.3932,1.8805
5.3941,2.4832
5.4053,2.5103
5.4260,2.5310
5.4530,2.5422
5.4823,2.5422
5.5093,2.5310
5.5300,2.5103
5.5412,2.4832
5.5427,2.4686
5.5419,1.9448
6.3450,1.9448
6.3462,2.0322
6.3451,2.0364
6.3464,2.0446
6.3465,2.0547
6.3486,2.0598
6.3494,2.0653
6.3542,2.0732
6.3577,2.0817
6.3616,2.0856
6.3645,2.0904
6.3719,2.0959
6.3784,2.1024
6.3835,2.1045
6.3880,2.1078
6.4019,2.1128
6.7269,2.1928
6.7273,2.3084
6.7035,2.3700
6.6667,2.3938
6.5571,2.3947
6.4847,2.3509
6.4559,2.3460
6.4273,2.3526
6.4035,2.3696
6.3880,2.3944
6.3832,2.4233
6.3898,2.4518
6.4067,2.4756
6.4184,2.4846
6.4892,2.5275
6.4927,2.5310
6.4998,2.5339
6.5078,2.5387
6.5139,2.5398
6.5197,2.5422
6.5343,2.5436
6.6792,2.5424
6.6844,2.5436
6.6924,2.5422
6.7013,2.5422
6.7071,2.5398
6.7133,2.5387
6.7265,2.5322
6.7986,2.4857
6.8053,2.4828
6.8091,2.4789
6.8143,2.4756
6.8195,2.4683
6.8214,2.4663
6.9927,2.4663
6.9975,2.4952
7.0130,2.5200
7.0369,2.5370
7.0654,2.5436
7.0942,2.5387
7.1074,2.5322
7.1796,2.4857
7.1863,2.4828
7.1901,2.4789
7.1952,2.4756
7.2005,2.4683
7.2067,2.4619
7.2112,2.4532
7.2122,2.4518
7.2125,2.4508
7.2135,2.4488
7.2530,2.3465
7.2555,2.3404
7.2556,2.3398
7.2557,2.3395
7.2557,2.3387
7.2570,2.3257
7.2561,1.7873
7.3751,1.7873
7.3751,1.8166
7.3863,1.8436
7.4069,1.8643
7.4340,1.8755
7.4486,1.8769
7.5648,1.8764
7.5655,2.3082
7.5416,2.3700
7.5045,2.3939
7.4340,2.3950
7.4069,2.4062
7.3863,2.4269
7.3751,2.4540
7.3751,2.4832
7.3863,2.5103
7.4069,2.5310
7.4340,2.5422
7.4486,2.5436
7.5179,2.5425
7.5225,2.5436
7.5300,2.5423
7.5394,2.5422
7.5452,2.5398
7.5514,2.5387
7.5646,2.5322
7.6367,2.4857
7.6434,2.4828
7.6472,2.4789
7.6524,2.4756
7.6576,2.4683
7.6639,2.4619
7.6684,2.4532
7.6694,2.4518
7.6696,2.4508
7.6706,2.4488
7.7101,2.3465
7.7127,2.3404
7.7127,2.3398
7.7128,2.3395
7.7128,2.3387
7.7141,2.3257
7.7133,1.8757
7.7680,1.8755
7.7950,1.8643
7.8157,1.8436
7.8269,1.8166
7.8269,1.7873
7.8322,1.7873
7.8322,1.8166
7.8434,1.8436
7.8641,1.8643
7.8911,1.8755
7.9058,1.8769
8.0219,1.8764
8.0226,2.3082
7.9988,2.3700
7.9617,2.3939
7.8911,2.3950
7.8641,2.4062
7.8434,2.4269
7.8322,2.4540
7.8322,2.4832
7.8434,2.5103
7.8641,2.5310
7.8911,2.5422
7.9058,2.5436
7.9751,2.5425
7.9797,2.5436
7.9872,2.5423
7.9966,2.5422
8.0024,2.5398
8.0085,2.5387
8.0217,2.5322
8.0939,2.4857
8.1006,2.4828
8.1044,2.4789
8.1095,2.4756
8.1147,2.4683
8.1210,2.4619
8.1255,2.4532
8.1265,2.4518
8.1267,2.4508
8.1278,2.4488
8.1673,2.3465
8.1698,2.3404
8.1699,2.3398
8.1700,2.3395
8.1700,2.3387
8.1712,2.3257
8.1706,1.9448
8.4022,1.9448
8.4024,2.0410
8.4022,2.0423
8.4025,2.0433
8.4034,2.4159
8.4022,2.4233
8.4035,2.4287
8.4036,2.4832
8.4148,2.5103
8.4355,2.5310
8.4626,2.5422
8.4918,2.5422
8.5153,2.5324
8.5189,2.5339
8.5268,2.5387
8.5330,2.5398
8.5387,2.5422
8.5534,2.5436
8.7362,2.5423
8.7416,2.5436
8.7496,2.5422
8.7585,2.5422
8.7643,2.5398
8.7704,2.5387
8.7836,2.5322
8.8558,2.4857
8.8625,2.4828
8.8663,2.4789
8.8714,2.4756
8.8766,2.4683
8.8829,2.4619
8.8874,2.4532
8.8884,2.4518
8.8887,2.4508
8.8897,2.4488
8.9292,2.3465
8.9317,2.3404
8.9318,2.3398
8.9319,2.3395
8.9319,2.3387
8.9331,2.3257
8.9318,2.2231
8.9319,2.2168
8.9317,2.2162
8.9317,2.2159
8.9314,2.2152
8.9278,2.2027
8.8901,2.1117
8.8884,2.1045
8.8852,2.1000
8.8829,2.0944
8.8766,2.0879
8.8714,2.0806
8.8637,2.0747
8.8625,2.0734
8.8616,2.0730
8.8598,2.0717
8.7890,2.0288
8.7855,2.0253
8.7784,2.0223
8.7704,2.0175
8.7643,2.0165
8.7585,2.0141
8.7439,2.0127
8.5763,2.0138
8.5509,1.9985
8.5508,1.9623
8.5576,1.9448
9.0879,1.9448
9.0890,2.0322
9.0880,2.0364
9.0892,2.0446
9.0893,2.0547
9.0915,2.0598
9.0923,2.0653
9.0970,2.0732
9.1005,2.0817
9.1045,2.0856
9.1074,2.0904
9.1147,2.0959
9.1212,2.1024
9.1264,2.1045
9.1309,2.1078
9.1447,2.1128
9.4698,2.1928
9.4702,2.3084
9.4464,2.3700
9.4095,2.3938
9.3000,2.3947
9.2276,2.3509
9.1987,2.3460
9.1702,2.3526
9.1464,2.3696
9.1309,2.3944
9.1260,2.4233
9.1326,2.4518
9.1496,2.4756
9.1612,2.4846
9.2320,2.5275
9.2355,2.5310
9.2427,2.5339
9.2506,2.5387
9.2568,2.5398
9.2626,2.5422
9.2772,2.5436
9.4220,2.5424
9.4273,2.5436
9.4352,2.5422
9.4442,2.5422
9.4500,2.5398
9.4561,2.5387
9.4693,2.5322
9.5415,2.4857
9.5482,2.4828
9.5520,2.4789
9.5572,2.4756
9.5624,2.4683
9.5686,2.4619
9.5731,2.4532
9.5741,2.4518
9.5744,2.4508
9.5754,2.4488
9.6149,2.3465
9.6174,2.3404
9.6175,2.3398
9.6176,2.3395
9.6176,2.3387
9.6189,2.3257
9.6183,2.1829
9.7736,2.1829
9.7750,2.2855
9.7749,2.2919
9.7751,2.2924
9.7751,2.2928
9.7754,2.2935
9.7790,2.3060
9.8176,2.3993
9.8201,2.4079
9.8231,2.4124
9.8239,2.4143
9.8251,2.4156
9.8281,2.4202
9.8686,2.4688
9.8734,2.4756
9.8757,2.4773
9.8765,2.4784
9.8782,2.4793
9.8851,2.4846
9.9559,2.5275
9.9593,2.5310
9.9665,2.5339
9.9744,2.5387
9.9806,2.5398
9.9864,2.5422
10.0010,2.5436
10.2061,2.5422
10.2062,2.5421
10.2063,2.5421
10.2203,2.5378
10.3476,2.4833
10.3682,2.4625
10.3794,2.4355
10.3793,2.4062
10.3680,2.3792
10.3473,2.3585
10.3202,2.3474
10.2910,2.3475
10.2769,2.3518
10.1791,2.3937
10.0239,2.3948
9.9768,2.3663
9.9532,2.3378
9.9235,2.2661
9.9226,2.1995
9.9501,2.1283
9.9734,2.0979
10.0288,2.0623
10.1716,2.0163
10.1800,2.0149
10.1873,2.0113
10.1893,2.0106
10.1903,2.0098
10.1931,2.0084
10.2698,1.9590
10.2779,1.9546
10.2799,1.9525
10.2810,1.9518
10.2821,1.9502
10.2881,1.9440
10.3249,1.8962
10.3305,1.8905
10.3330,1.8857
10.3342,1.8841
10.3348,1.8823
10.3373,1.8774
10.3768,1.7751
10.3793,1.7690
10.3794,1.7683
10.3795,1.7681
10.3795,1.7673
10.3808,1.7543
10.3794,1.6517
10.3795,1.6453
10.3793,1.6448
10.3793,1.6444
10.3790,1.6437
10.3754,1.6312
10.3367,1.5379
10.3342,1.5293
10.3313,1.5248
10.3305,1.5229
10.3292,1.5216
10.3262,1.5170
10.2858,1.4684
10.2810,1.4616
10.2787,1.4599
10.2779,1.4588
10.2762,1.4579
10.2693,1.4526
10.1985,1.4097
10.1950,1.4062
10.1879,1.4033
10.1800,1.3985
10.1738,1.3974
10.1680,1.3950
10.1534,1.3936
9.9483,1.3950
9.9482,1.3951
9.9481,1.3951
9.9341,1.3994
9.8068,1.4540
9.7862,1.4747
9.7750,1.5017
9.7751,1.5310
9.7863,1.5580
9.8071,1.5787
9.8341,1.5898
9.8634,1.5898
9.8775,1.5855
9.9752,1.5435
10.1305,1.5424
10.1775,1.5709
10.2012,1.5994
10.2309,1.6711
10.2318,1.7377
10.2043,1.8089
10.1810,1.8393
10.1256,1.8749
9.9828,1.9209
9.9744,1.9223
9.9670,1.9259
9.9651,1.9266
9.9641,1.9274
9.9612,1.9288
9.8846,1.9782
9.8765,1.9827
9.8745,1.9847
9.8734,1.9854
9.8723,1.9870
9.8662,1.9932
9.8295,2.0410
9.8239,2.0467
9.8214,2.0515
9.8201,2.0531
9.8196,2.0549
9.8171,2.0598
9.7776,2.1622
9.7751,2.1683
9.7750,2.1689
9.7749,2.1692
9.7749,2.1699
9.7736,2.1829
9.6183,2.1829
9.6182,2.1412
9.6188,2.1389
9.6182,2.1348
9.6175,1.9418
9.6176,1.9311
9.6174,1.9305
9.6174,1.9302
9.6171,1.9295
9.6135,1.9169
9.5758,1.8260
9.5741,1.8188
9.5710,1.8143
9.5686,1.8087
9.5624,1.8022
9.5572,1.7949
9.5494,1.7890
9.5482,1.7877
9.5473,1.7873
9.5455,1.7860
9.4747,1.7431
9.4712,1.7396
9.4641,1.7366
9.4561,1.7318
9.4500,1.7308
9.4442,1.7284
9.4296,1.7269
9.2847,1.7282
9.2795,1.7270
9.2715,1.7283
9.2626,1.7284
9.2568,1.7308
9.2506,1.7318
9.2374,1.7383
9.1653,1.7848
9.1586,1.7877
9.1548,1.7916
9.1496,1.7949
9.1444,1.8022
9.1381,1.8087
9.1336,1.8173
9.1326,1.8188
9.1324,1.8197
9.1314,1.8217
9.0919,1.9241
9.0893,1.9302
9.0893,1.9308
9.0892,1.9311
9.0892,1.9318
9.0879,1.9448
8.5576,1.9448
8.5747,1.9005
8.6115,1.8768
8.7211,1.8758
8.7935,1.9197
8.8223,1.9245
8.8508,1.9179
8.8747,1.9010
8.8902,1.8761
8.8950,1.8473
8.8884,1.8188
8.8714,1.7949
8.8598,1.7860
8.7890,1.7431
8.7855,1.7396
8.7784,1.7366
8.7704,1.7318
8.7643,1.7308
8.7585,1.7284
8.7439,1.7269
8.5990,1.7282
8.5938,1.7270
8.5858,1.7283
8.5768,1.7284
8.5711,1.7308
8.5649,1.7318
8.5517,1.7383
8.4796,1.7848
8.4729,1.7877
8.4691,1.7916
8.4639,1.7949
8.4587,1.8022
8.4524,1.8087
8.4479,1.8173
8.4469,1.8188
8.4467,1.8197
8.4456,1.8217
8.4062,1.9241
8.4036,1.9302
8.4036,1.9308
8.4035,1.9311
8.4035,1.9318
8.4022,1.9448
8.1706,1.9448
8.1705,1.8757
8.2252,1.8755
8.2522,1.8643
8.2729,1.8436
8.2841,1.8166
8.2841,1.7873
8.2729,1.7603
8.2522,1.7396
8.2252,1.7284
8.2105,1.7269
8.1702,1.7271
8.1698,1.4540
8.1586,1.4269
8.1379,1.4062
8.1109,1.3950
8.0816,1.3950
8.0546,1.4062
8.0339,1.4269
8.0227,1.4540
8.0212,1.4686
8.0217,1.7278
7.8911,1.7284
7.8641,1.7396
7.8434,1.7603
7.8322,1.7873
7.8269,1.7873
7.8157,1.7603
7.7950,1.7396
7.7680,1.7284
7.7534,1.7269
7.7131,1.7271
7.7127,1.4540
7.7015,1.4269
7.6808,1.4062
7.6537,1.3950
7.6245,1.3950
7.5974,1.4062
7.5767,1.4269
7.5655,1.4540
7.5641,1.4686
7.5645,1.7278
7.4340,1.7284
7.4069,1.7396
7.3863,1.7603
7.3751,1.7873
7.2561,1.7873
7.2555,1.4540
7.2443,1.4269
7.2236,1.4062
7.1966,1.3950
7.1673,1.3950
7.1403,1.4062
7.1196,1.4269
7.1084,1.4540
7.1070,1.4686
7.1083,2.3082
7.0845,2.3700
7.0163,2.4140
6.9993,2.4378
6.9927,2.4663
6.8214,2.4663
6.8258,2.4619
6.8303,2.4532
6.8313,2.4518
6.8315,2.4508
6.8325,2.4488
6.8720,2.3465
6.8746,2.3404
6.8746,2.3398
6.8747,2.3395
6.8747,2.3387
6.8760,2.3257
6.8753,2.1412
6.8759,2.1389
6.8753,2.1348
6.8746,1.9418
6.8747,1.9311
6.8746,1.9305
6.8746,1.9302
6.8743,1.9295
6.8706,1.9169
6.8330,1.8260
6.8313,1.8188
6.8281,1.8143
6.8258,1.8087
6.8195,1.8022
6.8143,1.7949
6.8065,1.7890
6.8053,1.7877
6.8044,1.7873
6.8027,1.7860
6.7319,1.7431
6.7284,1.7396
6.7212,1.7366
6.7133,1.7318
6.7071,1.7308
6.7013,1.7284
6.6867,1.7269
6.5419,1.7282
6.5366,1.7270
6.5287,1.7283
6.5197,1.7284
6.5139,1.7308
6.5078,1.7318
6.4946,1.7383
6.4224,1.7848
6.4157,1.7877
6.4119,1.7916
6.4067,1.7949
6.4015,1.8022
6.3953,1.8087
6.3908,1.8173
6.3898,1.8188
6.3895,1.8197
6.3885,1.8217
6.3490,1.9241
6.3465,1.9302
6.3464,1.9308
6.3463,1.9311
6.3463,1.9318
6.3450,1.9448
5.5419,1.9448
5.5413,1.4818
5.5417,1.4806
5.5412,1.4679
5.5412,1.4540
5.5407,1.4527
5.5407,1.4514
5.5351,1.4393
5.5300,1.4269
5.5291,1.4260
5.5285,1.4248
5.5188,1.4157
5.5093,1.4062
5.5081,1.4057
5.5071,1.4048
5.4946,1.4002
5.4823,1.3950
5.4809,1.3950
5.4797,1.3946
5.4664,1.3950
5.4530,1.3950
5.4518,1.3956
5.4504,1.3956
5.4383,1.4011
5.4260,1.4062
5.4250,1.4072
5.4238,1.4078
5.4147,1.4175
5.4053,1.4269
5.4048,1.4282
5.4039,1.4292
5.3974,1.4424
5.2014,1.9705
5.0079,1.4552
5.0079,1.4540
5.0031,1.4423
4.9981,1.4292
4.9972,1.4282
4.9967,1.4269
4.9873,1.4175
4.9782,1.4078
4.9770,1.4072
4.9760,1.4062
4.9637,1.4011
4.9516,1.3956
4.9502,1.3956
4.9490,1.3950
4.9356,1.3950
4.9223,1.3946
4.9210,1.3950
4.9197,1.3950
4.9074,1.4001
4.8949,1.4048
4.8939,1.4057
4.8927,1.4062
4.8832,1.4157
4.8735,1.4248
4.8729,1.4260
4.8720,1.4269
4.8669,1.4392
4.8613,1.4514
4.8613,1.4527
4.8608,1.4540
4.8593,1.4686
3.9031,1.4686
3.9031,1.4540
3.8919,1.4269
3.8712,1.4062
3.8442,1.3950
3.8149,1.3950
3.7879,1.4062
3.7672,1.4269
3.7560,1.4540
3.7546,1.4686
3.7553,1.9709
3.5731,1.7446
3.5475,1.7304
3.5184,1.7272
3.4903,1.7354
3.4674,1.7536
3.4533,1.7793
3.4501,1.8084
3.4582,1.8365
3.4662,1.8488
3.6628,2.0931
3.4542,2.4433
3.4499,2.4723
3.2357,2.4723
3.2386,2.4683
3.2448,2.4619
3.2493,2.4532
3.2503,2.4518
3.2506,2.4508
3.2516,2.4488
3.2911,2.3465
3.2936,2.3404
3.2937,2.3398
3.2938,2.3395
3.2938,2.3387
3.2950,2.3257
3.2944,2.1412
3.2950,2.1389
3.2943,2.1348
3.2936,1.9418
3.2938,1.9311
3.2936,1.9305
3.2936,1.9302
3.2933,1.9295
3.2897,1.9169
3.2520,1.8260
3.2503,1.8188
3.2472,1.8143
3.2448,1.8087
3.2386,1.8022
3.2333,1.7949
3.2256,1.7890
3.2244,1.7877
3.2235,1.7873
3.2217,1.7860
3.1509,1.7431
3.1474,1.7396
3.1403,1.7366
3.1323,1.7318
3.1262,1.7308
3.1204,1.7284
3.1058,1.7269
2.9609,1.7282
2.9557,1.7270
2.9477,1.7283
2.9387,1.7284
2.9330,1.7308
2.9268,1.7318
2.9136,1.7383
2.8415,1.7848
2.8348,1.7877
2.8310,1.7916
2.8258,1.7949
2.8206,1.8022
2.8143,1.8087
2.8098,1.8173
2.8088,1.8188
2.8086,1.8197
2.8076,1.8217
2.7681,1.9241
2.7655,1.9302
2.7655,1.9308
2.7654,1.9311
2.7654,1.9318
2.7641,1.9448
2.5701,1.9448
2.5698,1.7873
2.5586,1.7603
2.5379,1.7396
2.5109,1.7284
2.4816,1.7284
2.4546,1.7396
2.4339,1.7603
2.4306,1.7682
2.3890,1.7431
2.3855,1.7396
2.3784,1.7366
2.3704,1.7318
2.3643,1.7308
2.3585,1.7284
2.3439,1.7269
2.3416,1.7270
2.3416,1.7270
2.3416,1.7270
2.2530,1.7284
2.2260,1.7396
2.2053,1.7603
2.1941,1.7873
2.0425,1.7873
2.0407,1.7860
1.9700,1.7431
1.9665,1.7396
1.9593,1.7366
1.9514,1.7318
1.9452,1.7308
1.9394,1.7284
1.9248,1.7269
1.8178,1.7281
1.8128,1.7270
1.8050,1.7283
1.7959,1.7284
1.7901,1.7308
1.7839,1.7318
1.7708,1.7383
1.6829,1.7949
1.6659,1.8188
1.6594,1.8473
1.6642,1.8761
1.6797,1.9010
1.7035,1.9179
1.7320,1.9245
1.7609,1.9197
1.7741,1.9132
1.8306,1.8767
1.9022,1.8759
1.9403,1.8990
1.9644,1.9571
1.9648,1.9766
1.9416,2.0367
1.9047,2.0605
1.8178,2.0615
1.8128,2.0603
1.8050,2.0616
1.7959,2.0617
1.7901,2.0641
1.7839,2.0651
1.7708,2.0717
1.6986,2.1182
1.6919,2.1210
1.6881,2.1249
1.6829,2.1283
1.6777,2.1356
1.6715,2.1420
1.6670,2.1507
1.6659,2.1521
1.6657,2.1531
1.6647,2.1550
1.6252,2.2574
1.6227,2.2635
1.6226,2.2641
1.6225,2.2644
1.6225,2.2652
1.6212,2.2781
1.5101,2.2781
1.5101,1.2825
10.4919,1.2825
Z" /> 
</g>
<g style="fill:#FFFFFF; fill-opacity:1.0000; stroke:none;">
<circle cx="12.1130" cy="1.8879" r="0.2500" /> 
</g>
<g style="fill:#FFFFFF; fill-opacity:1.0000; stroke:none;">
<circle cx="13.1130" cy="1.8879" r="0.2500" /> 
</g>
<g style="fill:#FFFFFF; fill-opacity:1.0000; stroke:none;">
<circle cx="12.1130" cy="2.8879" r="0.2500" /> 
</g>
<g style="fill:#FFFFFF; fill-opacity:1.0000; stroke:none;">
<circle cx="13.1130" cy="2.8879" r="0.2500" /> 
</g>
<g style="fill:#FFFFFF; fill-opacity:1.0000; stroke:none;">
<circle cx="12.1130" cy="3.8879" r="0.2500" /> 
</g>
<g style="fill:#FFFFFF; fill-opacity:1.0000; stroke:none;">
<circle cx="13.1130" cy="3.8879" r="0.2500" /> 
</g>
<g style="fill:#FFFFFF; fill-opacity:1.0000; stroke:none;">
<circle cx="12.1130" cy="4.8879" r="0.2500" /> 
</g>
<g style="fill:#FFFFFF; fill-opacity:1.0000; stroke:none;">
<circle cx="13.1130" cy="4.8879" r="0.2500" /> 
<path style="fill:#C83434; fill-opacity:1.0000; stroke:none;fill-rule:evenodd;"
d="M 11.6880,2.3129
11.6880,1.4629
12.5380,1.4629
12.5380,2.3129
Z" /> 
</g>
<g style="fill:#C83434; fill-opacity:1.0000; stroke:none;">
<circle cx="13.1130" cy="1.8879" r="0.4250" /> 
<circle cx="12.1130" cy="2.8879" r="0.4250" /> 
<circle cx="13.1130" cy="2.8879" r="0.4250" /> 
<circle cx="12.1130" cy="3.8879" r="0.4250" /> 
<circle cx="13.1130" cy="3.8879" r="0.4250" /> 
<circle cx="12.1130" cy="4.8879" r="0.4250" /> 
<circle cx="13.1130" cy="4.8879" r="0.4250" /> 
<path style="fill:#C83434; fill-opacity:1.0000; stroke:none;fill-rule:evenodd;"
d="M 1.0580,2.3379
1.0656,2.2996
1.0873,2.2672
1.1197,2.2455
1.1580,2.2379
2.5830,2.2379
2.6213,2.2455
2.6537,2.2672
2.6754,2.2996
2.6830,2.3379
2.6830,2.5379
2.6754,2.5761
2.6537,2.6086
2.6213,2.6303
2.5830,2.6379
1.1580,2.6379
1.1197,2.6303
1.0873,2.6086
1.0656,2.5761
1.0580,2.5379
Z" /> 
<path style="fill:#C83434; fill-opacity:1.0000; stroke:none;fill-rule:evenodd;"
d="M 1.0580,2.9879
1.0656,2.9496
1.0873,2.9172
1.1197,2.8955
1.1580,2.8879
2.5830,2.8879
2.6213,2.8955
2.6537,2.9172
2.6754,2.9496
2.6830,2.9879
2.6830,3.1879
2.6754,3.2261
2.6537,3.2586
2.6213,3.2803
2.5830,3.2879
1.1580,3.2879
1.1197,3.2803
1.0873,3.2586
1.0656,3.2261
1.0580,3.1879
Z" /> 
<path style="fill:#C83434; fill-opacity:1.0000; stroke:none;fill-rule:evenodd;"
d="M 1.0580,3.6379
1.0656,3.5996
1.0873,3.5672
1.1197,3.5455
1.1580,3.5379
2.5830,3.5379
2.6213,3.5455
2.6537,3.5672
2.6754,3.5996
2.6830,3.6379
2.6830,3.8379
2.6754,3.8761
2.6537,3.9086
2.6213,3.9303
2.5830,3.9379
1.1580,3.9379
1.1197,3.9303
1.0873,3.9086
1.0656,3.8761
1.0580,3.8379
Z" /> 
<path style="fill:#C83434; fill-opacity:1.0000; stroke:none;fill-rule:evenodd;"
d="M 1.0580,4.2879
1.0656,4.2496
1.0873,4.2172
1.1197,4.1955
1.1580,4.1879
2.5830,4.1879
2.6213,4.1955
2.6537,4.2172
2.6754,4.2496
2.6830,4.2879
2.6830,4.4879
2.6754,4.5261
2.6537,4.5586
2.6213,4.5803
2.5830,4.5879
1.1580,4.5879
1.1197,4.5803
1.0873,4.5586
1.0656,4.5261
1.0580,4.4879
Z" /> 
<path style="fill:#C83434; fill-opacity:1.0000; stroke:none;fill-rule:evenodd;"
d="M 5.2830,4.2879
5.2906,4.2496
5.3123,4.2172
5.3447,4.1955
5.3830,4.1879
6.8080,4.1879
6.8463,4.1955
6.8787,4.2172
6.9004,4.2496
6.9080,4.2879
6.9080,4.4879
6.9004,4.5261
6.8787,4.5586
6.8463,4.5803
6.8080,4.5879
5.3830,4.5879
5.3447,4.5803
5.3123,4.5586
5.2906,4.5261
5.2830,4.4879
Z" /> 
<path style="fill:#C83434; fill-opacity:1.0000; stroke:none;fill-rule:evenodd;"
d="M 5.2830,3.6379
5.2906,3.5996
5.3123,3.5672
5.3447,3.5455
5.3830,3.5379
6.8080,3.5379
6.8463,3.5455
6.8787,3.5672
6.9004,3.5996
6.9080,3.6379
6.9080,3.8379
6.9004,3.8761
6.8787,3.9086
6.8463,3.9303
6.8080,3.9379
5.3830,3.9379
5.3447,3.9303
5.3123,3.9086
5.2906,3.8761
5.2830,3.8379
Z" /> 
<path style="fill:#C83434; fill-opacity:1.0000; stroke:none;fill-rule:evenodd;"
d="M 5.2830,2.9879
5.2906,2.9496
5.3123,2.9172
5.3447,2.8955
5.3830,2.8879
6.8080,2.8879
6.8463,2.8955
6.8787,2.9172
6.9004,2.9496
6.9080,2.9879
6.9080,3.1879
6.9004,3.2261
6.8787,3.2586
6.8463,3.2803
6.8080,3.2879
5.3830,3.2879
5.3447,3.2803
5.3123,3.2586
5.2906,3.2261
5.2830,3.1879
Z" /> 
<path style="fill:#C83434; fill-opacity:1.0000; stroke:none;fill-rule:evenodd;"
d="M 5.2830,2.3379
5.2906,2.2996
5.3123,2.2672
5.3447,2.2455
5.3830,2.2379
6.8080,2.2379
6.8463,2.2455
6.8787,2.2672
6.9004,2.2996
6.9080,2.3379
6.9080,2.5379
6.9004,2.5761
6.8787,2.6086
6.8463,2.6303
6.8080,2.6379
5.3830,2.6379
5.3447,2.6303
5.3123,2.6086
5.2906,2.5761
5.2830,2.5379
Z" /> 
</g>
<g style="fill:#ECECEC; fill-opacity:1.0000; stroke:none;">
<circle cx="3.0038" cy="2.4405" r="0.3000" /> 
</g>
<g style="fill:none; 
stroke:#C83434; stroke-width:0.2000; stroke-opacity:1; 
stroke-linecap:round; stroke-linejoin:round;">
<path d="M0.8580 2.8879
L1.0580 3.0879
" />
<path d="M1.0580 3.0879
L1.8705 3.0879
" />
<path d="M0.8580 2.2108
L0.8580 2.8879
" />
<path d="M12.9640 1.1379
L1.9310 1.1379
" />
<path d="M1.9310 1.1379
L0.8580 2.2108
" />
<path d="M13.1130 1.2868
L12.9640 1.1379
" />
<path d="M13.1130 1.8879
L13.1130 1.2868
" />
<path d="M5.2830 3.0879
L6.0955 3.0879
" />
<path d="M4.9830 2.2864
L4.9830 2.7879
" />
<path d="M5.2315 2.0379
L4.9830 2.2864
" />
<path d="M9.9551 4.8879
L7.1051 2.0379
" />
<path d="M12.1130 4.8879
L9.9551 4.8879
" />
<path d="M7.1051 2.0379
L5.2315 2.0379
" />
<path d="M5.2560 4.3879
L6.0955 4.3879
" />
<path d="M4.6717 3.8036
L5.2560 4.3879
" />
<path d="M4.6717 2.1735
L4.6717 3.8036
" />
<path d="M5.1073 1.7379
L4.6717 2.1735
" />
<path d="M7.6283 1.7379
L5.1073 1.7379
" />
<path d="M9.7783 3.8879
L7.6283 1.7379
" />
<path d="M7.8940 1.4379
L9.3440 2.8879
" />
<path d="M9.3440 2.8879
L12.1130 2.8879
" />
<path d="M2.6830 3.7379
L4.9830 1.4379
" />
<path d="M4.9830 2.7879
L5.2830 3.0879
" />
<path d="M1.8705 3.7379
L2.6830 3.7379
" />
<path d="M12.1130 3.8879
L9.7783 3.8879
" />
<path d="M4.9830 1.4379
L7.8940 1.4379
" />
<path d="M9.3448 6.1235
L8.1092 4.8879
" />
<path d="M14.0380 5.2710
L13.1855 6.1235
" />
<path d="M14.0380 3.8129
L14.0380 5.2710
" />
<path d="M13.1130 2.8879
L14.0380 3.8129
" />
<path d="M13.1855 6.1235
L9.3448 6.1235
" />
<path d="M2.3705 4.8879
L8.1092 4.8879
" />
<path d="M6.9394 2.4379
L6.0955 2.4379
" />
<path d="M10.0250 5.5235
L6.9394 2.4379
" />
<path d="M13.1130 4.8879
L12.4774 5.5235
" />
<path d="M12.4774 5.5235
L10.0250 5.5235
" />
<path d="M7.6737 3.7379
L6.0955 3.7379
" />
<path d="M9.7593 5.8235
L7.6737 3.7379
" />
<path d="M13.7380 4.5129
L13.7380 5.1468
" />
<path d="M13.7380 5.1468
L13.0613 5.8235
" />
<path d="M13.1130 3.8879
L13.7380 4.5129
" />
<path d="M13.0613 5.8235
L9.7593 5.8235
" />
<path d="M3.0012 2.4379
L3.0038 2.4405
" />
<path d="M1.8705 2.4379
L3.0012 2.4379
" />
<path d="M1.8705 4.3879
L2.3705 4.8879
" />
</g>
<g style="fill:#FFFFFF; fill-opacity:1.0000; stroke:none;">
<circle cx="3.0038" cy="2.4405" r="0.1500" /> 
</g>
<g style="fill:#FFFFFF; fill-opacity:1.0000; stroke:none;">
<circle cx="12.1130" cy="1.8879" r="0.2500" /> 
</g>
<g style="fill:#FFFFFF; fill-opacity:1.0000; stroke:none;">
<circle cx="13.1130" cy="1.8879" r="0.2500" /> 
</g>
<g style="fill:#FFFFFF; fill-opacity:1.0000; stroke:none;">
<circle cx="12.1130" cy="2.8879" r="0.2500" /> 
</g>
<g style="fill:#FFFFFF; fill-opacity:1.0000; stroke:none;">
<circle cx="13.1130" cy="2.8879" r="0.2500" /> 
</g>
<g style="fill:#FFFFFF; fill-opacity:1.0000; stroke:none;">
<circle cx="12.1130" cy="3.8879" r="0.2500" /> 
</g>
<g style="fill:#FFFFFF; fill-opacity:1.0000; stroke:none;">
<circle cx="13.1130" cy="3.8879" r="0.2500" /> 
</g>
<g style="fill:#FFFFFF; fill-opacity:1.0000; stroke:none;">
<circle cx="12.1130" cy="4.8879" r="0.2500" /> 
</g>
<g style="fill:#FFFFFF; fill-opacity:1.0000; stroke:none;">
<circle cx="13.1130" cy="4.8879" r="0.2500" /> 
<path style="fill:#D864FF; fill-opacity:0.4000; stroke:none;fill-rule:evenodd;"
d="M 11.6880,2.3129
11.6880,1.4629
12.5380,1.4629
12.5380,2.3129
Z" /> 
</g>
<g style="fill:#D864FF; fill-opacity:0.4000; stroke:none;">
<circle cx="13.1130" cy="1.8879" r="0.4250" /> 
<circle cx="12.1130" cy="2.8879" r="0.4250" /> 
<circle cx="13.1130" cy="2.8879" r="0.4250" /> 
<circle cx="12.1130" cy="3.8879" r="0.4250" /> 
<circle cx="13.1130" cy="3.8879" r="0.4250" /> 
<circle cx="12.1130" cy="4.8879" r="0.4250" /> 
<circle cx="13.1130" cy="4.8879" r="0.4250" /> 
<path style="fill:#D864FF; fill-opacity:0.4000; stroke:none;fill-rule:evenodd;"
d="M 1.0580,2.3379
1.0656,2.2996
1.0873,2.2672
1.1197,2.2455
1.1580,2.2379
2.5830,2.2379
2.6213,2.2455
2.6537,2.2672
2.6754,2.2996
2.6830,2.3379
2.6830,2.5379
2.6754,2.5761
2.6537,2.6086
2.6213,2.6303
2.5830,2.6379
1.1580,2.6379
1.1197,2.6303
1.0873,2.6086
1.0656,2.5761
1.0580,2.5379
Z" /> 
<path style="fill:#D864FF; fill-opacity:0.4000; stroke:none;fill-rule:evenodd;"
d="M 1.0580,2.9879
1.0656,2.9496
1.0873,2.9172
1.1197,2.8955
1.1580,2.8879
2.5830,2.8879
2.6213,2.8955
2.6537,2.9172
2.6754,2.9496
2.6830,2.9879
2.6830,3.1879
2.6754,3.2261
2.6537,3.2586
2.6213,3.2803
2.5830,3.2879
1.1580,3.2879
1.1197,3.2803
1.0873,3.2586
1.0656,3.2261
1.0580,3.1879
Z" /> 
<path style="fill:#D864FF; fill-opacity:0.4000; stroke:none;fill-rule:evenodd;"
d="M 1.0580,3.6379
1.0656,3.5996
1.0873,3.5672
1.1197,3.5455
1.1580,3.5379
2.5830,3.5379
2.6213,3.5455
2.6537,3.5672
2.6754,3.5996
2.6830,3.6379
2.6830,3.8379
2.6754,3.8761
2.6537,3.9086
2.6213,3.9303
2.5830,3.9379
1.1580,3.9379
1.1197,3.9303
1.0873,3.9086
1.0656,3.8761
1.0580,3.8379
Z" /> 
<path style="fill:#D864FF; fill-opacity:0.4000; stroke:none;fill-rule:evenodd;"
d="M 1.0580,4.2879
1.0656,4.2496
1.0873,4.2172
1.1197,4.1955
1.1580,4.1879
2.5830,4.1879
2.6213,4.1955
2.6537,4.2172
2.6754,4.2496
2.6830,4.2879
2.6830,4.4879
2.6754,4.5261
2.6537,4.5586
2.6213,4.5803
2.5830,4.5879
1.1580,4.5879
1.1197,4.5803
1.0873,4.5586
1.0656,4.5261
1.0580,4.4879
Z" /> 
<path style="fill:#D864FF; fill-opacity:0.4000; stroke:none;fill-rule:evenodd;"
d="M 5.2830,4.2879
5.2906,4.2496
5.3123,4.2172
5.3447,4.1955
5.3830,4.1879
6.8080,4.1879
6.8463,4.1955
6.8787,4.2172
6.9004,4.2496
6.9080,4.2879
6.9080,4.4879
6.9004,4.5261
6.8787,4.5586
6.8463,4.5803
6.8080,4.5879
5.3830,4.5879
5.3447,4.5803
5.3123,4.5586
5.2906,4.5261
5.2830,4.4879
Z" /> 
<path style="fill:#D864FF; fill-opacity:0.4000; stroke:none;fill-rule:evenodd;"
d="M 5.2830,3.6379
5.2906,3.5996
5.3123,3.5672
5.3447,3.5455
5.3830,3.5379
6.8080,3.5379
6.8463,3.5455
6.8787,3.5672
6.9004,3.5996
6.9080,3.6379
6.9080,3.8379
6.9004,3.8761
6.8787,3.9086
6.8463,3.9303
6.8080,3.9379
5.3830,3.9379
5.3447,3.9303
5.3123,3.9086
5.2906,3.8761
5.2830,3.8379
Z" /> 
<path style="fill:#D864FF; fill-opacity:0.4000; stroke:none;fill-rule:evenodd;"
d="M 5.2830,2.9879
5.2906,2.9496
5.3123,2.9172
5.3447,2.8955
5.3830,2.8879
6.8080,2.8879
6.8463,2.8955
6.8787,2.9172
6.9004,2.9496
6.9080,2.9879
6.9080,3.1879
6.9004,3.2261
6.8787,3.2586
6.8463,3.2803
6.8080,3.2879
5.3830,3.2879
5.3447,3.2803
5.3123,3.2586
5.2906,3.2261
5.2830,3.1879
Z" /> 
<path style="fill:#D864FF; fill-opacity:0.4000; stroke:none;fill-rule:evenodd;"
d="M 5.2830,2.3379
5.2906,2.2996
5.3123,2.2672
5.3447,2.2455
5.3830,2.2379
6.8080,2.2379
6.8463,2.2455
6.8787,2.2672
6.9004,2.2996
6.9080,2.3379
6.9080,2.5379
6.9004,2.5761
6.8787,2.6086
6.8463,2.6303
6.8080,2.6379
5.3830,2.6379
5.3447,2.6303
5.3123,2.6086
5.2906,2.5761
5.2830,2.5379
Z" /> 
</g>
<g style="fill:none; 
stroke:#F2EDA1; stroke-width:0.1500; stroke-opacity:1; 
stroke-linecap:round; stroke-linejoin:round;">
<text x="10.0650" y="2.8389"
textLength="1.9643" font-size="1.3333" lengthAdjust="spacingAndGlyphs"
text-anchor="middle" opacity="0">J1</text>
<g class="stroked-text"><desc>J1</desc>
<path d="M9.7317 1.7937
L9.7317 2.5080
" />
<path d="M9.7317 2.5080
L9.6840 2.6508
" />
<path d="M9.6840 2.6508
L9.5888 2.7461
" />
<path d="M9.5888 2.7461
L9.4460 2.7937
" />
<path d="M9.4460 2.7937
L9.3507 2.7937
" />
<path d="M10.7317 2.7937
L10.1602 2.7937
" />
<path d="M10.4460 2.7937
L10.4460 1.7937
" />
<path d="M10.4460 1.7937
L10.3507 1.9366
" />
<path d="M10.3507 1.9366
L10.2555 2.0318
" />
<path d="M10.2555 2.0318
L10.1602 2.0794
" />
</g><text x="3.9830" y="6.3949"
textLength="2.2500" font-size="1.3333" lengthAdjust="spacingAndGlyphs"
text-anchor="middle" opacity="0">U1</text>
<g class="stroked-text"><desc>U1</desc>
<path d="M3.2211 5.3497
L3.2211 6.1592
" />
<path d="M3.2211 6.1592
L3.2687 6.2545
" />
<path d="M3.2687 6.2545
L3.3163 6.3021
" />
<path d="M3.3163 6.3021
L3.4116 6.3497
" />
<path d="M3.4116 6.3497
L3.6020 6.3497
" />
<path d="M3.6020 6.3497
L3.6973 6.3021
" />
<path d="M3.6973 6.3021
L3.7449 6.2545
" />
<path d="M3.7449 6.2545
L3.7925 6.1592
" />
<path d="M3.7925 6.1592
L3.7925 5.3497
" />
<path d="M4.7925 6.3497
L4.2211 6.3497
" />
<path d="M4.5068 6.3497
L4.5068 5.3497
" />
<path d="M4.5068 5.3497
L4.4116 5.4926
" />
<path d="M4.4116 5.4926
L4.3163 5.5878
" />
<path d="M4.3163 5.5878
L4.2211 5.6354
" />
</g></g>
<g style="fill:none; 
stroke:#F2EDA1; stroke-width:0.1200; stroke-opacity:1; 
stroke-linecap:round; stroke-linejoin:round;">
<path d="M11.4030 1.2029
L12.1130 1.2029
" />
<path d="M11.4030 1.8879
L11.4030 1.2029
" />
<path d="M11.4030 2.5729
L11.4030 5.4479
" />
<path d="M11.4030 2.5729
L11.5047 2.5729
" />
<path d="M11.4030 5.4479
L11.7185 5.4479
" />
<path d="M12.5075 5.4479
L12.7185 5.4479
" />
<path d="M13.5075 1.3279
L13.8230 1.3279
" />
<path d="M13.5075 5.4479
L13.8230 5.4479
" />
<path d="M13.8230 1.3279
L13.8230 5.4479
" />
<path d="M3.9830 1.8029
L2.4830 1.8029
" />
<path d="M3.9830 1.8029
L5.4830 1.8029
" />
<path d="M3.9830 5.0229
L2.4830 5.0229
" />
<path d="M3.9830 5.0229
L5.4830 5.0229
" />
<path style="fill:#F2EDA1; fill-opacity:1.0000; 
stroke:#F2EDA1; stroke-width:0.1200; stroke-opacity:1; 
stroke-linecap:round; stroke-linejoin:round;fill-rule:evenodd;"
d="M 1.7705,1.9779
1.5305,1.6479
2.0105,1.6479
Z" /> 
</g>
<g style="fill:#FFFFFF; fill-opacity:1.0000; stroke:none;">
<circle cx="12.1130" cy="1.8879" r="0.2500" /> 
</g>
<g style="fill:#FFFFFF; fill-opacity:1.0000; stroke:none;">
<circle cx="13.1130" cy="1.8879" r="0.2500" /> 
</g>
<g style="fill:#FFFFFF; fill-opacity:1.0000; stroke:none;">
<circle cx="12.1130" cy="2.8879" r="0.2500" /> 
</g>
<g style="fill:#FFFFFF; fill-opacity:1.0000; stroke:none;">
<circle cx="13.1130" cy="2.8879" r="0.2500" /> 
</g>
<g style="fill:#FFFFFF; fill-opacity:1.0000; stroke:none;">
<circle cx="12.1130" cy="3.8879" r="0.2500" /> 
</g>
<g style="fill:#FFFFFF; fill-opacity:1.0000; stroke:none;">
<circle cx="13.1130" cy="3.8879" r="0.2500" /> 
</g>
<g style="fill:#FFFFFF; fill-opacity:1.0000; stroke:none;">
<circle cx="12.1130" cy="4.8879" r="0.2500" /> 
</g>
<g style="fill:#FFFFFF; fill-opacity:1.0000; stroke:none;">
<circle cx="13.1130" cy="4.8879" r="0.2500" /> 
<path style="fill:none; 
stroke:#D0D2CD; stroke-width:0.0500; stroke-opacity:1; 
stroke-linecap:round; stroke-linejoin:round;fill:none"
d="M 0.0250,0.0250
15.0250,0.0250
15.0250,7.0250
0.0250,7.0250
Z" /> 
</g> 
</svg>
